<svg id="Layer_1" data-name="Layer 1" xmlns="http://www.w3.org/2000/svg" viewBox="0 0 435.78 110.43"><defs><filter id="drop-shadow" x="-25%" y="-25%" width="150%" height="150%"><feGaussianBlur in="SourceAlpha" stdDeviation="2"/><feOffset result="offsetblur"/><feFlood flood-color="rgba(0,0,0,0.4)"/><feComposite in2="offsetblur" operator="in"/><feMerge><feMergeNode/><feMergeNode in="SourceGraphic"/></feMerge></filter><style>.cls-1{fill:#6a2774}.cls-2{opacity:.35}.cls-3{fill:#fff}.cls-4{fill:#00adef}</style></defs><g id="The_Empowherment_Network" data-name="The Empowherment Network"><g id="sides" filter="url(#drop-shadow)"><path class="cls-1" d="M196.54 47.52l-10-10a17.68 17.68 0 0 0-5.71-3.89 18.71 18.71 0 0 0-7.45-1.43 18.46 18.46 0 0 0-7.38 1.43 16.89 16.89 0 0 0-5.6 3.89 17.24 17.24 0 0 0-3.57 5.71 17.73 17.73 0 0 0-1.06 4.23l-10.15-10.12a17.21 17.21 0 0 0-5.6-3.81 18.19 18.19 0 0 0-7.24-1.4 15.81 15.81 0 0 0-6.06 1.29 11.27 11.27 0 0 0-3.16 2L121 32.9h-8V48a12 12 0 0 0-.94-1.28 13.26 13.26 0 0 0-1-1l-9.95-10c-2.39-2.2-5.75-3.31-10.11-3.31a15.51 15.51 0 0 0-6.3 1.29A11.62 11.62 0 0 0 80 38l-2.8-2.88a7.92 7.92 0 0 0-2-1.42 12.92 12.92 0 0 0-6-1.43 13.12 13.12 0 0 0-2.55.25 10.71 10.71 0 0 0-2.52.8A9.25 9.25 0 0 0 62 34.79c-.08.07-.14.16-.21.23l-2.17-2.19h-5.5v-4.42l-10-10H7.44v49l10 10h36.68v-7.56l7.54 7.56h8.54V58.93a11.19 11.19 0 0 1 .49-3.26 9 9 0 0 1 1.44-2.8A6.91 6.91 0 0 1 74.44 51l.18-.08v16.49l10 10h8.54V58.93a10.31 10.31 0 0 1 .53-3.26 8.06 8.06 0 0 1 1.5-2.67 7.21 7.21 0 0 1 2-1.64v16.1l10 10H113v5.82l10 10h8.54V73.6l1 1a8.63 8.63 0 0 0 1.3 1.09 13 13 0 0 0 3 1.5 17.13 17.13 0 0 0 3.19.8 19.17 19.17 0 0 0 3 .25 18.57 18.57 0 0 0 7.38-1.4 15.86 15.86 0 0 0 5.5-3.85 16.54 16.54 0 0 0 3.39-5.74 20.32 20.32 0 0 0 1-4.31l10 10a16.39 16.39 0 0 0 5.63 3.85 20.92 20.92 0 0 0 15.05 0 16.41 16.41 0 0 0 9.24-9.59 19.82 19.82 0 0 0 1.23-7 19.11 19.11 0 0 0-1.26-7 16.79 16.79 0 0 0-3.65-5.68zM141.25 54a9.18 9.18 0 0 1-2 3.12 9.28 9.28 0 0 1-3.11 2.1 10 10 0 0 1-3.78.76 10.79 10.79 0 0 1 .65-3.61 9.31 9.31 0 0 1 1.93-3.11 8.87 8.87 0 0 1 3.08-2.1 10.29 10.29 0 0 1 3.92-.76 10.24 10.24 0 0 1-.69 3.6zm32.82 6.19a12 12 0 0 1 .59-3.78 9.73 9.73 0 0 1 1.79-3.25 9 9 0 0 1 2.94-2.32 8.66 8.66 0 0 1 3.43-.84v.19a12 12 0 0 1-.6 3.78 10.16 10.16 0 0 1-1.75 3.26 8.24 8.24 0 0 1-2.94 2.27 9.26 9.26 0 0 1-3.47.81zM51.66 65.87l-7.54-7.56H26.61v-1h25zm0-18.67l-8.52-8.56H26.61v-1.27h25z"/><path class="cls-1" d="M418.35 35.28a11.1 11.1 0 0 0-3.82-2.34 13.59 13.59 0 0 0-5.07-.95 20.87 20.87 0 0 0-2.63.17 10.33 10.33 0 0 0-2.55.71 9.41 9.41 0 0 0-2.42 1.46 7.12 7.12 0 0 0-.69.66l-2.07-2.09h-7.91v15.25c-.23-.32-.46-.65-.71-.95-.39-.45-11.17-11.2-11.18-11.2a14.36 14.36 0 0 0-4.56-2.81 21.32 21.32 0 0 0-7.74-1.34 20.62 20.62 0 0 0-7.6 1.33 16.5 16.5 0 0 0-5.77 3.74 15.94 15.94 0 0 0-2.24 2.87c-.41-1-.85-2-1.35-3a37.28 37.28 0 0 0-5.14-7.67q-.8-.91-1.65-1.77l-10-9.95a36.19 36.19 0 0 0-5.58-4.61l-4.27 5.74 5.1 5.09a30.14 30.14 0 0 1 3.83 6.29 34 34 0 0 1 3 14.1q0 12.56-7.36 21v-5.8a26.38 26.38 0 0 0-.84-6.89 14.79 14.79 0 0 0-2.56-5.32 12.1 12.1 0 0 0-.95-1.07l-9.95-10a11.45 11.45 0 0 0-3.51-2.38 15.66 15.66 0 0 0-6.34-1.19h-.78v-4l-10-10h-8.54v3.28L275.86 13a33.86 33.86 0 0 0-7.21 6.34 37.2 37.2 0 0 0-5.11 7.66 39.12 39.12 0 0 0-3.08 8.43 37.31 37.31 0 0 0-.79 4.38l-7-7h-9.45L239 46.9l-1.18-4.07-10-10h-7.49l-4.11 14.24-1.29-4.24-10-10h-9.52l12.11 34.72 10 10h9.94l3.44-9.86 9.86 9.86h9.94l9.29-26.79c.13.79.27 1.58.45 2.38a38.48 38.48 0 0 0 3 8.61 36.59 36.59 0 0 0 5 7.7c.51.61 1 1.19 1.6 1.76l9.95 10a33.62 33.62 0 0 0 5.59 4.59l4.62-6.23-5.62-5.57q-6.34-8.13-6.35-19.73a34 34 0 0 1 3-14.1 29.88 29.88 0 0 1 3.3-5.59v32.83l10 10H303V59.82a10.52 10.52 0 0 1 .63-3.67 9.51 9.51 0 0 1 1.75-3 8.08 8.08 0 0 1 2.7-2 8 8 0 0 1 1.3-.45v16.71l10 10H328v-2l10 10.06a34.73 34.73 0 0 0 7.11-6.3 36 36 0 0 0 5-7.7 38.48 38.48 0 0 0 3-8.61v-.14c.16.17.31.36.48.52l10 10a16.85 16.85 0 0 0 6.03 3.76 22.25 22.25 0 0 0 8 1.33 24.46 24.46 0 0 0 4-.35 22.08 22.08 0 0 0 4-1 21.4 21.4 0 0 0 3.68-1.75 16.82 16.82 0 0 0 3.15-2.45l-9.52-9.52h8.27v4.21l10 10h8.54V59.21a10.47 10.47 0 0 1 .7-4.06 7 7 0 0 1 1.92-2.73 7.57 7.57 0 0 1 2.77-1.51 11.39 11.39 0 0 1 3.22-.45 9.24 9.24 0 0 1 3.46.56 10.16 10.16 0 0 1 2.7 1.68l3.85-7.42z"/></g><g id="Shadows" class="cls-2"><path d="M17.44 77.41l-10-10h36.68l10 10H17.44z"/><path d="M26.61 57.32l-10-10h26.53l8.52 10H26.61z"/><path d="M26.61 37.37l-10-10h27.51l10 10H26.61z"/><path d="M61.66 77.41l-10-10h8.54l10 10h-8.54z"/><path d="M84.62 77.41l-10-10h8.54l10 10h-8.54z"/><path d="M107.16 77.41l-10-10h8.54l10.18 10.18-8.72-.18z"/><path d="M123.04 93.23l-10-10h8.54l10 10h-8.54z"/><path d="M133.89 75.7a13 13 0 0 0 3 1.5 17.13 17.13 0 0 0 3.19.8 19.17 19.17 0 0 0 3 .25 18.57 18.57 0 0 0 7.38-1.4 15.86 15.86 0 0 0 5.5-3.85 16.65 16.65 0 0 0 2-2.66l-10-10-26.46 3.14 10.08 10.12 1 1a8.63 8.63 0 0 0 1.31 1.1z"/><path d="M170.29 72.93a16.39 16.39 0 0 0 5.63 3.85 20.92 20.92 0 0 0 15.05 0 16.17 16.17 0 0 0 7.55-6.24l-10.2-10.2-28 2.59z"/><path d="M227.41 77.55l-10-10h-9.94l10 10h9.94z"/><path d="M240.71 77.55l-10-10h9.94l10 10h-9.94z"/><g><path d="M284.58 74l5.55 5.54-5.56-5.54z"/><path d="M284.57 74l-4.44-4.44-10.44 1.39.28.3 9.95 10a33.62 33.62 0 0 0 5.59 4.59l4.62-6.23-5.55-5.61z"/></g><path d="M294.5 77.41l-10-10h8.54l10 10h-8.54z"/><path d="M319.42 77.41l-10-10h8.54l10 10h-8.54z"/><g><path d="M328.04 75.47l10 10-9.98-10.02-.02.02z"/><path d="M345.15 79.17a36.77 36.77 0 0 0 4.68-7l-9.64-10.69-12.13 14 10 10a34.73 34.73 0 0 0 7.09-6.31z"/></g><g><path d="M382.92 63.2l9.52 9.52-9.52-9.52z"/><path d="M382.92 63.2l-.48-.48-28.77.52 10 10a16.85 16.85 0 0 0 5.95 3.76 22.25 22.25 0 0 0 8 1.33 24.46 24.46 0 0 0 4-.35 22.08 22.08 0 0 0 4-1 21.4 21.4 0 0 0 3.68-1.75 16.82 16.82 0 0 0 3.15-2.45l-9.52-9.52z"/></g><path d="M401.19 77.41l-10-10h8.54l10 10h-8.54z"/><path d="M382.92 63.2h8.27l.72-2.49-7.51-7.51-11.35-16.82-17.32 3.67 1.72 13.15 10.63 10.63 14.84-.63z"/><path d="M308.12 51.12a8 8 0 0 1 1.3-.45v1.48l2.43-.6-2.43-10.67-6.42-4.5-9.27 3.67 1.65 3.1 10 10a8.08 8.08 0 0 1 2.74-2.03z"/><path d="M408.07 36.38l-5.72 6 10 10a7.57 7.57 0 0 1 2.77-1.51 11.39 11.39 0 0 1 3.22-.45 9.24 9.24 0 0 1 3.46.56 10.16 10.16 0 0 1 2.7 1.68l-10-10z"/><path d="M280.13 18.77l9.19 9.19-3.15 3.16-9.32-9.32-.95-3.39 4.23.36z"/><path d="M217.41 67.55l10 10 3.44-9.86-6.79-21.91-6.65 21.77z"/><path d="M180.69 37.51h-14.5l1.66 4.3 10 10a9.57 9.57 0 0 1 1.54-1 8.66 8.66 0 0 1 3.43-.84v.19a12.35 12.35 0 0 1-.12 1.62h3z"/><path d="M139.57 37.51h-14.5l1.65 4.3 10 10a10 10 0 0 1 1.26-.65 10.29 10.29 0 0 1 3.92-.76 10.86 10.86 0 0 1-.13 1.41h2.76z"/><path d="M97.16 51.81h7.28l-5-14.3h-14.5l1.66 4.3 9.93 9.93c.21-.14.41-.3.63-.43z"/><g><path d="M74.62 50.87l-.18.08a6.74 6.74 0 0 0-1.29.86h1.47z"/><path d="M74.62 50.87v.94h6.32l-5-14.3h-14.5l1.66 4.3 10 10h.05a6.74 6.74 0 0 1 1.29-.81z"/></g></g><g id="Face"><path class="cls-3" d="M44.12 67.41H7.44v-49h36.68v9H16.61v11.23h26.53v8.68H16.61v11h27.51z"/><path class="cls-3" d="M74.62 67.41V48.93a11.88 11.88 0 0 0-.45-3.26 9.41 9.41 0 0 0-1.33-2.8A6.39 6.39 0 0 0 70.63 41a6.45 6.45 0 0 0-3.08-.7 6.69 6.69 0 0 0-3.11.7 6.91 6.91 0 0 0-2.31 1.92 9 9 0 0 0-1.44 2.8 11.19 11.19 0 0 0-.49 3.26v18.43h-8.54V32.83h7.91L60.2 37a7.68 7.68 0 0 1 1.8-2.21 9.25 9.25 0 0 1 2.28-1.47 10.71 10.71 0 0 1 2.52-.8 13.12 13.12 0 0 1 2.55-.25 12.92 12.92 0 0 1 6 1.43 9.31 9.31 0 0 1 4.27 5 12.32 12.32 0 0 1 5.25-5 15.51 15.51 0 0 1 6.3-1.29q7.43 0 11 4.27t3.6 12.11v18.62h-8.61V48.79a13.59 13.59 0 0 0-.38-3.22 8.58 8.58 0 0 0-1.16-2.7 5.7 5.7 0 0 0-2-1.82 6.22 6.22 0 0 0-3-.66 6.69 6.69 0 0 0-3.11.7A7.59 7.59 0 0 0 85.19 43a8.06 8.06 0 0 0-1.5 2.72 10.31 10.31 0 0 0-.53 3.26v18.43z"/><path class="cls-3" d="M113 83.23V32.9h8l.56 4.76a11.63 11.63 0 0 1 5.14-4.24 15.81 15.81 0 0 1 6.06-1.29 18.19 18.19 0 0 1 7.24 1.4 17.21 17.21 0 0 1 5.6 3.81 16.52 16.52 0 0 1 3.61 5.74 19.92 19.92 0 0 1 1.26 7.11 21.18 21.18 0 0 1-1.16 7.07 16.54 16.54 0 0 1-3.37 5.74 15.86 15.86 0 0 1-5.5 3.85 18.57 18.57 0 0 1-7.38 1.4 19.17 19.17 0 0 1-3-.25 17.13 17.13 0 0 1-3.19-.8 13 13 0 0 1-3-1.5 8.08 8.08 0 0 1-2.31-2.35v19.88zM132.15 60a10.24 10.24 0 0 0 4-.77 9.28 9.28 0 0 0 3.11-2.1 9.18 9.18 0 0 0 2-3.12 10.44 10.44 0 0 0 .7-3.81 11 11 0 0 0-.67-3.82 9.13 9.13 0 0 0-1.92-3.11 9 9 0 0 0-3.08-2.1 11.46 11.46 0 0 0-8.26 0 8.87 8.87 0 0 0-3.08 2.1 9.31 9.31 0 0 0-1.95 3.1 11 11 0 0 0-.66 3.82 10.24 10.24 0 0 0 .7 3.81 9.15 9.15 0 0 0 2 3.12 9.33 9.33 0 0 0 3.12 2.1 10.17 10.17 0 0 0 3.99.78z"/><path class="cls-3" d="M173.38 32.2a18.71 18.71 0 0 1 7.45 1.43 17.68 17.68 0 0 1 5.71 3.89 16.79 16.79 0 0 1 3.64 5.71 19.11 19.11 0 0 1 1.26 7 19.82 19.82 0 0 1-1.23 7 16.41 16.41 0 0 1-9.21 9.55 20.92 20.92 0 0 1-15.05 0 16.39 16.39 0 0 1-5.63-3.85 16.89 16.89 0 0 1-3.54-5.74 19.82 19.82 0 0 1-1.22-7 19.11 19.11 0 0 1 1.26-7 17.24 17.24 0 0 1 3.57-5.71 16.89 16.89 0 0 1 5.6-3.89 18.46 18.46 0 0 1 7.39-1.39zm.07 7.77a8.72 8.72 0 0 0-7 3.19 9.73 9.73 0 0 0-1.79 3.25 12.4 12.4 0 0 0 0 7.56 10.35 10.35 0 0 0 1.75 3.26 8.24 8.24 0 0 0 2.94 2.27 10.4 10.4 0 0 0 8.19 0 8.24 8.24 0 0 0 2.94-2.27 10.16 10.16 0 0 0 1.75-3.23 12 12 0 0 0 .6-3.78 11 11 0 0 0-.67-3.78 10.35 10.35 0 0 0-1.89-3.25 9.54 9.54 0 0 0-2.94-2.32 8.46 8.46 0 0 0-3.88-.87z"/><path class="cls-3" d="M227.77 32.83l7.56 26 7.91-26h9.45l-12 34.72h-9.94l-3.57-10.22-3.08-11.55-3.1 11.55-3.57 10.22h-9.94l-12.13-34.72h9.52l7.91 26 7.49-26z"/><path class="cls-4" d="M280.13 18.77a30.35 30.35 0 0 0-8.93 11.38 34 34 0 0 0-3 14.1q0 15.89 11.9 25.27l-4.62 6.23a32.92 32.92 0 0 1-7.14-6.3 36.59 36.59 0 0 1-5-7.7 38.48 38.48 0 0 1-3-8.61 41.1 41.1 0 0 1-1-8.89 37.58 37.58 0 0 1 1-8.79 39.12 39.12 0 0 1 3.2-8.46 37.2 37.2 0 0 1 5.11-7.66 33.86 33.86 0 0 1 7.21-6.34z"/><path class="cls-3" d="M293 18.41v19.18a12.11 12.11 0 0 1 5.08-4.1 16.53 16.53 0 0 1 12 .11 11.37 11.37 0 0 1 4.49 3.4 14.92 14.92 0 0 1 2.55 5.33 26.38 26.38 0 0 1 .84 6.89v18.2h-8.54V49.33q0-4.76-2.2-6.85a7.88 7.88 0 0 0-5.64-2.09 8 8 0 0 0-6.16 2.76 9.51 9.51 0 0 0-1.75 3 10.52 10.52 0 0 0-.63 3.67v17.59h-8.54v-49z"/><path class="cls-4" d="M327.69 12.75a36 36 0 0 1 7.18 6.33 37.28 37.28 0 0 1 5.13 7.67 39.55 39.55 0 0 1 3.08 8.44 37.44 37.44 0 0 1 1.06 8.81 41.74 41.74 0 0 1-1 8.89 38.48 38.48 0 0 1-3 8.61 36 36 0 0 1-5 7.7 34.73 34.73 0 0 1-7.11 6.3l-4.48-6.37q11.77-9.27 11.77-25.13a34 34 0 0 0-3-14.1 30.38 30.38 0 0 0-8.93-11.38z"/><path class="cls-3" d="M384.4 53.2h-26.95a7.73 7.73 0 0 0 3.08 5.29 11.49 11.49 0 0 0 7.21 2.06 15.47 15.47 0 0 0 2.48-.21 16.49 16.49 0 0 0 2.56-.63 14.6 14.6 0 0 0 2.34-1 8.62 8.62 0 0 0 1.88-1.38l5.46 5.39a16.82 16.82 0 0 1-3.15 2.45 21.4 21.4 0 0 1-3.68 1.75 22.08 22.08 0 0 1-4 1 24.46 24.46 0 0 1-4 .35 22.25 22.25 0 0 1-8-1.33 16.73 16.73 0 0 1-5.95-3.75 16 16 0 0 1-3.75-5.8 21.1 21.1 0 0 1-1.29-7.53 19.91 19.91 0 0 1 1.29-7.25 16.78 16.78 0 0 1 3.68-5.74 16.5 16.5 0 0 1 5.77-3.74 20.62 20.62 0 0 1 7.6-1.33 21.32 21.32 0 0 1 7.77 1.33 14.31 14.31 0 0 1 5.74 4 16.62 16.62 0 0 1 3.36 6.69 27.14 27.14 0 0 1 .55 9.38zm-26.81-7.07h18.62a6.92 6.92 0 0 0-2.84-5.13 10.41 10.41 0 0 0-6.12-1.7 10.84 10.84 0 0 0-6.09 1.7 8.68 8.68 0 0 0-3.57 5.13z"/><path class="cls-3" d="M399.1 32.9l.63 4a9.93 9.93 0 0 1 2.13-2.56 9.41 9.41 0 0 1 2.42-1.46 10.33 10.33 0 0 1 2.55-.71 20.87 20.87 0 0 1 2.63-.17 13.59 13.59 0 0 1 5.07.95 11.1 11.1 0 0 1 3.82 2.34l-3.85 7.41a10.16 10.16 0 0 0-2.7-1.7 9.24 9.24 0 0 0-3.46-.56 11.39 11.39 0 0 0-3.22.45 7.57 7.57 0 0 0-2.77 1.51 7 7 0 0 0-1.92 2.73 10.47 10.47 0 0 0-.7 4.06v18.2h-8.54V32.9z"/></g><g id="The"><path class="cls-3" d="M61 4.88h-5.52v-3h14.4v3h-5.55v14.5H61z"/><path class="cls-3" d="M76.69 1.88v6.85a4.38 4.38 0 0 1 1.82-1.46 5.43 5.43 0 0 1 2-.39 5.67 5.67 0 0 1 2.27.43 4 4 0 0 1 1.57 1.21 5.33 5.33 0 0 1 .91 1.9 9.42 9.42 0 0 1 .3 2.46v6.5h-3v-6.45a3.29 3.29 0 0 0-.78-2.45 2.82 2.82 0 0 0-2-.75 2.94 2.94 0 0 0-2.2 1 3.53 3.53 0 0 0-.62 1.07 3.8 3.8 0 0 0-.23 1.31v6.28h-3V1.88z"/><path class="cls-3" d="M102.47 14.31h-9.62A2.74 2.74 0 0 0 94 16.2a4.09 4.09 0 0 0 2.57.73 5.51 5.51 0 0 0 .89-.07 5.78 5.78 0 0 0 .91-.23 5.31 5.31 0 0 0 .84-.36 2.58 2.58 0 0 0 .66-.49l2 1.93a6 6 0 0 1-1.12.87 8.29 8.29 0 0 1-1.31.63 7.7 7.7 0 0 1-1.43.37 8.47 8.47 0 0 1-4.29-.35 6 6 0 0 1-2.22-1.33 5.74 5.74 0 0 1-1.34-2.08 7.45 7.45 0 0 1-.46-2.69 7 7 0 0 1 .46-2.58 6.05 6.05 0 0 1 1.31-2.05 5.88 5.88 0 0 1 2.07-1.34 7.27 7.27 0 0 1 2.71-.48 7.52 7.52 0 0 1 2.75.48 5.09 5.09 0 0 1 2 1.44 5.88 5.88 0 0 1 1.2 2.38 9.58 9.58 0 0 1 .27 3.33zm-9.57-2.53h6.65a2.48 2.48 0 0 0-1-1.81 3.7 3.7 0 0 0-2.19-.61 3.84 3.84 0 0 0-2.18.61 3.11 3.11 0 0 0-1.28 1.81z"/></g><g id="Podcast_Network" data-name="Podcast Network"><path class="cls-3" d="M147.29 102.08v6h-3.82V87.75h9.57a8.28 8.28 0 0 1 3.26.61 7 7 0 0 1 2.35 1.64 6.91 6.91 0 0 1 1.4 2.3 7.54 7.54 0 0 1 0 5.24 6.78 6.78 0 0 1-1.39 2.3 7 7 0 0 1-2.33 1.63 8.35 8.35 0 0 1-3.29.66zm0-3.51H153a3.61 3.61 0 0 0 2-.54 3.49 3.49 0 0 0 1.21-1.33 3.77 3.77 0 0 0 .41-1.73 3.73 3.73 0 0 0-.41-1.72 3.51 3.51 0 0 0-1.21-1.34 3.69 3.69 0 0 0-2-.53h-5.75z"/><path class="cls-3" d="M171.43 93.46a7.67 7.67 0 0 1 3.09.6 7.07 7.07 0 0 1 3.87 4 7.89 7.89 0 0 1 .52 2.89 8.23 8.23 0 0 1-.5 2.9 6.88 6.88 0 0 1-1.48 2.38 7.07 7.07 0 0 1-2.35 1.59 8.68 8.68 0 0 1-6.24 0 7 7 0 0 1-2.34-1.62 6.83 6.83 0 0 1-1.46-2.38 8.23 8.23 0 0 1-.51-2.9 7.89 7.89 0 0 1 .52-2.89 7.2 7.2 0 0 1 1.45-2.36 6.85 6.85 0 0 1 2.32-1.61 7.54 7.54 0 0 1 3.11-.6zm0 3.22a3.59 3.59 0 0 0-1.68.37 3.82 3.82 0 0 0-1.22 1 4.23 4.23 0 0 0-.74 1.35 5.15 5.15 0 0 0-.24 1.57 5.09 5.09 0 0 0 .24 1.56 4.19 4.19 0 0 0 .73 1.35 3.28 3.28 0 0 0 1.22.94 3.78 3.78 0 0 0 1.69.35 3.83 3.83 0 0 0 1.7-.35 3.36 3.36 0 0 0 1.22-.94 4 4 0 0 0 .72-1.35 4.81 4.81 0 0 0 .25-1.56 4.4 4.4 0 0 0-.28-1.57 4.33 4.33 0 0 0-.78-1.35 4.06 4.06 0 0 0-1.22-1 3.38 3.38 0 0 0-1.58-.37z"/><path class="cls-3" d="M198.52 87.78v20.27h-3.3l-.23-2a4.46 4.46 0 0 1-2.08 1.8 6.7 6.7 0 0 1-2.53.49 8.18 8.18 0 0 1-2.92-.51 6.45 6.45 0 0 1-2.33-1.46 6.81 6.81 0 0 1-1.56-2.35 8.48 8.48 0 0 1-.56-3.16 8.75 8.75 0 0 1 .55-3.25 6.46 6.46 0 0 1 1.52-2.33 6.38 6.38 0 0 1 2.31-1.43 8.73 8.73 0 0 1 2.9-.47 6 6 0 0 1 1.25.14 6.37 6.37 0 0 1 1.34.44 5.76 5.76 0 0 1 1.22.72 3.46 3.46 0 0 1 .89 1v-7.9zm-7.91 8.93A4.35 4.35 0 0 0 189 97a3.63 3.63 0 0 0-1.29.83 3.67 3.67 0 0 0-.87 1.31 4.41 4.41 0 0 0-.32 1.73 4.34 4.34 0 0 0 .32 1.71 3.94 3.94 0 0 0 .87 1.33 3.82 3.82 0 0 0 1.29.85 4.15 4.15 0 0 0 1.58.3 4.43 4.43 0 0 0 1.59-.28 4.13 4.13 0 0 0 1.32-.84 4 4 0 0 0 .9-1.33 4.42 4.42 0 0 0 .33-1.74 4.25 4.25 0 0 0-.33-1.69 3.92 3.92 0 0 0-.9-1.31 4 4 0 0 0-1.29-.87 4.06 4.06 0 0 0-1.59-.29z"/><path class="cls-3" d="M216.56 106.21A7.82 7.82 0 0 1 214 108a8 8 0 0 1-2.93.53 9.17 9.17 0 0 1-3-.47 6.52 6.52 0 0 1-4-3.77 9.42 9.42 0 0 1 0-6.67 6.71 6.71 0 0 1 1.64-2.36 6.57 6.57 0 0 1 2.4-1.41 9.16 9.16 0 0 1 3-.46 7.66 7.66 0 0 1 2.75.47 7.39 7.39 0 0 1 2.41 1.63l-2.27 2.3a4.41 4.41 0 0 0-1.38-.86 4.33 4.33 0 0 0-1.5-.28 4.44 4.44 0 0 0-1.65.31 3.63 3.63 0 0 0-1.3.87 4 4 0 0 0-.86 1.35 4.73 4.73 0 0 0-.3 1.71 4.62 4.62 0 0 0 .32 1.8 3.52 3.52 0 0 0 .88 1.3 3.93 3.93 0 0 0 1.29.8 4.46 4.46 0 0 0 1.57.27 5.17 5.17 0 0 0 1.65-.26 3.71 3.71 0 0 0 1.48-.92z"/><path class="cls-3" d="M231.7 95.73l.12-2h3.39v14.3h-3.33l-.18-2.03a3.57 3.57 0 0 1-.85 1.11 5.89 5.89 0 0 1-1.18.78 6.13 6.13 0 0 1-1.32.48 6 6 0 0 1-1.29.16 8.72 8.72 0 0 1-2.94-.48 6.39 6.39 0 0 1-2.34-1.44 6.56 6.56 0 0 1-1.53-2.38 9 9 0 0 1-.55-3.3 8.4 8.4 0 0 1 .58-3.26 6.54 6.54 0 0 1 1.58-2.35 6.33 6.33 0 0 1 2.36-1.41 9 9 0 0 1 2.93-.46 5.89 5.89 0 0 1 2.7.62 4.2 4.2 0 0 1 1.85 1.66zm-4.23.84a4.55 4.55 0 0 0-1.65.29 3.59 3.59 0 0 0-1.35.84 3.94 3.94 0 0 0-.9 1.36 5.24 5.24 0 0 0 0 3.66 4 4 0 0 0 .9 1.37 3.51 3.51 0 0 0 1.35.86 4.77 4.77 0 0 0 1.65.29 3.9 3.9 0 0 0 3.71-2.25 4.86 4.86 0 0 0 0-4.17 4.08 4.08 0 0 0-1.39-1.62 4 4 0 0 0-2.32-.63z"/><path class="cls-3" d="M250 97.55a4.3 4.3 0 0 0-1.64-1 6.46 6.46 0 0 0-1.9-.27 4 4 0 0 0-1.94.37 1.16 1.16 0 0 0-.67 1q0 1.39 2.67 1.56a20.28 20.28 0 0 1 2.1.25 6.21 6.21 0 0 1 2 .68 4.28 4.28 0 0 1 1.47 1.37 4.53 4.53 0 0 1 .18 4.08 4.34 4.34 0 0 1-1.16 1.5 5.7 5.7 0 0 1-1.91 1 8.64 8.64 0 0 1-2.68.37 16.25 16.25 0 0 1-1.7-.08 7.54 7.54 0 0 1-1.68-.37 7.41 7.41 0 0 1-1.64-.78 8.56 8.56 0 0 1-1.59-1.32l1.74-2.52A5.77 5.77 0 0 0 244 105a8.87 8.87 0 0 0 2.56.47 3.6 3.6 0 0 0 1.79-.37 1.27 1.27 0 0 0 .79-1.18 1.28 1.28 0 0 0-.65-1.15 5 5 0 0 0-2.19-.49 15 15 0 0 1-2.06-.33 6.81 6.81 0 0 1-1.9-.76 4.24 4.24 0 0 1-1.41-1.32 3.49 3.49 0 0 1-.55-2 3.63 3.63 0 0 1 .58-2.1 4.58 4.58 0 0 1 1.46-1.38 6.93 6.93 0 0 1 1.95-.75 9.74 9.74 0 0 1 2-.23 10.59 10.59 0 0 1 3 .39 6.88 6.88 0 0 1 2.57 1.49z"/><path class="cls-3" d="M262.37 89.72v4.06h3.95v3h-4V103a2.07 2.07 0 0 0 .51 1.52 1.82 1.82 0 0 0 1.35.51 3.36 3.36 0 0 0 .86-.12 4.13 4.13 0 0 0 .85-.32l1 3a7.62 7.62 0 0 1-1.44.45 10.8 10.8 0 0 1-1.49.16 5 5 0 0 1-3.74-1.22 5.24 5.24 0 0 1-1.4-4v-6.15h-2.66v-3h2.66V90.1z"/><path class="cls-3" d="M295 101.41V87.75h3.83v20.3h-3.11L284.9 94.54v13.51h-3.82v-20.3h3.1z"/><path class="cls-3" d="M319 102.16h-11.12a3.2 3.2 0 0 0 1.27 2.19 4.79 4.79 0 0 0 3 .86 6.24 6.24 0 0 0 1-.09 6.56 6.56 0 0 0 1.06-.26 5.67 5.67 0 0 0 1-.42 3.25 3.25 0 0 0 .77-.56l2.26 2.23a6.85 6.85 0 0 1-1.3 1 8.59 8.59 0 0 1-1.53.73 9.09 9.09 0 0 1-1.65.43 9.68 9.68 0 0 1-1.67.15 9.39 9.39 0 0 1-3.3-.55 7.16 7.16 0 0 1-2.47-1.55 6.8 6.8 0 0 1-1.55-2.41 8.66 8.66 0 0 1-.53-3.12 8.16 8.16 0 0 1 .53-3 7.08 7.08 0 0 1 1.52-2.38 6.81 6.81 0 0 1 2.4-1.55 8.45 8.45 0 0 1 3.14-.55 8.8 8.8 0 0 1 3.22.55 5.85 5.85 0 0 1 2.38 1.67 6.77 6.77 0 0 1 1.39 2.77 11 11 0 0 1 .18 3.86zm-11.1-2.92h7.71a2.88 2.88 0 0 0-1.17-2.11 4.33 4.33 0 0 0-2.54-.71 4.46 4.46 0 0 0-2.52.71 3.55 3.55 0 0 0-1.44 2.11z"/><path class="cls-3" d="M328.91 89.72v4.06h3.94v3h-4V103a2.07 2.07 0 0 0 .51 1.52 1.82 1.82 0 0 0 1.35.51 3.28 3.28 0 0 0 .85-.12 4.22 4.22 0 0 0 .86-.32l1 3a7.54 7.54 0 0 1-1.43.45 11.13 11.13 0 0 1-1.5.16 5 5 0 0 1-3.74-1.22 5.24 5.24 0 0 1-1.39-4v-6.15h-2.66v-3h2.67V90.1z"/><path class="cls-3" d="M350.11 93.73l3.13 10.75 3.28-10.75h3.91l-5 14.38h-4.11l-1.48-4.23-1.28-4.79-1.28 4.79-1.47 4.23h-4.11l-5-14.38h3.94l3.28 10.75L347 93.73z"/><path class="cls-3" d="M370.74 93.46a7.67 7.67 0 0 1 3.09.6 7.16 7.16 0 0 1 2.37 1.61 6.94 6.94 0 0 1 1.5 2.33 7.89 7.89 0 0 1 .53 2.89 8.23 8.23 0 0 1-.51 2.9 6.88 6.88 0 0 1-1.48 2.38 7.07 7.07 0 0 1-2.35 1.59 7.92 7.92 0 0 1-3.12.58 7.84 7.84 0 0 1-3.11-.58 6.68 6.68 0 0 1-3.8-4 8.23 8.23 0 0 1-.51-2.9 7.89 7.89 0 0 1 .52-2.89 7.2 7.2 0 0 1 1.48-2.36 6.85 6.85 0 0 1 2.32-1.61 7.54 7.54 0 0 1 3.07-.54zm0 3.22a3.61 3.61 0 0 0-1.68.37 3.82 3.82 0 0 0-1.22 1 4.23 4.23 0 0 0-.74 1.35 5.15 5.15 0 0 0-.24 1.57 5.09 5.09 0 0 0 .24 1.56 4.19 4.19 0 0 0 .73 1.35 3.28 3.28 0 0 0 1.22.94 4.28 4.28 0 0 0 3.39 0 3.36 3.36 0 0 0 1.22-.94 4 4 0 0 0 .72-1.35 4.81 4.81 0 0 0 .25-1.56 4.4 4.4 0 0 0-.28-1.57 4.33 4.33 0 0 0-.75-1.4 3.94 3.94 0 0 0-1.22-1 3.38 3.38 0 0 0-1.61-.32z"/><path class="cls-3" d="M386.41 93.75l.26 1.66a4 4 0 0 1 .89-1.06 3.89 3.89 0 0 1 1-.61 4.08 4.08 0 0 1 1.06-.29 7.73 7.73 0 0 1 1.08-.07 5.77 5.77 0 0 1 2.11.39 4.57 4.57 0 0 1 1.58 1l-1.6 3.07a4.48 4.48 0 0 0-1.11-.69 3.75 3.75 0 0 0-1.44-.23 4.5 4.5 0 0 0-1.33.19 3 3 0 0 0-1.15.62 3 3 0 0 0-.8 1.13 4.4 4.4 0 0 0-.29 1.68v7.54h-3.53V93.75z"/><path class="cls-3" d="M401.92 87.78V99.5l4.82-5.75H411V94l-5.83 6.52 6.64 7.31v.26h-4.26l-5.6-6.47v6.47h-3.53V87.78z"/></g></g></svg>