<svg xmlns="http://www.w3.org/2000/svg" viewBox="0 0 163.54 60.75"><defs><style>.cls-1{fill:#00aeef}.cls-2{fill:#fff}</style></defs><g id="Layer_2" data-name="Layer 2"><g id="Layer_1-2" data-name="Layer 1"><g id="Introducing"><path class="cls-1" d="M0 0a85.43 85.43 0 0 0 81.77 60.75A85.43 85.43 0 0 0 163.54 0z"/><g><path class="cls-2" d="M34.29 27.83V15.24h2v12.59z"/><path class="cls-2" d="M45.71 27.83v-4.74a2.68 2.68 0 0 0-.62-1.84 2.26 2.26 0 0 0-1.78-.7 2.37 2.37 0 0 0-1 .2 2.16 2.16 0 0 0-.78.58 2.6 2.6 0 0 0-.51.85 2.88 2.88 0 0 0-.18 1v4.63H39V19h1.69l.11 1.29a3.85 3.85 0 0 1 3-1.42 4 4 0 0 1 1.51.28 3.3 3.3 0 0 1 1.2.82 3.92 3.92 0 0 1 .81 1.33 5 5 0 0 1 .3 1.81v4.77z"/><path class="cls-2" d="M52.38 16.41V19H55v1.6h-2.6v4.21a1.64 1.64 0 0 0 .31 1.08 1.18 1.18 0 0 0 1 .37 2 2 0 0 0 .57-.08 2.72 2.72 0 0 0 .56-.22l.54 1.58a6.22 6.22 0 0 1-.89.3 4.19 4.19 0 0 1-.89.09 2.85 2.85 0 0 1-2.23-.75 3.18 3.18 0 0 1-.79-2.37V20.6h-1.7V19h1.7v-2.39z"/><path class="cls-2" d="M58.46 19l.12 1.17A2.32 2.32 0 0 1 59.77 19a3.88 3.88 0 0 1 1.42-.26 3.61 3.61 0 0 1 1.23.2 2.78 2.78 0 0 1 1 .55l-.84 1.62a2.66 2.66 0 0 0-.7-.41 2.42 2.42 0 0 0-.88-.1 2.71 2.71 0 0 0-.91.15 2.16 2.16 0 0 0-.76.45 2.1 2.1 0 0 0-.52.76 2.69 2.69 0 0 0-.2 1.07v4.8h-1.88V19z"/><path class="cls-2" d="M68.35 18.78a4.72 4.72 0 0 1 1.87.36 4.63 4.63 0 0 1 1.46 1 4.35 4.35 0 0 1 .94 1.47 5.26 5.26 0 0 1 0 3.64 4.29 4.29 0 0 1-.93 1.46 4.34 4.34 0 0 1-1.45 1 5.31 5.31 0 0 1-3.79 0 4.22 4.22 0 0 1-2.35-2.43 5.34 5.34 0 0 1 0-3.64 4.3 4.3 0 0 1 .9-1.52 4.58 4.58 0 0 1 1.45-1 4.76 4.76 0 0 1 1.9-.34zm0 1.73a2.71 2.71 0 0 0-1.13.23 2.62 2.62 0 0 0-.86.64 2.91 2.91 0 0 0-.53.92 3.16 3.16 0 0 0-.19 1.11 3.08 3.08 0 0 0 .19 1.11 2.71 2.71 0 0 0 .53.92 2.56 2.56 0 0 0 .86.62 2.71 2.71 0 0 0 1.13.22 2.78 2.78 0 0 0 1.15-.22 2.56 2.56 0 0 0 .86-.62 2.9 2.9 0 0 0 .54-.92 3.31 3.31 0 0 0 .18-1.11 3.16 3.16 0 0 0-.19-1.11 3.2 3.2 0 0 0-.56-.92 2.55 2.55 0 0 0-2-.87z"/><path class="cls-2" d="M83.76 15.26v12.57H82l-.11-1.4a3 3 0 0 1-1.36 1.21 4.28 4.28 0 0 1-1.71.37A5 5 0 0 1 77 27.7a3.87 3.87 0 0 1-1.43-.9 4.2 4.2 0 0 1-1-1.45 5.07 5.07 0 0 1-.35-2 5.37 5.37 0 0 1 .34-2 4.18 4.18 0 0 1 .94-1.45 4 4 0 0 1 1.5-.84 5.17 5.17 0 0 1 1.79-.29 4.09 4.09 0 0 1 1.74.39 3.47 3.47 0 0 1 .8.5 2.11 2.11 0 0 1 .57.69v-5.09zM79 20.49a3.07 3.07 0 0 0-1.1.2 2.52 2.52 0 0 0-.89.57 2.73 2.73 0 0 0-.6.9 3.28 3.28 0 0 0-.21 1.22 3.38 3.38 0 0 0 .21 1.21 2.93 2.93 0 0 0 .6.92 2.52 2.52 0 0 0 .89.57 2.87 2.87 0 0 0 1.1.2 2.82 2.82 0 0 0 1.09-.21 2.65 2.65 0 0 0 1.51-1.5 3.08 3.08 0 0 0 .23-1.19 3 3 0 0 0-.23-1.18 2.65 2.65 0 0 0-.61-.91 2.7 2.7 0 0 0-.9-.59 2.82 2.82 0 0 0-1.09-.21z"/><path class="cls-2" d="M87.88 19v4.7a2.73 2.73 0 0 0 .62 1.84 2.27 2.27 0 0 0 1.79.71 2.39 2.39 0 0 0 1-.21 2.16 2.16 0 0 0 .78-.58 2.5 2.5 0 0 0 .51-.85 3 3 0 0 0 .17-1V19h1.86v8.89h-1.68l-.1-1.32a4.12 4.12 0 0 1-1.39 1.1 3.89 3.89 0 0 1-1.67.34 3.72 3.72 0 0 1-1.5-.29 3.3 3.3 0 0 1-1.19-.82 3.94 3.94 0 0 1-.77-1.33 5.31 5.31 0 0 1-.28-1.8V19z"/><path class="cls-2" d="M104.53 26.68a4.9 4.9 0 0 1-1.53 1.06 5 5 0 0 1-1.79.32 5.41 5.41 0 0 1-1.81-.3 4.06 4.06 0 0 1-1.49-.88 4.11 4.11 0 0 1-1-1.45 5.73 5.73 0 0 1 0-4.05 4.11 4.11 0 0 1 1-1.45 4.27 4.27 0 0 1 1.44-.93 5.69 5.69 0 0 1 1.82-.29 4.71 4.71 0 0 1 1.7.3 4.61 4.61 0 0 1 1.5 1l-1.19 1.24a2.48 2.48 0 0 0-.94-.6 3.07 3.07 0 0 0-1-.19 3 3 0 0 0-1.12.21 2.62 2.62 0 0 0-.91.58 2.58 2.58 0 0 0-.6.91 3.54 3.54 0 0 0 0 2.43 2.7 2.7 0 0 0 .61.9 2.58 2.58 0 0 0 .9.54 3.24 3.24 0 0 0 1.09.18 3.3 3.3 0 0 0 1.12-.19 2.36 2.36 0 0 0 1-.63z"/><path class="cls-2" d="M105.79 16.36a1 1 0 0 1 .36-.86 1.25 1.25 0 0 1 1.58 0 1 1 0 0 1 .36.86 1 1 0 0 1-.36.86 1.22 1.22 0 0 1-1.58 0 1 1 0 0 1-.36-.86zm2.07 2.57v8.9H106v-8.9z"/><path class="cls-2" d="M117 27.83v-4.74a2.63 2.63 0 0 0-.62-1.84 2.22 2.22 0 0 0-1.77-.7 2.37 2.37 0 0 0-1 .2 2.28 2.28 0 0 0-.79.58 2.77 2.77 0 0 0-.5.85 2.88 2.88 0 0 0-.18 1v4.63h-1.85V19h1.69l.11 1.29a3.85 3.85 0 0 1 3-1.42 3.89 3.89 0 0 1 1.5.28 3.33 3.33 0 0 1 1.21.82 3.92 3.92 0 0 1 .81 1.33 5.29 5.29 0 0 1 .29 1.81v4.77z"/><path class="cls-2" d="M128.68 18.12l1.35 1L129 20.4a4.59 4.59 0 0 1 .81 1.29 4.1 4.1 0 0 1-.32 3.54 3.59 3.59 0 0 1-1.77 1.36 4.41 4.41 0 0 1 1.13.57 3.07 3.07 0 0 1 .72.72 2.54 2.54 0 0 1 .38.8 3.35 3.35 0 0 1 .11.81 3.08 3.08 0 0 1-.41 1.59 3.53 3.53 0 0 1-1.08 1.13 5.06 5.06 0 0 1-1.53.68 7.09 7.09 0 0 1-3.69 0 4.21 4.21 0 0 1-1.49-.77 3.38 3.38 0 0 1-.94-1.24 3.68 3.68 0 0 1-.28-1.65h1.85a1.7 1.7 0 0 0 .21.91 2.12 2.12 0 0 0 .63.67 3 3 0 0 0 .91.41 3.79 3.79 0 0 0 1.07.14 5.18 5.18 0 0 0 1-.1 3 3 0 0 0 .9-.34 2 2 0 0 0 .65-.56 1.32 1.32 0 0 0 .25-.81 1.61 1.61 0 0 0-.77-1.43 3.7 3.7 0 0 0-2-.49 6 6 0 0 1-2-.31 4.29 4.29 0 0 1-1.52-.87 3.63 3.63 0 0 1-1-1.39 4.71 4.71 0 0 1-.34-1.86 4.31 4.31 0 0 1 .41-1.95 4.06 4.06 0 0 1 1.11-1.44 4.75 4.75 0 0 1 1.53-.84 6 6 0 0 1 1.77-.28h.59a5.19 5.19 0 0 1 .65.11 4.44 4.44 0 0 1 .62.19 2.43 2.43 0 0 1 .53.28zm-3.36 2.3a3.62 3.62 0 0 0-1.1.17 2.93 2.93 0 0 0-.94.5 2.37 2.37 0 0 0-.65.84 2.84 2.84 0 0 0-.24 1.21 2.69 2.69 0 0 0 .23 1.17 2.38 2.38 0 0 0 .63.84 2.64 2.64 0 0 0 .93.52 3.58 3.58 0 0 0 1.14.18 3.33 3.33 0 0 0 1.14-.2 2.61 2.61 0 0 0 .91-.55 2.64 2.64 0 0 0 .61-.86A3 3 0 0 0 128 22a2.63 2.63 0 0 0-.63-.86 2.71 2.71 0 0 0-.92-.53 3.28 3.28 0 0 0-1.13-.19z"/></g></g></g></g></svg>