<svg xmlns="http://www.w3.org/2000/svg" class="st_r" data-zflow="-" data-prefix="st_r"><defs><linearGradient id="st_lg" x1="0%" y1="0%" x2="0%" y2="100%"><stop class="st_shadow1" offset="0" stop-opacity=".35"/><stop class="st_shadow2" offset="1" stop-opacity=".15"/></linearGradient></defs><symbol id="st_r__x21_" data-name="!" viewBox="0 0 35.88 76.9"><path class="st_sides" d="M35.88 44a4.84 4.84 0 0 0-1.7-4 6.32 6.32 0 0 0-1.87-1l2.55-2.49V1.39H26l-25 25v35.08h4.2S1.74 64.94 1.7 65a5.61 5.61 0 0 0 0 8 5.82 5.82 0 0 0 7.48 0l25-25a4.83 4.83 0 0 0 1.7-4z"/><g class="st_shadows" fill="url(#st_lg)"><g><path d="M26.7 48a4.08 4.08 0 0 1-.46-.47l-25 25a5.44 5.44 0 0 0 .46.47 5.82 5.82 0 0 0 7.48 0l25-25a5.82 5.82 0 0 1-7.48 0z"/><path d="M34.18 48a3.58 3.58 0 0 0 .61-.62 4.47 4.47 0 0 1-.61.62z"/><path d="M35.25 46.72a3.58 3.58 0 0 1-.25.42c.09-.14.17-.28.25-.42z"/></g><path d="M26.7 40a6 6 0 0 1 3.74-1.32 5.87 5.87 0 0 1 1.87.31l2.55-2.49H26l-25 25h4.2L26.67 40z"/></g><path class="st_face" d="M25 44a4.81 4.81 0 0 1 1.7-4 5.92 5.92 0 0 1 7.48 0 4.81 4.81 0 0 1 1.7 4 4.83 4.83 0 0 1-1.7 4 5.82 5.82 0 0 1-7.48 0 4.83 4.83 0 0 1-1.7-4zm9.86-42.61v35.08H26V1.39z"/></symbol><symbol id="st_r__x22_" data-name="&quot;" viewBox="0 0 48.66 76.9"><path class="st_sides" d="M48.66 1.32H40.1L35.62 5.8l1.55-4.48H28.6l-25 25-3.26 15.3h6.53l6.32-6.35-1.36 6.35h6.53l25-25z"/><g class="st_shadows" fill="url(#st_lg)"><path d="M.34 41.62l25-25h6.53l-25 25H.34z"/><path d="M11.83 41.62l25-25h6.53l-25 25h-6.53z"/></g><path class="st_face" d="M28.6 1.32h8.57l-5.3 15.3h-6.53zm11.5 0h8.56l-5.3 15.3h-6.53z"/></symbol><symbol id="st_r__x201C_" data-name="&quot;" viewBox="0 0 48.66 76.9"><path class="st_sides" d="M48.66 1.32H40.1L35.62 5.8l1.55-4.48H28.6l-25 25-3.26 15.3h6.53l6.32-6.35-1.36 6.35h6.53l25-25z"/><g class="st_shadows" fill="url(#st_lg)"><path d="M.34 41.62l25-25h6.53l-25 25H.34z"/><path d="M11.83 41.62l25-25h6.53l-25 25h-6.53z"/></g><path class="st_face" d="M28.6 1.32h8.57l-5.3 15.3h-6.53zm11.5 0h8.56l-5.3 15.3h-6.53z"/></symbol><symbol id="st_r__x201D_" data-name="&quot;" viewBox="0 0 48.66 76.9"><path class="st_sides" d="M48.66 1.32H40.1L35.62 5.8l1.55-4.48H28.6l-25 25-3.26 15.3h6.53l6.32-6.35-1.36 6.35h6.53l25-25z"/><g class="st_shadows" fill="url(#st_lg)"><path d="M.34 41.62l25-25h6.53l-25 25H.34z"/><path d="M11.83 41.62l25-25h6.53l-25 25h-6.53z"/></g><path class="st_face" d="M28.6 1.32h8.57l-5.3 15.3h-6.53zm11.5 0h8.56l-5.3 15.3h-6.53z"/></symbol><symbol id="st_r__x24_" data-name="$" viewBox="0 0 59.41 76.9"><path class="st_sides" d="M57.83 29.46a11.27 11.27 0 0 0-4.15-3.75 20.39 20.39 0 0 0-5.79-2l-.5-.09 10.29-10.26a14.92 14.92 0 0 0-2.36-3.46 13.63 13.63 0 0 0-3-2.39A15.82 15.82 0 0 0 49 6a29.67 29.67 0 0 0-3.7-.83V0h-7.61l-7.22 7.26a15.62 15.62 0 0 0-2.29 1.41 10.07 10.07 0 0 0-1 .85L5.35 31.36a11.23 11.23 0 0 0-2.23 2.87 10.45 10.45 0 0 0-1.19 5.08 11 11 0 0 0 1.43 6 10.41 10.41 0 0 0 3.82 3.57 17.4 17.4 0 0 0 3.57 1.43L.08 60.91a15.77 15.77 0 0 0 2.71 4.28 17 17 0 0 0 3.7 3.08 18.53 18.53 0 0 0 4.41 1.94 26.36 26.36 0 0 0 4.87.93v5.66h7.57l9.2-9.2s.44-.32.64-.49a11.75 11.75 0 0 0 1-.9L56 44.37a11.79 11.79 0 0 0 3.42-8.58 11.35 11.35 0 0 0-1.59-6.33z"/><g class="st_shadows" fill="url(#st_lg)"><path d="M15.77 76.8L37.7 54.87h7.57L23.34 76.8h-7.57z"/><path d="M32.83 48.28a18.53 18.53 0 0 1-4.41-1.94 17 17 0 0 1-3.7-3.08A15.77 15.77 0 0 1 22 39L10.73 50.26.08 60.91a15.77 15.77 0 0 0 2.71 4.28 17 17 0 0 0 3.7 3.08 18.53 18.53 0 0 0 4.41 1.94 26.36 26.36 0 0 0 4.87.93l21.92-21.93a26.1 26.1 0 0 1-4.86-.93z"/><path d="M30.87 38.6a11.38 11.38 0 0 0 2.83 2 16.53 16.53 0 0 0 7.22 1.71h.42l9-9a7.19 7.19 0 0 0-2.3-1.74 14 14 0 0 0-3.34-1.14 39.53 39.53 0 0 0-4-.66q-3.23-.35-6.24-.92a18 18 0 0 1-5.39-1.87 10.33 10.33 0 0 1-3.57-3.22L3.62 45.62a10.31 10.31 0 0 0 3.56 3.22 17 17 0 0 0 3.55 1.42L22 39l7-3a7.54 7.54 0 0 0 1.87 2.6z"/><path d="M49.56 14.55a11.89 11.89 0 0 0-2.41-1.43 16 16 0 0 0-2.89-.95 13.75 13.75 0 0 0-3.11-.36 20.8 20.8 0 0 0-3.57.3 11.26 11.26 0 0 0-3 1 5.65 5.65 0 0 0-2.08 1.73 4.36 4.36 0 0 0-.78 2.63 3.51 3.51 0 0 0 .81 2.41 5.4 5.4 0 0 0 2.17 1.46 16 16 0 0 0 3.1.84c1.16.2 2.37.38 3.64.54 1 .13 2.06.28 3.08.44l6.76-6.77a7 7 0 0 0-1.72-1.84z"/><path d="M44.47 23.11c1 .15 1.94.32 2.9.51l10.31-10.26-6.45 3z"/><path d="M55.11 45.18a15.31 15.31 0 0 1-4.53 2.6 18.85 18.85 0 0 1-5.31 1.13v6L23.34 76.8l9.2-9.2s.44-.32.64-.49a11.75 11.75 0 0 0 1-.9L56 44.37c-.29.28-.58.55-.89.81z"/></g><path class="st_face" d="M51.23 16.34a7 7 0 0 0-1.67-1.79 11.89 11.89 0 0 0-2.41-1.43 16 16 0 0 0-2.89-.95 13.75 13.75 0 0 0-3.11-.36 20.8 20.8 0 0 0-3.57.3 11.26 11.26 0 0 0-3 1 5.65 5.65 0 0 0-2.08 1.73 4.36 4.36 0 0 0-.78 2.63 3.51 3.51 0 0 0 .81 2.41 5.4 5.4 0 0 0 2.17 1.46 16 16 0 0 0 3.1.84c1.16.2 2.37.38 3.64.54q3.28.41 6.5 1a20.39 20.39 0 0 1 5.79 2 11.27 11.27 0 0 1 4.15 3.75 11.35 11.35 0 0 1 1.58 6.33 11.83 11.83 0 0 1-4.3 9.39 15.31 15.31 0 0 1-4.53 2.6 18.85 18.85 0 0 1-5.31 1.13v6h-7.63v-5.71a26.1 26.1 0 0 1-4.86-.93 18.53 18.53 0 0 1-4.41-1.94 17 17 0 0 1-3.7-3.08A15.77 15.77 0 0 1 22 39l7-3a7.54 7.54 0 0 0 1.82 2.6 11.38 11.38 0 0 0 2.83 2 16.53 16.53 0 0 0 7.22 1.71 20.18 20.18 0 0 0 3.87-.36 11.33 11.33 0 0 0 3.28-1.14 6.5 6.5 0 0 0 2.3-2 5.11 5.11 0 0 0 .86-3 3.74 3.74 0 0 0-.86-2.52 7.19 7.19 0 0 0-2.3-1.74 14 14 0 0 0-3.34-1.14 39.53 39.53 0 0 0-4-.66q-3.23-.35-6.24-.92a18 18 0 0 1-5.39-1.87 10.25 10.25 0 0 1-3.82-3.57 10.94 10.94 0 0 1-1.43-5.95 10.35 10.35 0 0 1 1.19-5.09 11.31 11.31 0 0 1 3.13-3.63 16.23 16.23 0 0 1 4.41-2.32 23.29 23.29 0 0 1 5.1-1.16V0h7.58v5.19A29.67 29.67 0 0 1 49 6a15.82 15.82 0 0 1 3.4 1.49 13.63 13.63 0 0 1 3 2.39 14.92 14.92 0 0 1 2.36 3.46z"/></symbol><symbol id="st_r__x25_" data-name="%" viewBox="0 0 73.01 76.9"><path class="st_sides" d="M71.78 33.58a10.44 10.44 0 0 0-3.7-3.94A11.14 11.14 0 0 0 61.92 28a10.66 10.66 0 0 0-8.34 3.41s-11.89 11.88-11.9 11.9L69.27 1.25h-9.59L46.74 14.19a11.51 11.51 0 0 0 .43-3.08A10.86 10.86 0 0 0 45.94 6a10.4 10.4 0 0 0-3.7-4A11.22 11.22 0 0 0 36.08.43 11.18 11.18 0 0 0 29.93 2a11.6 11.6 0 0 0-2.19 1.81L2.84 28.75A9.56 9.56 0 0 0 1.22 31a11.4 11.4 0 0 0 0 10.26 10.43 10.43 0 0 0 3.71 3.95 11.18 11.18 0 0 0 6.15 1.6 11.22 11.22 0 0 0 6.16-1.6 11.6 11.6 0 0 0 2.19-1.81l11.66-11.69L3.33 74H13l13.24-13.28a11.37 11.37 0 0 0-.4 3 11 11 0 0 0 1.22 5.13 10.43 10.43 0 0 0 3.71 4 11.2 11.2 0 0 0 6.15 1.59 11.22 11.22 0 0 0 6.16-1.59A11.58 11.58 0 0 0 45.27 71l24.9-24.9a9.65 9.65 0 0 0 1.61-2.23 11.33 11.33 0 0 0 0-10.27z"/><g class="st_shadows" fill="url(#st_lg)"><path d="M3.33 73.99l25-25h9.66l-25 25H3.33z"/><g><path d="M68.08 47.8a11.22 11.22 0 0 1-6.16 1.59 11.2 11.2 0 0 1-6.15-1.59 10.81 10.81 0 0 1-3.15-3l-25 25a10.81 10.81 0 0 0 3.15 3 11.2 11.2 0 0 0 6.15 1.59 11.22 11.22 0 0 0 6.16-1.59 11.58 11.58 0 0 0 2.19-1.8l24.9-24.9a11.91 11.91 0 0 1-2.09 1.7z"/><path d="M71.78 43.85a1.17 1.17 0 0 0 0-.11 1.17 1.17 0 0 1 0 .11z"/></g><path d="M65.19 35.69a3.9 3.9 0 0 0-3.27-1.39 4 4 0 0 0-3.29 1.39 4.71 4.71 0 0 0 0 6.12 3.22 3.22 0 0 0 .32.32l6.32-6.32z"/><g><path d="M43.79 19a11.92 11.92 0 0 1-1.55 1.22 11.22 11.22 0 0 1-6.16 1.6 11.18 11.18 0 0 1-6.15-1.6 10.83 10.83 0 0 1-3.17-3.07l-25 25.05a10.78 10.78 0 0 0 3.15 3A11.22 11.22 0 0 0 11 46.81a11.16 11.16 0 0 0 6.15-1.6 11.6 11.6 0 0 0 2.19-1.81z"/></g><path d="M39.31 8a3.93 3.93 0 0 0-3.23-1.35A4 4 0 0 0 32.79 8a4.71 4.71 0 0 0 0 6.12 3.55 3.55 0 0 0 .34.33l6.29-6.29z"/></g><path class="st_face" d="M36.08.43A11.22 11.22 0 0 1 42.24 2a10.4 10.4 0 0 1 3.7 4 10.86 10.86 0 0 1 1.23 5.13 10.86 10.86 0 0 1-1.23 5.13 10.4 10.4 0 0 1-3.7 4 11.22 11.22 0 0 1-6.16 1.6 11.18 11.18 0 0 1-6.15-1.6 10.5 10.5 0 0 1-3.71-4A11 11 0 0 1 25 11.11 11 11 0 0 1 26.22 6a10.5 10.5 0 0 1 3.71-4A11.18 11.18 0 0 1 36.08.43zm33.19.82L38 49h-9.67L59.68 1.25zM36.08 6.62A4 4 0 0 0 32.79 8a4.71 4.71 0 0 0 0 6.12 4 4 0 0 0 3.29 1.39 3.93 3.93 0 0 0 3.27-1.39 4.84 4.84 0 0 0 0-6.12 3.91 3.91 0 0 0-3.27-1.38zM61.92 28a11.14 11.14 0 0 1 6.16 1.6 10.44 10.44 0 0 1 3.7 3.94 11.33 11.33 0 0 1 0 10.27 10.4 10.4 0 0 1-3.7 3.95 11.22 11.22 0 0 1-6.16 1.59 11.2 11.2 0 0 1-6.15-1.59 10.43 10.43 0 0 1-3.71-3.95 11.42 11.42 0 0 1 0-10.27 10.47 10.47 0 0 1 3.71-3.94 11.12 11.12 0 0 1 6.15-1.6zm0 6.26a4 4 0 0 0-3.29 1.39 4.71 4.71 0 0 0 0 6.12 4 4 0 0 0 3.29 1.4 3.91 3.91 0 0 0 3.27-1.4 4.84 4.84 0 0 0 0-6.12 3.9 3.9 0 0 0-3.27-1.35z"/></symbol><symbol id="st_r__x26_" data-name="&amp;" viewBox="0 0 66.81 76.9"><path class="st_sides" d="M66.81 40.21a3.6 3.6 0 0 1-3.29-1.53 6.53 6.53 0 0 1-1-3.63V32l3.94-3.92V21H54.79l7.06-7a12.34 12.34 0 0 0-1.56-6.46 12.53 12.53 0 0 0-4-4.14 16.64 16.64 0 0 0-5.58-2.21 30.34 30.34 0 0 0-6.27-.62 25.81 25.81 0 0 0-6.44.82 18.21 18.21 0 0 0-5.8 2.55 13.86 13.86 0 0 0-2.38 2l-24.9 24.9a14.34 14.34 0 0 0-2 2.52 12.07 12.07 0 0 0-1.66 6.49 11.09 11.09 0 0 0 .4 2.92 12 12 0 0 0 1.22 2.83 10.11 10.11 0 0 0 2 2.38 7 7 0 0 0 1.72 1.1l-3.09 3.1a11.21 11.21 0 0 0-1.14 1.34 10.62 10.62 0 0 0-1.5 2.89 9.53 9.53 0 0 0-.51 3 15.76 15.76 0 0 0 1.5 7.31 12.29 12.29 0 0 0 4.08 4.63 17 17 0 0 0 6 2.45 36.26 36.26 0 0 0 7.31.71 21.33 21.33 0 0 0 3.81-.34 18 18 0 0 0 3.7-1.09 13.48 13.48 0 0 0 3.37-2c.28-.23.55-.48.81-.74l2-2a8.34 8.34 0 0 0 1.4 2.85A7.3 7.3 0 0 0 36.58 73a7.46 7.46 0 0 0 2.55.89 18.38 18.38 0 0 0 2.68.2l25-25z"/><g class="st_shadows" fill="url(#st_lg)"><path d="M55.12 46.06a13.48 13.48 0 0 1-3.37 2 18 18 0 0 1-3.7 1.09 21.33 21.33 0 0 1-3.81.34 36.26 36.26 0 0 1-7.31-.71 17 17 0 0 1-6-2.45A12 12 0 0 1 27.58 43l-25 25a12 12 0 0 0 3.33 3.36 17 17 0 0 0 6 2.45 36.26 36.26 0 0 0 7.31.71 21.33 21.33 0 0 0 3.81-.34 18 18 0 0 0 3.7-1.09 13.48 13.48 0 0 0 3.37-2c.28-.23.55-.48.81-.74l2-2 22.83-22.84a7.82 7.82 0 0 1-.62.55z"/><path d="M61.58 48a7.3 7.3 0 0 1-2.21-1.9 8.67 8.67 0 0 1-1.53-3.26 13 13 0 0 1-2.12 2.64L33 68.28l3.2 4.52.38.23a7.46 7.46 0 0 0 2.55.89 18.38 18.38 0 0 0 2.68.2l25-25a18.38 18.38 0 0 1-2.68-.2 7.46 7.46 0 0 1-2.55-.92z"/><path d="M66.47 28.11l-3.94 3.92v-3.92h3.94z"/><path d="M39.44 28.72a10.34 10.34 0 0 0-3 1.53 5.76 5.76 0 0 0-1.73 2 5 5 0 0 0-.55 2.21 5.91 5.91 0 0 0 .84 3.27 6.9 6.9 0 0 0 2.25 2.18 9.9 9.9 0 0 0 3.19 1.22l.48.07L54 28.11H43.69a13.19 13.19 0 0 0-4.25.61z"/><path d="M28.43 27.22l.61-.6h.11c.18-.15.34-.33.54-.48a9.89 9.89 0 0 1 3-1.59A7.39 7.39 0 0 1 29.85 23a11.14 11.14 0 0 1-1.31-1.45l-25 25A11.14 11.14 0 0 0 4.85 48a7 7 0 0 0 1.72 1.1l21.84-21.85z"/><path d="M46.34 21.04h8.45l7.06-7.01h-8.5l-7.01 7.01z"/><path d="M52.6 11.28a5.52 5.52 0 0 0-2-1.8 9.94 9.94 0 0 0-2.89-1 19.24 19.24 0 0 0-3.47-.3 13 13 0 0 0-4.42.64A8.77 8.77 0 0 0 37 10.46a5.72 5.72 0 0 0-1.53 2.18 6.47 6.47 0 0 0-.47 2.21 4.6 4.6 0 0 0 1 3 7.39 7.39 0 0 0 2.41 1.9 11 11 0 0 0 3 1 16.54 16.54 0 0 0 2.79.27h2.18l7-7a4.85 4.85 0 0 0-.78-2.74z"/></g><path class="st_face" d="M62.53 35.05a6.53 6.53 0 0 0 1 3.63 3.6 3.6 0 0 0 3.29 1.53v8.91a18.38 18.38 0 0 1-2.68-.2 7.46 7.46 0 0 1-2.56-.92 7.3 7.3 0 0 1-2.21-1.9 8.67 8.67 0 0 1-1.53-3.26 12.51 12.51 0 0 1-2.72 3.19 13.48 13.48 0 0 1-3.37 2 18 18 0 0 1-3.7 1.09 21.33 21.33 0 0 1-3.81.34 36.26 36.26 0 0 1-7.31-.71 17 17 0 0 1-6-2.45 12.29 12.29 0 0 1-4.08-4.63 15.76 15.76 0 0 1-1.5-7.31 9.53 9.53 0 0 1 .51-3 10.62 10.62 0 0 1 1.5-2.89 12 12 0 0 1 2.35-2.42 9.89 9.89 0 0 1 3-1.59A7.28 7.28 0 0 1 29.86 23a9.92 9.92 0 0 1-2-2.38 12 12 0 0 1-1.19-2.83 11.09 11.09 0 0 1-.4-2.92A12.07 12.07 0 0 1 28 8.36a14.24 14.24 0 0 1 4.2-4.42A18.21 18.21 0 0 1 38 1.39a25.81 25.81 0 0 1 6.44-.82 30.34 30.34 0 0 1 6.22.65 16.64 16.64 0 0 1 5.58 2.21 12.53 12.53 0 0 1 4 4.14A12.34 12.34 0 0 1 61.85 14h-8.5a4.85 4.85 0 0 0-.75-2.75 5.52 5.52 0 0 0-2-1.8 9.94 9.94 0 0 0-2.89-1 19.24 19.24 0 0 0-3.47-.3 13 13 0 0 0-4.42.64A8.77 8.77 0 0 0 37 10.46a5.72 5.72 0 0 0-1.53 2.18 6.47 6.47 0 0 0-.47 2.21 4.6 4.6 0 0 0 1 3 7.39 7.39 0 0 0 2.41 1.9 11 11 0 0 0 3 1 16.54 16.54 0 0 0 2.79.27h22.3v7.07h-3.97zm-18.84-6.94a13.19 13.19 0 0 0-4.25.61 10.34 10.34 0 0 0-3 1.53 5.76 5.76 0 0 0-1.73 2 5 5 0 0 0-.55 2.21 5.91 5.91 0 0 0 .84 3.27 6.9 6.9 0 0 0 2.25 2.18 9.9 9.9 0 0 0 3.19 1.22 17.85 17.85 0 0 0 3.64.38 15.69 15.69 0 0 0 2.92-.34A13.06 13.06 0 0 0 50.29 40a8.74 8.74 0 0 0 2.65-2A4.43 4.43 0 0 0 54 35v-6.89z"/></symbol><symbol id="st_r__x27_" data-name="'" viewBox="0 0 36.83 76.9"><path class="st_sides" d="M36.83 1.32h-8.57l-25 25L0 41.62h6.53l25-25 5.3-15.3z"/><g class="st_shadows" fill="url(#st_lg)"><path d="M0 41.62l25-25h6.53l-25 25H0z"/></g><path class="st_face" d="M28.26 1.32h8.57l-5.3 15.3H25z"/></symbol><symbol id="st_r__x2019_" data-name="'" viewBox="0 0 36.83 76.9"><path class="st_sides" d="M36.83 1.32h-8.57l-25 25L0 41.62h6.53l25-25 5.3-15.3z"/><g class="st_shadows" fill="url(#st_lg)"><path d="M0 41.62l25-25h6.53l-25 25H0z"/></g><path class="st_face" d="M28.26 1.32h8.57l-5.3 15.3H25z"/></symbol><symbol id="st_r__x2018_" data-name="'" viewBox="0 0 36.83 76.9"><path class="st_sides" d="M36.83 1.32h-8.57l-25 25L0 41.62h6.53l25-25 5.3-15.3z"/><g class="st_shadows" fill="url(#st_lg)"><path d="M0 41.62l25-25h6.53l-25 25H0z"/></g><path class="st_face" d="M28.26 1.32h8.57l-5.3 15.3H25z"/></symbol><symbol id="st_r__x28_" data-name="(" viewBox="0 0 40.39 76.9"><path class="st_sides" d="M30.1 27.42a29.45 29.45 0 0 1 2.57-12.19A25.4 25.4 0 0 1 36 9.79l4.4-4.39L36.7.43a29.88 29.88 0 0 0-4.88 4L9.66 26.6c-.5.5-1 1-1.44 1.56a32.59 32.59 0 0 0-4.42 6.63 34.29 34.29 0 0 0-2.67 7.29 32.66 32.66 0 0 0-.9 7.59 36.21 36.21 0 0 0 .84 7.69 33.81 33.81 0 0 0 2.58 7.44A31.91 31.91 0 0 0 8 71.46a28.72 28.72 0 0 0 6.18 5.44l22.21-22.24 4-5.39Q30.1 41.16 30.1 27.42z"/><g class="st_shadows" fill="url(#st_lg)"><path d="M2.4 61.83A31.58 31.58 0 0 0 8 71.46a28.72 28.72 0 0 0 6.18 5.44l.06-.06 22.15-22.18-11.75-15.07z"/></g><path class="st_face" d="M40.39 5.4a26.34 26.34 0 0 0-7.72 9.83 29.45 29.45 0 0 0-2.57 12.19q0 13.74 10.29 21.85l-4 5.39a29 29 0 0 1-6.17-5.45 31.91 31.91 0 0 1-4.32-6.66 33.81 33.81 0 0 1-2.58-7.44 36.14 36.14 0 0 1-.84-7.69 32.66 32.66 0 0 1 .9-7.59 34.29 34.29 0 0 1 2.67-7.29 33 33 0 0 1 4.41-6.63A29.94 29.94 0 0 1 36.7.43z"/></symbol><symbol id="st_r__x29_" data-name=")" viewBox="0 0 40.39 76.9"><path class="st_sides" d="M39.48 19.48a34 34 0 0 0-2.68-7.32 31.83 31.83 0 0 0-4.47-6.66A31 31 0 0 0 26.1 0L3.76 22.35l-3.71 5a26.47 26.47 0 0 1 7.75 9.86 29.55 29.55 0 0 1 2.58 12.25q0 10.08-5.45 17.07L.17 71.28l3.89 5.53a30.31 30.31 0 0 0 4.82-4s22.24-22.23 22.26-22.26q.75-.75 1.44-1.56A30.86 30.86 0 0 0 37 42.31a33.64 33.64 0 0 0 2.59-7.48 36.51 36.51 0 0 0 .85-7.72 33 33 0 0 0-.96-7.63z"/><g class="st_shadows" fill="url(#st_lg)"><path d="M22.4 5L.05 27.33a27 27 0 0 1 6.49 7.46l22.35-22.35A27 27 0 0 0 22.4 5z"/><path d="M4.06 76.81l22.35-22.35-3.89-5.53L.17 71.28l3.89 5.53z"/><g><path d="M34 47.13l-.06.08z"/><path d="M26.41 54.46L4.06 76.81a30.31 30.31 0 0 0 4.82-4s22.23-22.22 22.26-22.26a30.08 30.08 0 0 1-4.73 3.91z"/></g></g><path class="st_face" d="M26.1 0a31 31 0 0 1 6.23 5.5 31.83 31.83 0 0 1 4.47 6.66 34 34 0 0 1 2.68 7.32 33 33 0 0 1 .91 7.63 36.51 36.51 0 0 1-.85 7.72A33.64 33.64 0 0 1 37 42.31 30.86 30.86 0 0 1 32.58 49a30 30 0 0 1-6.17 5.47l-3.89-5.53q10.22-8 10.21-21.82a29.55 29.55 0 0 0-2.58-12.25A26.57 26.57 0 0 0 22.4 5z"/></symbol><symbol id="st_r__x2B_" data-name="+" viewBox="0 0 53.36 76.9"><path class="st_sides" d="M53.36 21.52H43.22V11.39H35L0 46.52v7.55h10v10.2h8.22l35.14-35.2v-7.55z"/><g class="st_shadows" fill="url(#st_lg)"><path d="M10 54.07l25-25H25l-25 25h10z"/><path d="M18.22 64.27l25-25H35l-25 25h8.22z"/><path d="M43.22 29.07v10.15l10.14-10.15H43.22z"/></g><path class="st_face" d="M35 21.52V11.39h8.22v10.13h10.14v7.55H43.22v10.2H35v-10.2H25v-7.55z"/></symbol><symbol id="st_r__x2C_" data-name="," viewBox="0 0 30.75 76.9"><path class="st_sides" d="M29.39 41.76a5.07 5.07 0 0 0-3-1.14 4.52 4.52 0 0 0-3 1 3.05 3.05 0 0 0-.6.59L.15 64.79a4 4 0 0 0-.87 2.67 3.11 3.11 0 0 0 .8 2.25 3.79 3.79 0 0 0 2.1 1.08L1 76.9h4.27L28 54.2c.7-2.18 1.24-3.85 1.63-5s.67-2 .84-2.59.25-.92.28-1.08a4.73 4.73 0 0 0 0-.56 3.84 3.84 0 0 0-1.36-3.21z"/><g class="st_shadows" fill="url(#st_lg)"><path d="M1.01 76.91l22.7-22.71h4.26L5.27 76.91H1.01z"/><path d="M22.78 47a2.66 2.66 0 0 1-.39-.54L-.31 69.17a2.66 2.66 0 0 0 .39.54 3.79 3.79 0 0 0 2.1 1.08l22.7-22.7a3.79 3.79 0 0 1-2.1-1.09z"/></g><path class="st_face" d="M30.75 44.94a4.73 4.73 0 0 1 0 .56c0 .16-.12.52-.28 1.08S30 48 29.6 49.17 28.67 52 28 54.2h-4.29l1.17-6.11a3.79 3.79 0 0 1-2.1-1.09 3.11 3.11 0 0 1-.8-2.25 3.72 3.72 0 0 1 1.36-3.15 4.52 4.52 0 0 1 3-1 5.07 5.07 0 0 1 3 1.14 3.84 3.84 0 0 1 1.41 3.2z"/></symbol><symbol id="st_r_x2D_" data-name="-" viewBox="0 0 50.76 76.9"><path class="st_sides" d="M50.76 25.46H25.67l-25 25v7.62h25.09l25-25v-7.62z"/><g class="st_shadows" fill="url(#st_lg)"><path d="M25.76 58.08l25-25H25.67l-25 25h25.09z"/></g><path class="st_face" d="M25.67 25.46h25.09v7.62H25.67z"/></symbol><symbol id="st_r_x3A_" viewBox="0 0 34.66 76.9"><g class="st_sides"><path d="M4.83 54.67a5.19 5.19 0 0 0 3.33-1.19l25-25a4.27 4.27 0 0 0 1.5-3.57 4.3 4.3 0 0 0-1.5-3.57 5.25 5.25 0 0 0-6.66 0l-25 25A4.3 4.3 0 0 0 0 49.91a4.27 4.27 0 0 0 1.5 3.57 5.15 5.15 0 0 0 3.33 1.19z"/><path d="M29.83 39.87a5.21 5.21 0 0 0-3.33 1.19l-25 25a5 5 0 0 0 0 7.14 5.15 5.15 0 0 0 3.33 1.19 5.19 5.19 0 0 0 3.33-1.19l25-25a4.27 4.27 0 0 0 1.5-3.57 4.3 4.3 0 0 0-1.5-3.57 5.25 5.25 0 0 0-3.33-1.19z"/></g><g class="st_shadows" fill="url(#st_lg)"><g><path d="M33.45 28.18a2.72 2.72 0 0 1-.29.3 2.72 2.72 0 0 0 .29-.3z"/><path d="M33.16 28.48a5.25 5.25 0 0 1-6.66 0 4 4 0 0 1-.76-.83l-25 25a3.55 3.55 0 0 0 .76.84 5.15 5.15 0 0 0 3.33 1.19 5.19 5.19 0 0 0 3.33-1.19s25-25 25-25.01z"/></g><g><path d="M33.45 47.9a2.72 2.72 0 0 1-.29.3 2.72 2.72 0 0 0 .29-.3z"/><path d="M33.16 48.2a5.25 5.25 0 0 1-6.66 0 4 4 0 0 1-.76-.83l-25 25a3.55 3.55 0 0 0 .76.84 5.15 5.15 0 0 0 3.33 1.19 5.19 5.19 0 0 0 3.33-1.2s25-24.99 25-25z"/></g></g><path class="st_face" d="M25 24.91a4.3 4.3 0 0 1 1.5-3.57 5.25 5.25 0 0 1 6.66 0 4.3 4.3 0 0 1 1.5 3.57 4.27 4.27 0 0 1-1.5 3.57 5.25 5.25 0 0 1-6.66 0 4.27 4.27 0 0 1-1.5-3.57zm0 19.72a4.3 4.3 0 0 1 1.5-3.57 5.25 5.25 0 0 1 6.66 0 4.3 4.3 0 0 1 1.5 3.57 4.27 4.27 0 0 1-1.5 3.57 5.25 5.25 0 0 1-6.66 0 4.27 4.27 0 0 1-1.5-3.57z"/></symbol><symbol id="st_r__x2B_" data-name="." viewBox="0 0 34.79 76.9"><path class="st_sides" d="M34.79 44.63A4.3 4.3 0 0 0 33.26 41a5.35 5.35 0 0 0-6.73 0c-.05 0-25 25-25 25a5.08 5.08 0 0 0 0 7.27 5.35 5.35 0 0 0 6.73 0c.05 0 25-25 25-25a4.31 4.31 0 0 0 1.53-3.64z"/><g class="st_shadows" fill="url(#st_lg)"><path d="M26.53 48.27a3.55 3.55 0 0 1-.87-1l-25 25a3.62 3.62 0 0 0 .88 1 5.35 5.35 0 0 0 6.73 0c.05 0 25-25 25-25a5.35 5.35 0 0 1-6.73 0z"/></g><path class="st_face" d="M25 44.63A4.3 4.3 0 0 1 26.53 41a5.35 5.35 0 0 1 6.73 0 4.3 4.3 0 0 1 1.53 3.63 4.31 4.31 0 0 1-1.53 3.64 5.35 5.35 0 0 1-6.73 0A4.31 4.31 0 0 1 25 44.63z"/></symbol><symbol id="st_r_0" data-name="0" viewBox="0 0 65.94 76.9"><path class="st_sides" d="M64.17 12.13a19.58 19.58 0 0 0-4.66-6.66 19.23 19.23 0 0 0-6.56-4 21.9 21.9 0 0 0-15 0 18.92 18.92 0 0 0-6.53 4l-25 25a19.91 19.91 0 0 0-4.62 6.66A22.92 22.92 0 0 0 0 46.45v7.34a22.92 22.92 0 0 0 1.77 9.32 20.36 20.36 0 0 0 4.62 6.69 18.72 18.72 0 0 0 6.53 4 22.05 22.05 0 0 0 15 0 19 19 0 0 0 6.56-4l25-25a20 20 0 0 0 4.66-6.69 22.92 22.92 0 0 0 1.77-9.32v-7.34a22.92 22.92 0 0 0-1.74-9.32z"/><g class="st_shadows" fill="url(#st_lg)"><g><path d="M59.51 44.8a17.21 17.21 0 0 0 1.26-1.3c-.4.5-.77.89-1.26 1.3z"/><path d="M45.47 50.14a22.15 22.15 0 0 1-7.55-1.32 18.72 18.72 0 0 1-6.53-4 17.53 17.53 0 0 1-1.73-1.91h-.05l-24.95 25a17.53 17.53 0 0 0 1.73 1.89 18.72 18.72 0 0 0 6.53 4 22.05 22.05 0 0 0 15 0 19 19 0 0 0 6.56-4l25-25a19 19 0 0 1-6.56 4 22 22 0 0 1-7.45 1.34z"/><path d="M61.9 42.07v-.01.01z"/></g><path d="M53.36 11.82a11.09 11.09 0 0 0-3.71-2.41 11.59 11.59 0 0 0-4.25-.82 11.77 11.77 0 0 0-4.25.79 10.15 10.15 0 0 0-3.67 2.38 11.92 11.92 0 0 0-2.59 4 14.91 14.91 0 0 0-1 5.61v7.34a17.09 17.09 0 0 0 .37 3.63l19.79-19.76c-.22-.26-.45-.52-.69-.76z"/></g><path class="st_face" d="M25 28.79v-7.34a22.92 22.92 0 0 1 1.77-9.32 19.91 19.91 0 0 1 4.62-6.66 18.92 18.92 0 0 1 6.53-4 21.9 21.9 0 0 1 15 0 19.23 19.23 0 0 1 6.56 4 19.58 19.58 0 0 1 4.66 6.66 22.92 22.92 0 0 1 1.77 9.32v7.34a22.92 22.92 0 0 1-1.77 9.32 20 20 0 0 1-4.66 6.69 19 19 0 0 1-6.56 4 22.05 22.05 0 0 1-15 0 18.72 18.72 0 0 1-6.53-4 20.36 20.36 0 0 1-4.62-6.69A22.92 22.92 0 0 1 25 28.79zm8.91-7.41v7.34a15.1 15.1 0 0 0 1 5.68 12.16 12.16 0 0 0 2.62 4.05 10.92 10.92 0 0 0 3.67 2.44 11.16 11.16 0 0 0 4.22.82 11.62 11.62 0 0 0 4.28-.82 10.63 10.63 0 0 0 3.74-2.44A12.16 12.16 0 0 0 56 34.4a14.9 14.9 0 0 0 1-5.68v-7.34a14.11 14.11 0 0 0-1-5.58 12.48 12.48 0 0 0-2.65-4 11.09 11.09 0 0 0-3.71-2.41 11.59 11.59 0 0 0-4.25-.82 11.77 11.77 0 0 0-4.25.79 10.15 10.15 0 0 0-3.67 2.38 11.92 11.92 0 0 0-2.59 4 14.91 14.91 0 0 0-.97 5.64z"/></symbol><symbol id="st_r_1" data-name="1" viewBox="0 0 50.09 76.9"><path class="st_sides" d="M50.09 41.3H42.2V1.32L25.41 6.89l-25 25v8.16l7.89-2.31v20.32L0 66.3v7.62h25.09l25-25V41.3z"/><g class="st_shadows" fill="url(#st_lg)"><path d="M25.09 73.92l25-25H25l-25 25h25.09z"/><path d="M8.3 37.74l25-25-7.89 2.31-25 25 7.89-2.31z"/></g><path class="st_face" d="M25 41.3h8.3V12.74l-7.89 2.31V6.89L42.2 1.32v40h7.89v7.62H25z"/></symbol><symbol id="st_r_2" data-name="2" viewBox="0 0 63.56 76.9"><path class="st_sides" d="M63.56 40.49H44.9l15-15a12.93 12.93 0 0 0 1.92-2.65 15.54 15.54 0 0 0 1.56-7.43 13.62 13.62 0 0 0-1.63-6.95 13.28 13.28 0 0 0-4.25-4.6 17.46 17.46 0 0 0-6-2.44 31 31 0 0 0-6.58-.71 34.17 34.17 0 0 0-6.8.68A19.4 19.4 0 0 0 32 3.7a13.84 13.84 0 0 0-2.59 2L4.48 30.59a14.41 14.41 0 0 0-2.1 2.53 14.77 14.77 0 0 0-2.18 7h8.91l6-6c.31-.09.61-.19 1-.26a20 20 0 0 1 3.87-.37 19 19 0 0 1 2.19.19L3.71 52.06a13.34 13.34 0 0 0-2 2.51A12.85 12.85 0 0 0 0 61.41v12.51h38.56l25-25z"/><g class="st_shadows" fill="url(#st_lg)"><path d="M9.11 40.12l25-25H25.2l-25 25h8.91z"/><path d="M38.56 73.92l25-25H25l-25 25h38.56z"/><path d="M28.21 27.6a13.51 13.51 0 0 1 2.94-2.42 19.84 19.84 0 0 1 6.19-2.31 36 36 0 0 1 7-.68l9.61-9.61c0-.09-.07-.19-.12-.28a5.73 5.73 0 0 0-2-2.14 9.85 9.85 0 0 0-3.06-1.23 19.66 19.66 0 0 0-3.81-.47 20 20 0 0 0-3.87.37A12.47 12.47 0 0 0 37.61 10a7.57 7.57 0 0 0-2.48 2.08 5.24 5.24 0 0 0-1 3l-18.94 19c.29-.08.57-.18.88-.24a20 20 0 0 1 3.87-.37 19 19 0 0 1 2.19.19l6-6z"/><path d="M57.64 27.33a17 17 0 0 1-6.12 2.28 42.25 42.25 0 0 1-7.21.61 25.12 25.12 0 0 0-3.3.24 12.25 12.25 0 0 0-3.36.91A7.14 7.14 0 0 0 35 33.28a4.63 4.63 0 0 0-1 3.13v4.08h10.9l15-15a11.3 11.3 0 0 1-2.26 1.84z"/></g><path class="st_face" d="M25.2 15.12a14.77 14.77 0 0 1 2.18-7A13.93 13.93 0 0 1 32 3.7a19.4 19.4 0 0 1 6.15-2.31 34.17 34.17 0 0 1 6.8-.68 31 31 0 0 1 6.63.71 17.46 17.46 0 0 1 6 2.44 13.28 13.28 0 0 1 4.29 4.55 13.62 13.62 0 0 1 1.63 7 15.54 15.54 0 0 1-1.56 7.43 12 12 0 0 1-4.22 4.54 17 17 0 0 1-6.12 2.28 42.25 42.25 0 0 1-7.21.61 25.12 25.12 0 0 0-3.3.24 12.25 12.25 0 0 0-3.36.91A7.14 7.14 0 0 0 35 33.28a4.63 4.63 0 0 0-1 3.13v4.08h29.56v8.43H25V36.41a12.83 12.83 0 0 1 1.7-6.84 13 13 0 0 1 4.45-4.39 19.84 19.84 0 0 1 6.19-2.31 36 36 0 0 1 7-.68 21 21 0 0 0 3.13-.27 12.35 12.35 0 0 0 3.33-1 7.38 7.38 0 0 0 2.65-2 5 5 0 0 0 1.09-3.33 7 7 0 0 0-.71-3.3 5.73 5.73 0 0 0-2-2.14 9.85 9.85 0 0 0-3.06-1.23 19.66 19.66 0 0 0-3.81-.47 20 20 0 0 0-3.87.37A12.47 12.47 0 0 0 37.61 10a7.57 7.57 0 0 0-2.48 2.08 5.24 5.24 0 0 0-1 3z"/></symbol><symbol id="st_r_3" data-name="3" viewBox="0 0 64.58 76.9"><path class="st_sides" d="M62.43 28.32a11.55 11.55 0 0 0-4.5-3.4l2.74-2.73a9 9 0 0 0 1-1.25 10.28 10.28 0 0 0 1.73-5.84 12.25 12.25 0 0 0-1.67-6.52 14.4 14.4 0 0 0-4.29-4.48 19.12 19.12 0 0 0-6-2.61 27.17 27.17 0 0 0-6.7-.85 30.77 30.77 0 0 0-6.66.75 19.72 19.72 0 0 0-6.14 2.41 13.73 13.73 0 0 0-2.54 2L4.5 30.68a14 14 0 0 0-2 2.44 11.72 11.72 0 0 0-1.75 6.53h9s5.2-5.21 5.2-5.22c.45-.12.91-.24 1.4-.33a20 20 0 0 1 3.33-.3 15.93 15.93 0 0 1 4.5.55l-11.6 11.48v1.56L0 59.94a12.62 12.62 0 0 0 1.77 6.89 14.19 14.19 0 0 0 4.59 4.53 19.86 19.86 0 0 0 6.25 2.49 32 32 0 0 0 6.84.75 35.57 35.57 0 0 0 7-.72A19.92 19.92 0 0 0 33 71.43a14.37 14.37 0 0 0 2.69-2.09l24.9-24.91a14.9 14.9 0 0 0 2.17-2.66 13.36 13.36 0 0 0 1.87-7.29 9.61 9.61 0 0 0-2.2-6.16z"/><g class="st_shadows" fill="url(#st_lg)"><path d="M9.72 39.65l25-25.01h-8.97l-25 25.01h8.97z"/><g><path d="M58 46.43a19.92 19.92 0 0 1-6.46 2.45 35.57 35.57 0 0 1-7 .72 32 32 0 0 1-6.84-.75 19.86 19.86 0 0 1-6.25-2.49 14.14 14.14 0 0 1-3.66-3.22l-25 25a14.14 14.14 0 0 0 3.66 3.22 19.86 19.86 0 0 0 6.25 2.49 32 32 0 0 0 6.84.75 35.57 35.57 0 0 0 7-.72A19.92 19.92 0 0 0 33 71.43a14.37 14.37 0 0 0 2.69-2.09l24.9-24.91a14 14 0 0 1-2.59 2z"/><path d="M62.71 41.77l.33-.58z"/></g><path d="M34 34.94a4.63 4.63 0 0 0 1.09 3.11 8.22 8.22 0 0 0 2.69 2.05 12.68 12.68 0 0 0 3.43 1.13 17.9 17.9 0 0 0 3.27.34 18.2 18.2 0 0 0 3.57-.37 12.07 12.07 0 0 0 3.47-1.2 8.09 8.09 0 0 0 2.58-2.19 5.19 5.19 0 0 0 1-3.25 7 7 0 0 0-.37-2.22 4.68 4.68 0 0 0-1.46-2.05 9 9 0 0 0-3.1-1.54 18.15 18.15 0 0 0-5.2-.61h-7.39l-6.83 6.83z"/><path d="M44.45 20.83h1.1l8.22-8.21a5.75 5.75 0 0 0-1.4-1.64 9.39 9.39 0 0 0-3-1.53 15.4 15.4 0 0 0-4.73-.61 20 20 0 0 0-3.33.3 13.12 13.12 0 0 0-3.23 1 6.79 6.79 0 0 0-2.41 1.8 4.1 4.1 0 0 0-1 2.75L14.92 34.43c.45-.12.91-.24 1.4-.33a20 20 0 0 1 3.33-.3 15.93 15.93 0 0 1 4.43.53l13.5-13.5z"/><path d="M60.67 22.19a8.83 8.83 0 0 1-3.85 2.28c.39.13.75.3 1.11.45z"/></g><path class="st_face" d="M45 28.11h-7.42v-7.28h6.87a23.84 23.84 0 0 0 3.6-.27 12.21 12.21 0 0 0 3.2-.92 6.13 6.13 0 0 0 2.31-1.76 4.32 4.32 0 0 0 .88-2.76A5.6 5.6 0 0 0 54 13a5.34 5.34 0 0 0-1.6-2 9.39 9.39 0 0 0-3-1.53 15.4 15.4 0 0 0-4.73-.61 20 20 0 0 0-3.33.3 13.12 13.12 0 0 0-3.23 1 6.79 6.79 0 0 0-2.41 1.8 4.1 4.1 0 0 0-1 2.75h-9a11.71 11.71 0 0 1 1.73-6.52 14 14 0 0 1 4.51-4.39 19.72 19.72 0 0 1 6.12-2.41 30.77 30.77 0 0 1 6.66-.75 27.17 27.17 0 0 1 6.7.85 19.12 19.12 0 0 1 6 2.61 14.4 14.4 0 0 1 4.31 4.48 12.25 12.25 0 0 1 1.67 6.52 10.28 10.28 0 0 1-1.73 5.84 8.71 8.71 0 0 1-4.87 3.53 11.61 11.61 0 0 1 5.61 3.85 9.61 9.61 0 0 1 2.15 6.16 13.36 13.36 0 0 1-1.87 7.29A14.51 14.51 0 0 1 58 46.43a19.92 19.92 0 0 1-6.46 2.45 35.57 35.57 0 0 1-7 .72 32 32 0 0 1-6.84-.75 19.86 19.86 0 0 1-6.25-2.49 14.19 14.19 0 0 1-4.59-4.53A12.62 12.62 0 0 1 25 34.94h9a4.63 4.63 0 0 0 1.09 3.11 8.22 8.22 0 0 0 2.69 2.05 12.68 12.68 0 0 0 3.43 1.13 17.9 17.9 0 0 0 3.27.34 18.2 18.2 0 0 0 3.57-.37 12.07 12.07 0 0 0 3.47-1.2 8.09 8.09 0 0 0 2.58-2.19 5.19 5.19 0 0 0 1-3.25 7 7 0 0 0-.37-2.22 4.68 4.68 0 0 0-1.46-2.05 8.86 8.86 0 0 0-3.1-1.53 17.76 17.76 0 0 0-5.17-.65z"/></symbol><symbol id="st_r_4" data-name="4" viewBox="0 0 65.66 76.9"><path class="st_sides" d="M65.66 31.17h-5.57V1.39H46.42l-25 25L0 55.76l.82 9.11h25.43v9.05h8.84l25-25v-3.56l5.57-5.49v-8.7z"/><g class="st_shadows" fill="url(#st_lg)"><path d="M26.25 73.92l25-25h8.84l-25 25h-8.84z"/><path d="M26.25 64.87l25-25H25.82l-25 25h25.43z"/><path d="M60.09 45.36l5.57-5.49h-5.57v5.49z"/><path d="M51.25 9.14L35.13 31.17h16.12V9.14z"/></g><path class="st_face" d="M60.09 1.39v29.78h5.57v8.7h-5.57v9.05h-8.84v-9.05H25.82L25 30.76 46.42 1.39zm-8.84 29.78v-22l-16.12 22z"/></symbol><symbol id="st_r_5" data-name="5" viewBox="0 0 63.15 76.9"><path class="st_sides" d="M61.62 26.41a13.08 13.08 0 0 0-4.18-4.76A17.83 17.83 0 0 0 51.32 19l9.18-9.18V1.39H26l-25 25v25.22h7l-8 8a14.07 14.07 0 0 0 1.6 7 13.28 13.28 0 0 0 4.25 4.59A17.41 17.41 0 0 0 12 73.71a35.93 35.93 0 0 0 7.48.75 25 25 0 0 0 7-1 18.34 18.34 0 0 0 5.95-3c.45-.35.88-.73 1.29-1.12l24.9-24.91a14.73 14.73 0 0 0 2.95-3.94 15 15 0 0 0 1.57-7.07 15.1 15.1 0 0 0-1.52-7.01z"/><g class="st_shadows" fill="url(#st_lg)"><g><path d="M60 43c.08-.11.18-.21.26-.32-.13.12-.21.24-.26.32z"/><path d="M58.82 44.3c.28-.27.54-.55.79-.84-.25.29-.51.54-.79.84z"/><path d="M57.44 45.52a18.12 18.12 0 0 1-5.95 2.95 24.62 24.62 0 0 1-7 1 35.93 35.93 0 0 1-7.49-.76 17.41 17.41 0 0 1-6.19-2.51 13.35 13.35 0 0 1-3.4-3.26l-25 25a13.22 13.22 0 0 0 3.4 3.27 17.41 17.41 0 0 0 6.19 2.5 35.93 35.93 0 0 0 7.48.75 25 25 0 0 0 7-1 18.34 18.34 0 0 0 5.95-3c.45-.35.88-.73 1.29-1.12l24.9-24.9a14.53 14.53 0 0 1-1.18 1.08z"/></g><path d="M34.79 9.82v8.36H44a31.42 31.42 0 0 1 7.28.82l9.22-9.18z"/><path d="M34.93 37.8a7.45 7.45 0 0 0 2.55 2 12.28 12.28 0 0 0 3.32 1l11.7-11.64a6.81 6.81 0 0 0-1.5-1.09A11.46 11.46 0 0 0 47.71 27a20.71 20.71 0 0 0-3.71-.39H26l-25 25h7l17-17h8.91a5 5 0 0 0 1.02 3.19z"/></g><path class="st_face" d="M60.5 9.82H34.79v8.36H44a31.42 31.42 0 0 1 7.28.82 17.83 17.83 0 0 1 6.12 2.65 13.08 13.08 0 0 1 4.18 4.76 15.1 15.1 0 0 1 1.53 7.07 15 15 0 0 1-1.57 7.07 14.74 14.74 0 0 1-4.14 5 18.34 18.34 0 0 1-5.95 3 25 25 0 0 1-7 1 35.93 35.93 0 0 1-7.45-.84 17.41 17.41 0 0 1-6.19-2.51 13.28 13.28 0 0 1-4.25-4.59 14.07 14.07 0 0 1-1.6-7h8.91a5 5 0 0 0 1 3.23 7.45 7.45 0 0 0 2.55 2 12 12 0 0 0 3.36 1 22.12 22.12 0 0 0 3.54.31 14.84 14.84 0 0 0 3.37-.41 10.44 10.44 0 0 0 3.19-1.32 7.38 7.38 0 0 0 2.38-2.37 6.53 6.53 0 0 0 .92-3.55 6 6 0 0 0-.88-3.35 6.44 6.44 0 0 0-2.3-2.08A11.46 11.46 0 0 0 47.71 27a20.71 20.71 0 0 0-3.71-.39H26V1.39h34.5z"/></symbol><symbol id="st_r_6" data-name="6" viewBox="0 0 64.58 76.9"><path class="st_sides" d="M62.84 26.44a14.35 14.35 0 0 0-4.52-4.89c-.26-.17-.53-.32-.79-.48l6.57-6.56a12.32 12.32 0 0 0-1.6-6.43 12.9 12.9 0 0 0-4.28-4.38A19.21 19.21 0 0 0 52 1.22a33.76 33.76 0 0 0-7.42-.79 27.33 27.33 0 0 0-7.2 1 20 20 0 0 0-6.29 2.85 14.06 14.06 0 0 0-2.49 2.14L3.69 31.32a14.44 14.44 0 0 0-2 2.78A13.78 13.78 0 0 0 0 41v17.75a13.8 13.8 0 0 0 1.73 7 15.47 15.47 0 0 0 4.56 5 20.63 20.63 0 0 0 6.36 3 26.49 26.49 0 0 0 14.35 0 20.3 20.3 0 0 0 6.32-3 15.42 15.42 0 0 0 2.53-2.23l24.9-24.9a16.07 16.07 0 0 0 2.09-2.8 13.35 13.35 0 0 0 1.74-6.9 14.74 14.74 0 0 0-1.74-7.48z"/><g class="st_shadows" fill="url(#st_lg)"><path d="M51 18.65l1.05.21a19.21 19.21 0 0 1 5.5 2.21l6.57-6.56h-9z"/><path d="M58.32 45.72a20.3 20.3 0 0 1-6.32 3 26.4 26.4 0 0 1-7.14 1 26.63 26.63 0 0 1-7.21-1 20.63 20.63 0 0 1-6.36-3 15.27 15.27 0 0 1-3-2.78l-25 25a15.18 15.18 0 0 0 3 2.8 20.63 20.63 0 0 0 6.36 3 26.49 26.49 0 0 0 14.35 0 20.3 20.3 0 0 0 6.32-3 15.42 15.42 0 0 0 2.53-2.23l24.9-24.9a15.46 15.46 0 0 1-2.43 2.11z"/><path d="M54.21 11.76a7.48 7.48 0 0 0-2.38-2 13.27 13.27 0 0 0-3.34-1.19 17.7 17.7 0 0 0-3.77-.41 15.58 15.58 0 0 0-4 .52 11.72 11.72 0 0 0-3.47 1.52 8 8 0 0 0-2.44 2.56 6.46 6.46 0 0 0-.92 3.43v6.87A8.53 8.53 0 0 1 36 20.9a13.31 13.31 0 0 1 2.78-1.56 17.37 17.37 0 0 1 3.1-.95 14.26 14.26 0 0 1 3-.34 31.45 31.45 0 0 1 6.06.6l4.14-4.14a4.38 4.38 0 0 0-.87-2.75z"/><path d="M52.54 27.85a10 10 0 0 0-3.4-1.54 16.83 16.83 0 0 0-4.22-.51 17.24 17.24 0 0 0-4.25.51 11.19 11.19 0 0 0-3.53 1.54 7.33 7.33 0 0 0-2.38 2.52 7 7 0 0 0-.85 3.49 6.31 6.31 0 0 0 .92 3.45 7.73 7.73 0 0 0 2.41 2.42 11.3 11.3 0 0 0 3.47 1.43c.36.09.72.16 1.09.23L54 29.2a7.77 7.77 0 0 0-1.46-1.35z"/></g><path class="st_face" d="M33.91 15.94v7.14A8.53 8.53 0 0 1 36 20.9a13.31 13.31 0 0 1 2.78-1.56 17.37 17.37 0 0 1 3.1-.95 14.26 14.26 0 0 1 3-.34 31.45 31.45 0 0 1 7.11.81 19 19 0 0 1 6.29 2.69 14.35 14.35 0 0 1 4.52 4.89 14.74 14.74 0 0 1 1.74 7.45 13.35 13.35 0 0 1-1.74 6.9 15.56 15.56 0 0 1-4.52 4.93 20.3 20.3 0 0 1-6.32 3 26.4 26.4 0 0 1-7.14 1 26.63 26.63 0 0 1-7.21-1 20.63 20.63 0 0 1-6.36-3 15.47 15.47 0 0 1-4.56-5 13.8 13.8 0 0 1-1.73-7V16a13.78 13.78 0 0 1 1.71-6.9 14.42 14.42 0 0 1 4.42-4.86 20 20 0 0 1 6.29-2.85 27.33 27.33 0 0 1 7.2-1 33.76 33.76 0 0 1 7.42.83 19.21 19.21 0 0 1 6.22 2.48 12.9 12.9 0 0 1 4.28 4.38 12.32 12.32 0 0 1 1.6 6.43h-9a4.38 4.38 0 0 0-.91-2.75 7.48 7.48 0 0 0-2.38-2 13.27 13.27 0 0 0-3.34-1.19 17.7 17.7 0 0 0-3.77-.41 15.58 15.58 0 0 0-4 .52 11.49 11.49 0 0 0-3.47 1.53 7.91 7.91 0 0 0-2.44 2.55 6.46 6.46 0 0 0-.92 3.43zm11 25.7a17.26 17.26 0 0 0 4.08-.48 11.24 11.24 0 0 0 3.46-1.43 7.43 7.43 0 0 0 2.38-2.42 6.56 6.56 0 0 0 .89-3.45 7.07 7.07 0 0 0-.85-3.49 7.85 7.85 0 0 0-2.28-2.52 10 10 0 0 0-3.4-1.54 16.83 16.83 0 0 0-4.22-.51 17.24 17.24 0 0 0-4.25.51 11.19 11.19 0 0 0-3.53 1.54 7.33 7.33 0 0 0-2.38 2.52 7 7 0 0 0-.85 3.49 6.31 6.31 0 0 0 .92 3.45 7.73 7.73 0 0 0 2.41 2.42 11.3 11.3 0 0 0 3.47 1.43 17.42 17.42 0 0 0 4.1.48z"/></symbol><symbol id="st_r_7" data-name="7" viewBox="0 0 60.43 76.9"><path class="st_sides" d="M60.43 6.08l-.48-4.76H25l-25 25v8.56h23.19L3.74 73.92h10.34l25-25L60.43 6.08z"/><g class="st_shadows" fill="url(#st_lg)"><path d="M0 34.88l25-25h23.19l-25 25H0z"/><path d="M14.08 73.92l25-25H28.74l-25 25h10.34z"/></g><path class="st_face" d="M28.74 48.92l19.45-39H25v-8.6h35l.48 4.76-21.4 42.84z"/></symbol><symbol id="st_r_8" data-name="8" viewBox="0 0 66.07 76.9"><path class="st_sides" d="M65.63 31.64a12.59 12.59 0 0 0-1.33-3 11.79 11.79 0 0 0-2.24-2.69 10.78 10.78 0 0 0-2.45-1.63l2-2A10 10 0 0 0 63.56 20a9.54 9.54 0 0 0 1.08-2.52A9.7 9.7 0 0 0 65 15a12.17 12.17 0 0 0-1.59-6.26 14.22 14.22 0 0 0-4.32-4.56 20.31 20.31 0 0 0-6.22-2.75 29.15 29.15 0 0 0-7.4-.93 28.74 28.74 0 0 0-7.35.92A19.84 19.84 0 0 0 32 4.14a13.46 13.46 0 0 0-2.38 2.05l-24.9 24.9a13.35 13.35 0 0 0-1.9 2.57A12.7 12.7 0 0 0 1.29 40a10.27 10.27 0 0 0 1.46 5.27 10.71 10.71 0 0 0 3.69 3.6l-3 3a10.85 10.85 0 0 0-1.63 2 12.24 12.24 0 0 0-1.33 2.84A9.37 9.37 0 0 0 0 59.57a13.26 13.26 0 0 0 1.67 7.14 13.93 13.93 0 0 0 4.62 4.76 21.05 21.05 0 0 0 6.6 2.69 34.14 34.14 0 0 0 7.58.85 35.46 35.46 0 0 0 7.72-.85 21.11 21.11 0 0 0 6.66-2.69 13.72 13.72 0 0 0 2.62-2.15l24.9-24.9a12.86 12.86 0 0 0 3.7-9.85 11 11 0 0 0-.44-2.93z"/><g class="st_shadows" fill="url(#st_lg)"><g><path d="M63.09 43.59l.16-.2z"/><path d="M59.85 46.47a21.11 21.11 0 0 1-6.66 2.69 35.46 35.46 0 0 1-7.72.85 34.14 34.14 0 0 1-7.58-.85 21.05 21.05 0 0 1-6.6-2.69 14.39 14.39 0 0 1-3.8-3.53l-25 25a14 14 0 0 0 3.8 3.54 21.05 21.05 0 0 0 6.6 2.69 34.14 34.14 0 0 0 7.58.85 35.46 35.46 0 0 0 7.72-.85 21.11 21.11 0 0 0 6.66-2.69 13.72 13.72 0 0 0 2.62-2.15l24.9-24.9a14 14 0 0 1-2.52 2.04z"/></g><path d="M52.85 9.85A13.15 13.15 0 0 0 45.47 8a15.43 15.43 0 0 0-4.42.58 9.53 9.53 0 0 0-3.16 1.56A6.63 6.63 0 0 0 36 12.3a4.68 4.68 0 0 0-.55 2.41 5.19 5.19 0 0 0 .92 2.79 7.83 7.83 0 0 0 2.21 2.11 10.12 10.12 0 0 0 3.16 1.32 15.53 15.53 0 0 0 3.78.45c.32 0 .62 0 .93-.05l8.75-8.75a6.11 6.11 0 0 0-2.35-2.73z"/><path d="M53.32 29.54a13.09 13.09 0 0 0-3.53-1.23 21.52 21.52 0 0 0-4.25-.4 20.17 20.17 0 0 0-4.08.4 13.54 13.54 0 0 0-3.54 1.23 7.53 7.53 0 0 0-2.55 2.1 4.93 4.93 0 0 0-1 3.07 5.39 5.39 0 0 0 .72 2.65 6.87 6.87 0 0 0 2.11 2.28 11.48 11.48 0 0 0 3.5 1.59 17.21 17.21 0 0 0 4.83.62l10.2-10.2a6.9 6.9 0 0 0-2.41-2.11z"/><path d="M28.45 26.85l.6-.6h.08a11.37 11.37 0 0 1 3.15-1.87A12.36 12.36 0 0 1 29.12 22l-25 25a12.2 12.2 0 0 0 2.33 1.86l22-22z"/><g><path d="M61.65 22.26A9.86 9.86 0 0 1 58.86 24c.26.11.51.22.75.34s2.04-2.08 2.04-2.08z"/><path d="M61.65 22.26a8.4 8.4 0 0 0 .84-.85 9.6 9.6 0 0 1-.84.85z"/><path d="M62.91 26.78c.06.07.13.14.19.22-.1-.08-.1-.15-.19-.22z"/><path d="M60.83 25l.17.12z"/></g></g><path class="st_face" d="M25 34.57a9.37 9.37 0 0 1 .48-2.86 12.24 12.24 0 0 1 1.36-2.89 10.92 10.92 0 0 1 2.24-2.55 11.74 11.74 0 0 1 3.2-1.9 11.25 11.25 0 0 1-4.53-4.11A10.27 10.27 0 0 1 26.29 15a12.7 12.7 0 0 1 1.53-6.33A13.37 13.37 0 0 1 32 4.14a19.84 19.84 0 0 1 6.12-2.72A28.74 28.74 0 0 1 45.47.5a29.15 29.15 0 0 1 7.38.92 20.31 20.31 0 0 1 6.22 2.75 14.22 14.22 0 0 1 4.32 4.56A12.17 12.17 0 0 1 65 15a9.7 9.7 0 0 1-.34 2.51 9.54 9.54 0 0 1-1.1 2.49 10 10 0 0 1-1.91 2.24A9.86 9.86 0 0 1 58.86 24a11 11 0 0 1 3.2 2 11.79 11.79 0 0 1 2.24 2.69 12.59 12.59 0 0 1 1.33 3 11 11 0 0 1 .44 2.93 13.09 13.09 0 0 1-6.22 11.9 21.11 21.11 0 0 1-6.66 2.69 35.46 35.46 0 0 1-7.72.85 34.14 34.14 0 0 1-7.58-.85 21.05 21.05 0 0 1-6.6-2.69 13.93 13.93 0 0 1-4.62-4.76A13.26 13.26 0 0 1 25 34.57zm20.54-6.66a20.17 20.17 0 0 0-4.08.4 13.54 13.54 0 0 0-3.54 1.23 7.53 7.53 0 0 0-2.55 2.1 4.93 4.93 0 0 0-1 3.07 5.39 5.39 0 0 0 .72 2.65 6.87 6.87 0 0 0 2.11 2.28 11.48 11.48 0 0 0 3.5 1.59 17.21 17.21 0 0 0 4.83.62 18.45 18.45 0 0 0 4.82-.58 11.18 11.18 0 0 0 3.51-1.57A6.82 6.82 0 0 0 56 37.43a5.54 5.54 0 0 0 .72-2.72 5.21 5.21 0 0 0-.92-3.07 6.9 6.9 0 0 0-2.45-2.1 13.09 13.09 0 0 0-3.53-1.23 21.52 21.52 0 0 0-4.28-.4zm-10.07-13.2a5.19 5.19 0 0 0 .92 2.79 7.83 7.83 0 0 0 2.21 2.11 10.12 10.12 0 0 0 3.16 1.32 15.53 15.53 0 0 0 3.78.45 16.16 16.16 0 0 0 3.87-.45 10.06 10.06 0 0 0 3.2-1.32 7.07 7.07 0 0 0 2.14-2.11 5.58 5.58 0 0 0 .85-2.79 5.48 5.48 0 0 0-2.75-4.86A13.15 13.15 0 0 0 45.47 8a15.43 15.43 0 0 0-4.42.58 9.53 9.53 0 0 0-3.16 1.56A6.63 6.63 0 0 0 36 12.3a4.68 4.68 0 0 0-.53 2.41z"/></symbol><symbol id="st_r_9" data-name="9" viewBox="0 0 64.58 76.9"><path class="st_sides" d="M62.84 9.34a15.32 15.32 0 0 0-4.55-5 20.84 20.84 0 0 0-6.36-3 26.49 26.49 0 0 0-14.35 0 20.09 20.09 0 0 0-6.32 3 15.49 15.49 0 0 0-2.54 2.23S3.85 31.47 3.82 31.51a15.35 15.35 0 0 0-2.09 2.8A13.44 13.44 0 0 0 0 41.21a14.85 14.85 0 0 0 1.73 7.45 14.48 14.48 0 0 0 4.53 4.89c.19.13.41.25.61.37S.2 60.59.2 60.59A12.15 12.15 0 0 0 1.84 67a13 13 0 0 0 4.38 4.4 20 20 0 0 0 6.33 2.48 34.76 34.76 0 0 0 7.44.79 27.08 27.08 0 0 0 7.18-1 20.05 20.05 0 0 0 6.25-2.85 14.54 14.54 0 0 0 2.5-2.18S60.8 43.82 60.83 43.78A15.61 15.61 0 0 0 62.88 41a13.6 13.6 0 0 0 1.7-6.94V16.35a13.71 13.71 0 0 0-1.74-7.01z"/><g class="st_shadows" fill="url(#st_lg)"><g><path d="M61.34 43.18l.28-.34z"/><path d="M58.42 45.86a20.05 20.05 0 0 1-6.25 2.85 27.08 27.08 0 0 1-7.18 1 34.76 34.76 0 0 1-7.44-.79 20 20 0 0 1-6.33-2.48 13.36 13.36 0 0 1-3.75-3.46l-25 25a13.3 13.3 0 0 0 3.75 3.42 20 20 0 0 0 6.33 2.48 34.76 34.76 0 0 0 7.44.79 27.08 27.08 0 0 0 7.18-1 20.05 20.05 0 0 0 6.25-2.85 14.54 14.54 0 0 0 2.5-2.18l24.91-24.9a14.59 14.59 0 0 1-2.41 2.12z"/></g><path d="M25.2 35.59h9a4.29 4.29 0 0 0 1 2.75 7.57 7.57 0 0 0 2.48 2 14.36 14.36 0 0 0 3.44 1.19 18.27 18.27 0 0 0 3.81.4 15.49 15.49 0 0 0 4-.51 11.38 11.38 0 0 0 3.47-1.53 8.14 8.14 0 0 0 2.45-2.51 6.54 6.54 0 0 0 .92-3.47V27a8.88 8.88 0 0 1-2.11 2.18 13.13 13.13 0 0 1-2.79 1.56 17.52 17.52 0 0 1-3.09.95 14.42 14.42 0 0 1-3 .34 31.37 31.37 0 0 1-7.1-.81 18.8 18.8 0 0 1-6.29-2.69 14.17 14.17 0 0 1-2.4-2l-25 25a14.17 14.17 0 0 0 2.4 2c.19.13.41.25.61.37l18.2-18.31z"/><path d="M52.34 10.37a11.16 11.16 0 0 0-3.47-1.43 17.54 17.54 0 0 0-4.15-.48 17.13 17.13 0 0 0-4.08.48 11.06 11.06 0 0 0-3.47 1.43 7.43 7.43 0 0 0-2.38 2.42 6.56 6.56 0 0 0-.88 3.45 7 7 0 0 0 .85 3.49A7.62 7.62 0 0 0 37 22.25a9.92 9.92 0 0 0 3.4 1.54 16.27 16.27 0 0 0 2.86.46l11.49-11.46a7.84 7.84 0 0 0-2.41-2.42z"/></g><path class="st_face" d="M55.67 34.16V27a8.88 8.88 0 0 1-2.11 2.18 13.13 13.13 0 0 1-2.79 1.56 17.52 17.52 0 0 1-3.09.95 14.42 14.42 0 0 1-3 .34 31.37 31.37 0 0 1-7.1-.81 18.8 18.8 0 0 1-6.29-2.69 14.48 14.48 0 0 1-4.53-4.89A14.85 14.85 0 0 1 25 16.21a13.44 13.44 0 0 1 1.73-6.9 15.71 15.71 0 0 1 4.53-4.93 20.09 20.09 0 0 1 6.32-3 26.49 26.49 0 0 1 14.35 0 20.84 20.84 0 0 1 6.36 3 15.32 15.32 0 0 1 4.55 5 13.71 13.71 0 0 1 1.74 7v17.71a13.6 13.6 0 0 1-1.7 6.91 15 15 0 0 1-4.46 4.83 20.05 20.05 0 0 1-6.25 2.85 27.08 27.08 0 0 1-7.18 1 34.76 34.76 0 0 1-7.44-.79 20 20 0 0 1-6.33-2.48A13 13 0 0 1 26.84 42a12.15 12.15 0 0 1-1.64-6.43h9a4.29 4.29 0 0 0 1 2.75 7.57 7.57 0 0 0 2.48 2 14.36 14.36 0 0 0 3.44 1.19 18.27 18.27 0 0 0 3.81.4 15.49 15.49 0 0 0 4-.51 11.38 11.38 0 0 0 3.47-1.53 8.14 8.14 0 0 0 2.45-2.51 6.54 6.54 0 0 0 .92-3.47zm-11-25.7a17.13 17.13 0 0 0-4.08.48 11.06 11.06 0 0 0-3.47 1.43 7.43 7.43 0 0 0-2.38 2.42 6.56 6.56 0 0 0-.88 3.45 7 7 0 0 0 .85 3.49A7.62 7.62 0 0 0 37 22.25a9.92 9.92 0 0 0 3.4 1.54 16.75 16.75 0 0 0 4.21.51 17.18 17.18 0 0 0 4.25-.51 11.15 11.15 0 0 0 3.54-1.54 7.42 7.42 0 0 0 2.38-2.52 7.07 7.07 0 0 0 .85-3.49 6.4 6.4 0 0 0-.92-3.45 7.84 7.84 0 0 0-2.41-2.42 11.16 11.16 0 0 0-3.47-1.43 17.54 17.54 0 0 0-4.11-.48z"/></symbol><symbol id="st_r__x3F_" data-name="?" viewBox="0 0 61.38 76.9"><path class="st_sides" d="M60 8.87a12.94 12.94 0 0 0-4-4.46 17.85 17.85 0 0 0-5.85-2.55 29.24 29.24 0 0 0-6.94-.81 27.37 27.37 0 0 0-6.86.84 17.32 17.32 0 0 0-5.78 2.66 12 12 0 0 0-1.29 1L4.32 30.5a13.46 13.46 0 0 0-2.83 3.6A13.53 13.53 0 0 0 0 40.6h9.11s6.38-6.42 6.38-6.44a12 12 0 0 1 2.51-.29 19.44 19.44 0 0 1 3.19.27 9.2 9.2 0 0 1 2.93 1 6 6 0 0 1 2.11 2 4.57 4.57 0 0 1 .46 1S14.6 50.24 14.24 50.73a12 12 0 0 0-1.73 3.71 20.5 20.5 0 0 0-.68 5.74h5.23l-4.55 4.55a5.63 5.63 0 0 0 0 8.06 5.82 5.82 0 0 0 7.48 0l25-25a4.84 4.84 0 0 0 1.7-4 4.83 4.83 0 0 0-1.7-4 6.23 6.23 0 0 0-2.11-1.08l.27-.27 15.09-15.1a13.52 13.52 0 0 0 1.68-2 10.59 10.59 0 0 0 1.46-5.89A12.85 12.85 0 0 0 60 8.87z"/><g class="st_shadows" fill="url(#st_lg)"><g><path d="M37.51 47.83a5.1 5.1 0 0 1-.46-.47l-25 25a5.1 5.1 0 0 0 .46.47 5.82 5.82 0 0 0 7.48 0l25-25a5.82 5.82 0 0 1-7.48 0z"/><path d="M45 47.83a4.32 4.32 0 0 0 .7-.72 4.32 4.32 0 0 1-.7.72z"/></g><path d="M11.83 60.18l5.23.04 19.96-19.96 4.46-.68 4.32-4.33-8.97-.07-25 25z"/><path d="M56.38 24.85a23 23 0 0 1-4.29 2.21 17.94 17.94 0 0 0-3.7 1.87 5.38 5.38 0 0 0-2 2.44 10.33 10.33 0 0 0-.62 3.88l-3.33 3.34a3.06 3.06 0 0 1 .41.1l.27-.27 15.09-15.1a11.3 11.3 0 0 1-1.83 1.53z"/><path d="M51.25 12.1a6 6 0 0 0-2.11-2 9.2 9.2 0 0 0-2.93-1A19.44 19.44 0 0 0 43 8.87a11.81 11.81 0 0 0-3.23.44 9 9 0 0 0-2.86 1.32 7.57 7.57 0 0 0-2 2.11 5.22 5.22 0 0 0-.78 2.86L15.49 34.16a12 12 0 0 1 2.51-.29 19.44 19.44 0 0 1 3.19.27 9.2 9.2 0 0 1 2.93 1 6 6 0 0 1 2.11 2 4.21 4.21 0 0 1 .29.56l25-25a4.77 4.77 0 0 0-.27-.6z"/><path d="M9.11 40.6l25-25H25l-25 25h9.11z"/></g><path class="st_face" d="M25 15.6a13.5 13.5 0 0 1 1.49-6.5 13.43 13.43 0 0 1 4-4.55 17.11 17.11 0 0 1 5.8-2.65 26.92 26.92 0 0 1 6.86-.85 29.24 29.24 0 0 1 6.94.81 17.85 17.85 0 0 1 5.85 2.55 12.94 12.94 0 0 1 4 4.46 12.85 12.85 0 0 1 1.43 6.52 10.59 10.59 0 0 1-1.46 5.89 12.54 12.54 0 0 1-3.54 3.57 23 23 0 0 1-4.29 2.21 17.94 17.94 0 0 0-3.7 1.87 5.38 5.38 0 0 0-2 2.44 10.33 10.33 0 0 0-.62 3.88l-9-.07a20.5 20.5 0 0 1 .68-5.74 12 12 0 0 1 1.73-3.71 9.3 9.3 0 0 1 2.38-2.28c.89-.56 1.78-1.1 2.69-1.6S46.12 21 47 20.63a16.84 16.84 0 0 0 2.48-1.22 6.87 6.87 0 0 0 1.84-1.6 4 4 0 0 0 .71-2.48 5.86 5.86 0 0 0-.81-3.23 6 6 0 0 0-2.11-2 9.2 9.2 0 0 0-2.93-1A19.44 19.44 0 0 0 43 8.87a11.81 11.81 0 0 0-3.23.44 9 9 0 0 0-2.86 1.32 7.57 7.57 0 0 0-2 2.11 5.22 5.22 0 0 0-.78 2.86zm10.81 28.22a4.83 4.83 0 0 1 1.7-4 6 6 0 0 1 7.48 0 4.83 4.83 0 0 1 1.7 4 4.84 4.84 0 0 1-1.7 4 5.82 5.82 0 0 1-7.48 0 4.84 4.84 0 0 1-1.7-4z"/></symbol><symbol id="st_r__x40_" data-name="@" viewBox="0 0 74.59 76.9"><path class="st_sides" d="M72.59 18.44a20.66 20.66 0 0 0-5.51-7.57 23 23 0 0 0-8.25-4.43A35.18 35.18 0 0 0 48.55 5a29.57 29.57 0 0 0-9.66 1.6 24.31 24.31 0 0 0-8.28 4.74A20.84 20.84 0 0 0 28.89 13L6.35 35.55a23.6 23.6 0 0 0-4.12 6.17A25 25 0 0 0 .07 52.43a25.11 25.11 0 0 0 2.19 11A21.52 21.52 0 0 0 8 70.89a23.47 23.47 0 0 0 8.13 4.34 31.2 31.2 0 0 0 9.26 1.39A28.22 28.22 0 0 0 31 76a19.67 19.67 0 0 0 6-2.43l5.81-5.82a9 9 0 0 0 2.63-.92 9.77 9.77 0 0 0 2-1.45l22.61-22.51A11.34 11.34 0 0 0 71.67 41a15.28 15.28 0 0 0 2.18-5 27.61 27.61 0 0 0 .74-6.65 27.11 27.11 0 0 0-2-10.91z"/><g class="st_shadows" fill="url(#st_lg)"><path d="M48.06 54a31.2 31.2 0 0 1-9.26-1.4 23.61 23.61 0 0 1-8.13-4.33 21.38 21.38 0 0 1-1.83-1.73L6.2 69.16A18.75 18.75 0 0 0 8 70.89a23.47 23.47 0 0 0 8.13 4.34 31.2 31.2 0 0 0 9.26 1.39A28.22 28.22 0 0 0 31 76a19.67 19.67 0 0 0 6-2.43l5.81-5.82L59.69 51a20 20 0 0 1-6 2.44 29 29 0 0 1-5.63.56z"/><path d="M68.13 44.23a9.9 9.9 0 0 1-4.8 1.14 9.3 9.3 0 0 1-2-.24 5.9 5.9 0 0 1-2-.9 5.58 5.58 0 0 1-1.57-1.75 5.7 5.7 0 0 1-.64-2.89A6 6 0 0 1 55.54 42l-6.71 6.71a25.7 25.7 0 0 0 3.74-.44 14.49 14.49 0 0 0 4.8-1.88L59.69 51l-16.8 16.78a9.2 9.2 0 0 0 2.61-.92 9.77 9.77 0 0 0 2-1.45l22.55-22.54a9.83 9.83 0 0 1-1.92 1.36z"/><path d="M53.17 43.68a11.47 11.47 0 0 1-2.62 1 10.09 10.09 0 0 1-2.3.31A17.21 17.21 0 0 1 42 43.83a15 15 0 0 1-5-3.1 14.54 14.54 0 0 1-2-2.37l-3.23 3.23a14.69 14.69 0 0 0 2.66 2.89 17.07 17.07 0 0 0 6.34 3.26 27.29 27.29 0 0 0 7.48 1h.56L55.52 42a9.78 9.78 0 0 1-2.35 1.68z"/><path d="M54.46 23.49a7.52 7.52 0 0 0-2.64-1.81 9.45 9.45 0 0 0-3.76-.68 8.51 8.51 0 0 0-3.72.74 7.64 7.64 0 0 0-2.62 2 7.91 7.91 0 0 0-1.54 2.8 10.63 10.63 0 0 0-.49 3.23 10.39 10.39 0 0 0 .49 3.2 7.65 7.65 0 0 0 1.54 2.74 7.89 7.89 0 0 0 2.65 1.94l.15.06L56 26.17a7.41 7.41 0 0 0-1.54-2.68z"/><path d="M48.55 10a21.81 21.81 0 0 0-7.84 1.39A18.4 18.4 0 0 0 30 21.58a19.37 19.37 0 0 0-1.47 5.75l7.3-7.3c.14-.17.27-.35.41-.51A15.13 15.13 0 0 1 38 17.87a15.16 15.16 0 0 1 7.72-3.24 17.32 17.32 0 0 1 3 0 11.87 11.87 0 0 1 3.05.71 10.92 10.92 0 0 1 2.74 1.5 7.85 7.85 0 0 1 2.06 2.37l.49-3.14 5.29.8v4.7l3.73-3.73a13.5 13.5 0 0 0-2.5-3.06Q58.47 10 48.55 10z"/></g><path class="st_face" d="M48.55 10a21.81 21.81 0 0 0-7.84 1.39A18.4 18.4 0 0 0 30 21.58a20.3 20.3 0 0 0-1.6 8.22 21.29 21.29 0 0 0 1.63 8.83 15.8 15.8 0 0 0 4.37 5.85 17.07 17.07 0 0 0 6.34 3.26 27.29 27.29 0 0 0 7.48 1 24.38 24.38 0 0 0 4.3-.46 14.49 14.49 0 0 0 4.8-1.88l2.37 4.6a20 20 0 0 1-6 2.44 29 29 0 0 1-5.6.58 31.2 31.2 0 0 1-9.29-1.42 23.61 23.61 0 0 1-8.13-4.33 21.65 21.65 0 0 1-5.78-7.51 25.11 25.11 0 0 1-2.19-11 25 25 0 0 1 2.16-10.71 22.93 22.93 0 0 1 5.75-7.75 24.31 24.31 0 0 1 8.28-4.7A29.57 29.57 0 0 1 48.55 5a35.18 35.18 0 0 1 10.28 1.44 23 23 0 0 1 8.25 4.43 20.66 20.66 0 0 1 5.51 7.57 27.11 27.11 0 0 1 2 10.87 27.61 27.61 0 0 1-.74 6.69 15.28 15.28 0 0 1-2.18 5 10.27 10.27 0 0 1-3.54 3.23 9.9 9.9 0 0 1-4.8 1.14 9.3 9.3 0 0 1-2-.24 5.9 5.9 0 0 1-2-.9 5.58 5.58 0 0 1-1.57-1.75 5.7 5.7 0 0 1-.64-2.89A6 6 0 0 1 55.54 42a9.84 9.84 0 0 1-2.37 1.66 11.47 11.47 0 0 1-2.62 1 10.09 10.09 0 0 1-2.3.31A17.21 17.21 0 0 1 42 43.83a15 15 0 0 1-5-3.1 14.33 14.33 0 0 1-3.32-4.81 15.33 15.33 0 0 1-1.2-6.12 15.79 15.79 0 0 1 1-5.66 14.56 14.56 0 0 1 7-7.88 15.26 15.26 0 0 1 5.32-1.66 17.32 17.32 0 0 1 3 0 11.87 11.87 0 0 1 3.05.71 10.92 10.92 0 0 1 2.74 1.5 7.85 7.85 0 0 1 2.06 2.37l.49-3.14 5.29.8v22a1.06 1.06 0 0 0 .65 1 1.69 1.69 0 0 0 1.14.19 5 5 0 0 0 2.34-1.48A7.9 7.9 0 0 0 68 36.14a12.76 12.76 0 0 0 .74-3.14 33.47 33.47 0 0 0 .19-3.54q0-10-5.24-14.71T48.55 10zm-.49 11a8.51 8.51 0 0 0-3.72.74 7.64 7.64 0 0 0-2.62 2 7.91 7.91 0 0 0-1.54 2.8 10.63 10.63 0 0 0-.49 3.23 10.39 10.39 0 0 0 .49 3.2 7.65 7.65 0 0 0 1.54 2.74 7.89 7.89 0 0 0 2.65 1.94 9.83 9.83 0 0 0 7.41 0 7.62 7.62 0 0 0 2.65-1.94A8 8 0 0 0 56 32.88a11 11 0 0 0 .52-3.45 10 10 0 0 0-.52-3.26 7.41 7.41 0 0 0-1.57-2.68 7.52 7.52 0 0 0-2.64-1.81 9.45 9.45 0 0 0-3.73-.68z"/></symbol><symbol id="st_r_A" viewBox="0 0 77.5 76.9"><path class="st_sides" d="M77.5 48.85L56.14 1.25h-9.79l-25 25L0 73.85h9.72l8.87-8.9h20.1l4.01 8.9h9.8l25-25z"/><g class="st_shadows" fill="url(#st_lg)"><path d="M9.72 73.85l25-25H25l-25 25h9.72z"/><path d="M52.5 73.85l25-25h-9.8l-25 25h9.8z"/><path d="M51.25 11.25l-8.84 20.26h17.68l-8.84-20.26z"/><path d="M34.72 48.85l-16.09 16.1h20.06l25-25H38.8l-4.08 8.9z"/></g><path class="st_face" d="M56.14 1.25h-9.79L25 48.85h9.72L38.8 40h24.89l4 8.9h9.8zM42.41 31.51l8.84-20.26 8.84 20.26z"/></symbol><symbol id="st_r_B" viewBox="0 0 65.39 76.9"><path class="st_sides" d="M65 32.19a12.27 12.27 0 0 0-1.32-3.12 12.53 12.53 0 0 0-2.35-2.89 8.06 8.06 0 0 0-2.66-1.64L61.16 22a8.13 8.13 0 0 0 1.38-1.74 10.2 10.2 0 0 0 1.46-5.2 14.35 14.35 0 0 0-1.25-6.22 11.66 11.66 0 0 0-3.44-4.29 14.7 14.7 0 0 0-5.21-2.48 24.87 24.87 0 0 0-6.52-.82H25v.1L0 26.25v47.6h22.58a33.45 33.45 0 0 0 6.93-.68 15.65 15.65 0 0 0 5.68-2.31A11.45 11.45 0 0 0 37.35 69l24.9-24.91A11.66 11.66 0 0 0 64 41.54a14.41 14.41 0 0 0 1.39-6.69 10.53 10.53 0 0 0-.39-2.66z"/><g class="st_shadows" fill="url(#st_lg)"><g><path d="M59.69 25.05a7.92 7.92 0 0 1 .69.42 7.92 7.92 0 0 0-.69-.42z"/><path d="M61.21 22a11.82 11.82 0 0 1-3.43 2.26 9.79 9.79 0 0 1 1.15.44c-.09 0-.18-.1-.28-.14L61.16 22z"/></g><path d="M33.84 20.36h10.64l8.91-8.9A7 7 0 0 0 51.15 10a9.24 9.24 0 0 0-3.57-.62H33.84z"/><path d="M53.39 29.87a10.58 10.58 0 0 0-2.89-1.21 11.64 11.64 0 0 0-2.91-.41H33.84v12.17h13.1l8.59-8.59a7.72 7.72 0 0 0-2.14-1.96z"/><path d="M60.19 45.86a15.65 15.65 0 0 1-5.68 2.31 33.45 33.45 0 0 1-6.93.68H24.83L0 73.7v.15h22.58a33.45 33.45 0 0 0 6.93-.68 15.65 15.65 0 0 0 5.68-2.31A11.45 11.45 0 0 0 37.35 69l24.9-24.9a11.77 11.77 0 0 1-2.06 1.76z"/></g><path class="st_face" d="M47.58 1.25a24.87 24.87 0 0 1 6.52.82 14.7 14.7 0 0 1 5.17 2.48 11.66 11.66 0 0 1 3.44 4.29A14.35 14.35 0 0 1 64 15.06a10.2 10.2 0 0 1-1.42 5.23 10 10 0 0 1-4.76 3.95 8.6 8.6 0 0 1 3.53 1.94 12.53 12.53 0 0 1 2.35 2.89 12.27 12.27 0 0 1 1.3 3.12 10.53 10.53 0 0 1 .41 2.66A14.41 14.41 0 0 1 64 41.54a11.47 11.47 0 0 1-3.81 4.32 15.65 15.65 0 0 1-5.68 2.31 33.45 33.45 0 0 1-6.93.68H25V1.25zM33.84 20.36h13.74q4.22 0 5.84-1.53a4.75 4.75 0 0 0 1.64-3.57 5.39 5.39 0 0 0-.38-1.83 5.58 5.58 0 0 0-1.22-1.91A6.73 6.73 0 0 0 51.15 10a9.24 9.24 0 0 0-3.57-.62H33.84zm0 20.06h13.74a17.24 17.24 0 0 0 2.92-.27 10.73 10.73 0 0 0 2.89-.91 6.4 6.4 0 0 0 2.21-1.73 4.22 4.22 0 0 0 .88-2.77 4.7 4.7 0 0 0-.88-2.84 7.67 7.67 0 0 0-2.21-2 10.58 10.58 0 0 0-2.89-1.21 11.71 11.71 0 0 0-2.92-.41H33.84z"/></symbol><symbol id="st_r_C" viewBox="0 0 68.32 76.9"><path class="st_sides" d="M68.32 42.87l-6.12-6.19a15.78 15.78 0 0 1-5.61 3.61 18 18 0 0 1-6.36 1.22 18.26 18.26 0 0 1-7.52-1.39A14.48 14.48 0 0 1 38.17 37l4.53-4.37 25-25a24.39 24.39 0 0 0-8.12-5.53A24.74 24.74 0 0 0 50.23.3 26.77 26.77 0 0 0 39 2.48a24 24 0 0 0-6.31 4.12L7.79 31.5a22.17 22.17 0 0 0-1.67 1.69 22.76 22.76 0 0 0-4.62 8 28.81 28.81 0 0 0 0 18.23A22.15 22.15 0 0 0 6 67.29a22.43 22.43 0 0 0 7.82 5.54 28.07 28.07 0 0 0 11.43 2.11 28.23 28.23 0 0 0 9.75-1.7 22.73 22.73 0 0 0 8.3-5.37z"/><g class="st_shadows" fill="url(#st_lg)"><g><path d="M60 48.24a28.23 28.23 0 0 1-9.79 1.7 28.07 28.07 0 0 1-11.41-2.11 22.69 22.69 0 0 1-7.32-5l-25 25a22.69 22.69 0 0 0 7.32 5 28.07 28.07 0 0 0 11.43 2.11 28.23 28.23 0 0 0 9.77-1.7 22.73 22.73 0 0 0 8.3-5.37l25-25a22.73 22.73 0 0 1-8.3 5.37z"/><path d="M67.76 42.3l.56.57-.56-.57z"/></g><path d="M56.35 10a17.72 17.72 0 0 0-6.12-1.09 17.4 17.4 0 0 0-7.41 1.46 15.11 15.11 0 0 0-5.14 3.81 14.74 14.74 0 0 0-2.92 5.3 20.1 20.1 0 0 0-.92 5.95 19 19 0 0 0 .92 5.85 14.76 14.76 0 0 0 2.89 5.17 12.91 12.91 0 0 0 1 1c-.15-.15-.31-.28-.46-.44l4.53-4.37 22-22v-.05l-2.94 2.84A15 15 0 0 0 56.35 10z"/></g><path class="st_face" d="M68.32 42.87A22.73 22.73 0 0 1 60 48.24a28.23 28.23 0 0 1-9.79 1.7 28.07 28.07 0 0 1-11.41-2.11 22.43 22.43 0 0 1-7.8-5.54 22.15 22.15 0 0 1-4.52-7.85 28.81 28.81 0 0 1 0-18.23 22.76 22.76 0 0 1 4.62-8A23.31 23.31 0 0 1 39 2.48 26.77 26.77 0 0 1 50.23.3a24.74 24.74 0 0 1 9.35 1.8 24.39 24.39 0 0 1 8.12 5.48l-6 5.78A15 15 0 0 0 56.35 10a17.72 17.72 0 0 0-6.12-1.09 17.4 17.4 0 0 0-7.41 1.46 15.11 15.11 0 0 0-5.14 3.81 14.74 14.74 0 0 0-2.92 5.3 20.1 20.1 0 0 0-.92 5.95 19 19 0 0 0 .92 5.85 14.76 14.76 0 0 0 2.89 5.17 14.19 14.19 0 0 0 5.06 3.71 18.26 18.26 0 0 0 7.52 1.39 18 18 0 0 0 6.36-1.22 15.78 15.78 0 0 0 5.61-3.61z"/></symbol><symbol id="st_r_D" viewBox="0 0 67.5 76.9"><path class="st_sides" d="M66 16a21.35 21.35 0 0 0-4.35-7.48 21.7 21.7 0 0 0-7.38-5.27 25.53 25.53 0 0 0-10.57-2H25l-25 25v47.6h18.7a25.75 25.75 0 0 0 10.78-2.07 22 22 0 0 0 6-4l24.9-24.9a18.91 18.91 0 0 0 1.58-1.65 21.88 21.88 0 0 0 4.28-7.78A28 28 0 0 0 66 16z"/><g class="st_shadows" fill="url(#st_lg)"><g><path d="M54.48 46.78a25.75 25.75 0 0 1-10.78 2.07H25l-25 25h18.7a25.75 25.75 0 0 0 10.78-2.07 22 22 0 0 0 6-4S60.3 43 60.34 42.92a22 22 0 0 1-5.86 3.86z"/><path d="M64.17 38.06c-.18.32-.38.64-.59 1 .21-.36.42-.67.59-1z"/><path d="M63.14 39.69c-.39.54-.78 1.07-1.22 1.58.44-.51.84-1.04 1.22-1.58z"/><path d="M65 36.39c-.12.26-.24.52-.37.77.17-.25.29-.51.37-.77z"/></g><path d="M55 14.32A12.87 12.87 0 0 0 50.36 11a16.09 16.09 0 0 0-6.66-1.31h-9.79v25.88L55 14.43z"/></g><path class="st_face" d="M43.7 1.25a25.53 25.53 0 0 1 10.57 2 21.7 21.7 0 0 1 7.38 5.27A21.35 21.35 0 0 1 66 16a28.06 28.06 0 0 1 .21 17.48 22.06 22.06 0 0 1-4.29 7.78 21.22 21.22 0 0 1-7.44 5.51 25.75 25.75 0 0 1-10.78 2.08H25V1.25zm-9.79 39h9.79a15.94 15.94 0 0 0 6.93-1.37 13.15 13.15 0 0 0 4.66-3.57 13.92 13.92 0 0 0 2.59-5 19.67 19.67 0 0 0 .71-5.73 18.74 18.74 0 0 0-1-5.45A14.25 14.25 0 0 0 55 14.32 12.87 12.87 0 0 0 50.36 11a16.09 16.09 0 0 0-6.66-1.31h-9.79z"/></symbol><symbol id="st_r_E" viewBox="0 0 60.63 76.9"><path class="st_sides" d="M60.63 9.96V1.25H25l-25 25v47.6h35.63l25-25v-8.84H48.99l10.69-10.67v-8.43H49.65L60.63 9.96z"/><g class="st_shadows" fill="url(#st_lg)"><path d="M33.91 40.01V29.34h25.77L48.99 40.01H33.91z"/><path d="M33.91 20.91V9.96h26.72L49.65 20.91H33.91z"/><path d="M0 73.85l25-25h35.63l-25 25H0z"/></g><path class="st_face" d="M60.63 48.85H25V1.25h35.63V10H33.91v11h25.77v8.43H33.91V40h26.72z"/></symbol><symbol id="st_r_F" viewBox="0 0 59.2 76.9"><path class="st_sides" d="M59.2 1.32H25l-25 25v47.53h8.98l17.55-17.61h6.31l25-25v-8.29H46.16L59.2 9.96V1.32z"/><g class="st_shadows" fill="url(#st_lg)"><path d="M0 73.85l25-25h8.98l-25 25H0z"/><path d="M32.84 56.24l25-25H33.98v17.61l-7.45 7.39h6.31z"/><path d="M33.98 22.95h12.18L59.2 9.96H33.98v12.99z"/></g><path class="st_face" d="M25 48.85V1.32h34.2V10H34v13h23.84v8.29H34v17.56z"/></symbol><symbol id="st_r_G" viewBox="0 0 69.13 76.9"><path class="st_sides" d="M53.83 21.42L62.26 13l5.58-5.71a24 24 0 0 0-8.26-5.49A25.59 25.59 0 0 0 50.16 0a26.3 26.3 0 0 0-11 2.14 24.05 24.05 0 0 0-6.27 4.11S8 31.12 8 31.15c-.59.54-1.15 1.11-1.68 1.7a23.74 23.74 0 0 0-4.73 8.23A30.35 30.35 0 0 0 0 50.77a29.18 29.18 0 0 0 1.43 9.08 21.26 21.26 0 0 0 4.45 7.75 21.76 21.76 0 0 0 7.79 5.4 29.08 29.08 0 0 0 11.49 2A24.33 24.33 0 0 0 36 72.8a25.25 25.25 0 0 0 6.36-4.49l24.9-24.9c.63-.61 1.24-1.25 1.83-1.93V21.42z"/><g class="st_shadows" fill="url(#st_lg)"><path d="M61.12 47.76A24.31 24.31 0 0 1 50.24 50a29.11 29.11 0 0 1-11.49-2 22 22 0 0 1-7.41-5l-25 25a22.07 22.07 0 0 0 7.42 5 29.11 29.11 0 0 0 11.49 2 24.31 24.31 0 0 0 10.88-2.24 25.32 25.32 0 0 0 6.84-5l24.4-24.4a24.89 24.89 0 0 1-6.25 4.4z"/><path d="M39.65 38.52a16 16 0 0 0 3 1.71 17.76 17.76 0 0 0 6.18 1.33L60.9 29.44H48.73z"/><path d="M56.59 9.45a18.59 18.59 0 0 0-6.43-1.22 16.69 16.69 0 0 0-6.87 1.36 14.89 14.89 0 0 0-5.17 3.73 16.69 16.69 0 0 0-3.23 5.56 20.73 20.73 0 0 0-1.12 6.86 19.39 19.39 0 0 0 .89 5.77 13.76 13.76 0 0 0 1.21 2.78l12.86-12.87h5.1L62.26 13a16.12 16.12 0 0 0-5.67-3.55z"/></g><path class="st_face" d="M62.26 13a16.12 16.12 0 0 0-5.67-3.54 18.59 18.59 0 0 0-6.43-1.22 16.69 16.69 0 0 0-6.87 1.36 14.89 14.89 0 0 0-5.17 3.73 16.69 16.69 0 0 0-3.23 5.56 20.73 20.73 0 0 0-1.12 6.86 19.39 19.39 0 0 0 .89 5.77 13.74 13.74 0 0 0 2.85 5.08 14.61 14.61 0 0 0 5.1 3.64 18.64 18.64 0 0 0 7.55 1.39 18.06 18.06 0 0 0 5.37-.78 17.13 17.13 0 0 0 5.37-3v-8.41H48.73v-8h20.4v20.04A25.57 25.57 0 0 1 61 47.8a24.33 24.33 0 0 1-10.88 2.25 29.08 29.08 0 0 1-11.49-2 21.76 21.76 0 0 1-7.79-5.41 21.26 21.26 0 0 1-4.45-7.75A29.18 29.18 0 0 1 25 25.77a30.35 30.35 0 0 1 1.56-9.69 23.74 23.74 0 0 1 4.73-8.23 23.3 23.3 0 0 1 7.85-5.71A26.3 26.3 0 0 1 50.16 0a25.59 25.59 0 0 1 9.42 1.8 24 24 0 0 1 8.26 5.48z"/></symbol><symbol id="st_r_H" viewBox="0 0 66.28 76.9"><path class="st_sides" d="M66.28 1.32h-8.91l-20 20.06h-3.39V1.32H25l-25 25v47.6h8.98l19.21-19.24h4.18v19.24h8.91l25-25V1.32z"/><g class="st_shadows" fill="url(#st_lg)"><path d="M25 48.92l-25 25h8.98l25-25H25z"/><path d="M57.37 29.68l-25 25h-4.18l5.79-5.76V29.68h23.39z"/><path d="M41.28 73.92l25-25h-8.91l-25 25h8.91z"/></g><path class="st_face" d="M57.37 48.92V29.68H34v19.24h-9V1.32h9v20.06h23.37V1.32h8.91v47.6z"/></symbol><symbol id="st_r_I" viewBox="0 0 33.91 76.9"><path class="st_sides" d="M33.91 1.25H25l-25 25v47.6h8.91l25-25V1.25z"/><g class="st_shadows" fill="url(#st_lg)"><path d="M8.91 73.85l25-25H25l-25 25h8.91z"/></g><path class="st_face" d="M25 48.85V1.25h8.91v47.6z"/></symbol><symbol id="st_r_J" viewBox="0 0 66.82 76.9"><path class="st_sides" d="M43.5 1.31l-25 25v8.43h.91L0 54.12A23.7 23.7 0 0 0 1.56 63a18.41 18.41 0 0 0 4.32 6.5 18.32 18.32 0 0 0 6.6 4 24.92 24.92 0 0 0 8.4 1.36 23.19 23.19 0 0 0 8.8-1.59 18.83 18.83 0 0 0 6.6-4.42l25-25a19.13 19.13 0 0 0 4.11-6.74 24.71 24.71 0 0 0 1.43-8.53V1.31z"/><g class="st_shadows" fill="url(#st_lg)"><g><path d="M61.28 43.85c.37-.39.71-.8 1-1.22-.28.42-.63.83-1 1.22z"/><path d="M45.88 49.86a24.92 24.92 0 0 1-8.4-1.36 18.32 18.32 0 0 1-6.6-4 15.74 15.74 0 0 1-1.45-1.6l-25 25a17.23 17.23 0 0 0 1.46 1.61 18.32 18.32 0 0 0 6.6 4 24.92 24.92 0 0 0 8.4 1.36 23.19 23.19 0 0 0 8.8-1.59 18.83 18.83 0 0 0 6.6-4.42l25-25a18.83 18.83 0 0 1-6.6 4.42 23.19 23.19 0 0 1-8.81 1.58z"/><path d="M63.1 41.55c-.11.17-.22.34-.34.5.12-.16.24-.33.34-.5z"/></g><path d="M34.27 33.32L57.84 9.74H43.5l-25 25h.91L25 29.12h8.84a18.64 18.64 0 0 0 .43 4.2z"/></g><path class="st_face" d="M66.82 1.31v27.27a24.71 24.71 0 0 1-1.43 8.53 19.13 19.13 0 0 1-4.11 6.74 18.83 18.83 0 0 1-6.6 4.42 23.19 23.19 0 0 1-8.8 1.59 24.92 24.92 0 0 1-8.4-1.36A17.66 17.66 0 0 1 26.56 38 23.7 23.7 0 0 1 25 29.12h8.84q0 12.31 12 12.31a13.06 13.06 0 0 0 5.3-1 10.33 10.33 0 0 0 3.74-2.72 11.07 11.07 0 0 0 2.21-4.07 17.08 17.08 0 0 0 .71-5V9.74H43.5V1.31z"/></symbol><symbol id="st_r_K" viewBox="0 0 64.98 76.9"><path class="st_sides" d="M64.98 48.37L42.07 24.36 63.22 1.58v-.27H52.06l-18.08 18.1V1.31H25l-25 25v47.6h8.98l10.19-10.29 9.73 10.29h11.08l25-25v-.54z"/><g class="st_shadows" fill="url(#st_lg)"><path d="M0 73.91l25-25h8.98l-25 25H0z"/><path d="M39.98 73.91l25-25H53.9l-25 25h11.08z"/><path d="M33.98 27.83v21.08L19.17 63.62l9.73 10.29 25-25-19.92-21.08"/></g><path class="st_face" d="M63.22 1.58L42.07 24.36 65 48.37v.54H53.9L34 27.83v21.08h-9V1.31h9v20.13L52.06 1.31h11.16z"/></symbol><symbol id="st_r_L" viewBox="0 0 58.46 76.9"><path class="st_sides" d="M58.46 40.62H33.98V1.31H25l-25 25v47.6h33.46l25-25v-8.29z"/><g class="st_shadows" fill="url(#st_lg)"><path d="M33.46 73.91l25-25H25l-25 25h33.46z"/></g><path class="st_face" d="M34 1.31v39.31h24.46v8.29H25V1.31z"/></symbol><symbol id="st_r_M" viewBox="0 0 75.39 76.9"><path class="st_sides" d="M75.39 1.38H65.12L47.89 18.64 35.34 1.38H25l-25 25v47.6h8.98l14.61-14.63.55.76h1.77l15.5-15.51v29.38h8.98l25-25V1.38z"/><g class="st_shadows" fill="url(#st_lg)"><path d="M8.98 73.98l25-25H25l-25 25h8.98z"/><path d="M25.91 60.11l25-25h-1.77l-25 25h1.77z"/><path d="M50.39 73.98l25-25h-8.98l-25 25h8.98z"/><path d="M49.14 35.11l-25 25-.55-.76 10.39-10.37V14.37l15.16 20.74z"/></g><path class="st_face" d="M66.41 14.44l-15.5 20.67h-1.77L34 14.37V49h-9V1.38h10.34l14.89 20.47L65.12 1.38h10.27V49h-9z"/></symbol><symbol id="st_r_N" viewBox="0 0 66.55 76.9"><path class="st_sides" d="M66.55 1.31h-8.98L43.45 15.46 32.28 1.31H25l-25 25v47.6h8.98L23 59.8l11.27 14.11h7.28l25-25V1.31z"/><g class="st_shadows" fill="url(#st_lg)"><path d="M8.98 73.91l25-25H25l-25 25h8.98z"/><path d="M41.55 73.91l25-25h-7.28l-25 25h7.28z"/><path d="M34.27 73.91l25-25-25.29-31.69v31.69L23 59.8l11.27 14.11z"/></g><path class="st_face" d="M57.57 33.34v-32h9v47.6h-7.3L34 17.22v31.69h-9V1.31h7.28z"/></symbol><symbol id="st_r_O" viewBox="0 0 73.89 76.9"><path class="st_sides" d="M72.46 16.27a23.48 23.48 0 0 0-4.52-8 23.2 23.2 0 0 0-7.58-5.67A25.3 25.3 0 0 0 49.68.36 26 26 0 0 0 40 2.16a23.26 23.26 0 0 0-7.85 5.1l-25 25a23.76 23.76 0 0 0-5.25 7.92A26.76 26.76 0 0 0 0 50.45a28.63 28.63 0 0 0 1.46 9.11A22.27 22.27 0 0 0 6 67.42a22 22 0 0 0 7.65 5.51A26.43 26.43 0 0 0 24.48 75a25.69 25.69 0 0 0 10.84-2.11 22.48 22.48 0 0 0 6.07-4s26-26 26.51-26.56a23.08 23.08 0 0 0 4.46-7.89 30.35 30.35 0 0 0 1.53-9 27.41 27.41 0 0 0-1.43-9.17z"/><g class="st_shadows" fill="url(#st_lg)"><path d="M60.32 47.89A25.69 25.69 0 0 1 49.48 50a26.43 26.43 0 0 1-10.88-2.07 22.48 22.48 0 0 1-7.15-5l-25 25a22.36 22.36 0 0 0 7.17 5A26.43 26.43 0 0 0 24.48 75a25.69 25.69 0 0 0 10.84-2.11 22.48 22.48 0 0 0 6.07-4S60.3 50 66.17 44.08a22.64 22.64 0 0 1-5.85 3.81z"/><path d="M56.72 10.15a15.53 15.53 0 0 0-7-1.63 16.54 16.54 0 0 0-6.8 1.33 14.27 14.27 0 0 0-5 3.63 15.77 15.77 0 0 0-3.09 5.44 18.37 18.37 0 0 0-.92 6.67 21.2 21.2 0 0 0 .95 5.81A15.32 15.32 0 0 0 37 35.77l23.12-23.19a16.16 16.16 0 0 0-3.4-2.43z"/></g><path class="st_face" d="M49.68.36A25.3 25.3 0 0 1 60.36 2.6a23.2 23.2 0 0 1 7.58 5.68 23.48 23.48 0 0 1 4.52 8 27.41 27.41 0 0 1 1.43 9.11 30.35 30.35 0 0 1-1.53 9.05 23.08 23.08 0 0 1-4.46 7.89 21.82 21.82 0 0 1-7.58 5.57A25.69 25.69 0 0 1 49.48 50a26.43 26.43 0 0 1-10.88-2.07 22 22 0 0 1-7.6-5.51 22.27 22.27 0 0 1-4.49-7.86A28.63 28.63 0 0 1 25 25.45a26.76 26.76 0 0 1 1.9-10.27 23.76 23.76 0 0 1 5.24-7.92A23.26 23.26 0 0 1 40 2.16a26 26 0 0 1 9.68-1.8zM33.84 25.59a21.2 21.2 0 0 0 .95 5.81 15.38 15.38 0 0 0 2.75 5.2 13.82 13.82 0 0 0 4.8 3.74 16.06 16.06 0 0 0 7.14 1.43 16.06 16.06 0 0 0 7.14-1.43 13.78 13.78 0 0 0 4.79-3.74 14.77 14.77 0 0 0 2.72-5.23 22.85 22.85 0 0 0 .92-5.85 20.49 20.49 0 0 0-.78-6 15.94 15.94 0 0 0-2.72-5.41 14.83 14.83 0 0 0-4.83-4 15.53 15.53 0 0 0-7-1.63 16.54 16.54 0 0 0-6.8 1.33 14.27 14.27 0 0 0-5 3.63 15.77 15.77 0 0 0-3.09 5.44 18.37 18.37 0 0 0-.99 6.71z"/></symbol><symbol id="st_r_P" viewBox="0 0 64.98 76.9"><path class="st_sides" d="M63.9 11.85a15.79 15.79 0 0 0-8.81-9.18 19.16 19.16 0 0 0-7.65-1.43H36.22L25 1.31l-25 25v47.6h9l14-14a19.19 19.19 0 0 0 7.16-1.5 16 16 0 0 0 5.47-3.84l25-25a16 16 0 0 0 3.27-5.37 18.08 18.08 0 0 0 0-12.31z"/><g class="st_shadows" fill="url(#st_lg)"><path d="M8.98 73.91l25-25H25l-25 25h8.98z"/><g><path d="M47.44 34.9H34v14l-11 11a19.19 19.19 0 0 0 7.16-1.5 16 16 0 0 0 5.47-3.84l25-25a16 16 0 0 1-5.47 3.84 19.48 19.48 0 0 1-7.72 1.5z"/><path d="M60.63 29.53c.34-.37.66-.76 1-1.16-.34.4-.63.79-1 1.16z"/><path d="M62.26 27.41c.05-.08.11-.15.15-.23z"/></g><path d="M52.2 11.07a8.46 8.46 0 0 0-4.76-1.26H34v16.87h5.86l14.1-14.11a8.79 8.79 0 0 0-1.76-1.5z"/></g><path class="st_face" d="M34 34.9v14h-9V1.31h22.44a19.16 19.16 0 0 1 7.65 1.43 15.79 15.79 0 0 1 8.81 9.18 18.08 18.08 0 0 1 0 12.31 15.86 15.86 0 0 1-8.74 9.21 19.48 19.48 0 0 1-7.72 1.53zm0-8.22h13.44a8.46 8.46 0 0 0 4.76-1.26 8.21 8.21 0 0 0 2.86-3.13 9.09 9.09 0 0 0 0-8.09 8.21 8.21 0 0 0-2.86-3.13 8.46 8.46 0 0 0-4.76-1.26H34z"/></symbol><symbol id="st_r_Q" viewBox="0 0 75.12 76.9"><path class="st_sides" d="M75.12 45.58L69.47 40a23.5 23.5 0 0 0 3.4-7.37 29.44 29.44 0 0 0-.51-17.07 22.66 22.66 0 0 0-4.45-7.82 21.78 21.78 0 0 0-7.58-5.51A26.22 26.22 0 0 0 49.48.16 25.63 25.63 0 0 0 38.6 2.3a23.3 23.3 0 0 0-6.12 4.06S6.46 32.35 6 32.94a23.14 23.14 0 0 0-4.49 8 29.15 29.15 0 0 0 0 18.22A22.94 22.94 0 0 0 5.92 67a21.65 21.65 0 0 0 7.61 5.58 26.28 26.28 0 0 0 11 2.11A24.51 24.51 0 0 0 38 71.19l5.78 5.71z"/><g class="st_shadows" fill="url(#st_lg)"><path d="M38.01 71.19l25-25 5.78 5.72-25 25-5.78-5.72z"/><path d="M56.59 9.68a15.86 15.86 0 0 0-7.11-1.43 15.7 15.7 0 0 0-7.21 1.53 14 14 0 0 0-4.86 4 16.48 16.48 0 0 0-2.75 5.47 19.91 19.91 0 0 0-.82 6 19.3 19.3 0 0 0 1 5.81 16.23 16.23 0 0 0 2.53 4.69l23.22-23.17a14.19 14.19 0 0 0-4-2.9z"/><path d="M38.53 47.62a22.22 22.22 0 0 1-6.75-4.68h-.05l-25 25a22.31 22.31 0 0 0 6.78 4.71 26.28 26.28 0 0 0 11 2.11A24.51 24.51 0 0 0 38 71.19l25-25a24.51 24.51 0 0 1-13.53 3.54 26.28 26.28 0 0 1-10.94-2.11z"/></g><path class="st_face" d="M49.48.16a26.22 26.22 0 0 1 10.85 2.07 21.78 21.78 0 0 1 7.58 5.51 22.66 22.66 0 0 1 4.45 7.82 29.44 29.44 0 0 1 .51 17.07 23.5 23.5 0 0 1-3.4 7.37l5.65 5.58-6.33 6.32L63 46.19a24.51 24.51 0 0 1-13.53 3.54 26.28 26.28 0 0 1-10.95-2.11 21.65 21.65 0 0 1-7.6-5.62 22.94 22.94 0 0 1-4.46-7.92 29.15 29.15 0 0 1 0-18.22 23.14 23.14 0 0 1 4.49-8A22.49 22.49 0 0 1 38.6 2.3 25.63 25.63 0 0 1 49.48.16zm0 8.09a15.7 15.7 0 0 0-7.21 1.53 14 14 0 0 0-4.86 4 16.48 16.48 0 0 0-2.75 5.47 19.91 19.91 0 0 0-.82 6 19.61 19.61 0 0 0 1 5.81 16.18 16.18 0 0 0 2.93 5.2A14.44 14.44 0 0 0 42.68 40a15.23 15.23 0 0 0 6.8 1.43 15.17 15.17 0 0 0 7-1.53 14.43 14.43 0 0 0 4.93-4 16.51 16.51 0 0 0 2.86-5.54 18.4 18.4 0 0 0 .78-6.12 22.79 22.79 0 0 0-1-5.71 15.21 15.21 0 0 0-2.72-5.14 13.77 13.77 0 0 0-4.72-3.7 15.86 15.86 0 0 0-7.13-1.44z"/></symbol><symbol id="st_r_R" viewBox="0 0 67.16 76.9"><path class="st_sides" d="M67.16 48.3L54.62 34.1s7.07-7.13 7.54-7.82a14 14 0 0 0 2-4.41 19.13 19.13 0 0 0 .61-4.82 16.32 16.32 0 0 0-1.09-5.9 14.09 14.09 0 0 0-3.26-5 16.44 16.44 0 0 0-5.37-3.5 19.31 19.31 0 0 0-7.42-1.32H24.99l-25 25v47.58H9l12.23-12.34 10.66 12.34h10.27l25-25z"/><g class="st_shadows" fill="url(#st_lg)"><path d="M8.98 73.91l25-25H25l-25 25h8.98z"/><path d="M42.16 73.91l25-25H56.89l-25 25h10.27z"/><path d="M31.89 73.91l25-25-13.8-15.98h-9.11v15.98L21.23 61.57l10.66 12.34z"/><path d="M53.83 12.11a7.4 7.4 0 0 0-2.55-1.72 9.32 9.32 0 0 0-3.64-.65H34v15.17h7.91l12.31-12.34c-.12-.15-.22-.31-.39-.46z"/><g><path d="M56.78 36.55l.03.03-.03-.03z"/><path d="M62.57 25.63c-.14.22-.26.44-.41.65.15-.21.27-.43.41-.65z"/><path d="M58.46 29.81A16.42 16.42 0 0 1 52.74 32l1.88 2.12s3-3 5.17-5.28a13.5 13.5 0 0 1-1.33.97z"/></g></g><path class="st_face" d="M67.16 48.91H56.89l-13.8-16H34v16h-9V1.24h22.64a19.16 19.16 0 0 1 7.42 1.33 16.26 16.26 0 0 1 5.37 3.49 14.09 14.09 0 0 1 3.26 5 16.32 16.32 0 0 1 1.09 5.9 19.13 19.13 0 0 1-.61 4.82 14 14 0 0 1-2 4.41 12.78 12.78 0 0 1-3.7 3.53A16.42 16.42 0 0 1 52.74 32l14.42 16.3zM34 9.74v15.17h13.64a9.84 9.84 0 0 0 3.68-.64 7.06 7.06 0 0 0 2.55-1.73 7.15 7.15 0 0 0 1.46-2.44 8.43 8.43 0 0 0 0-5.55 7 7 0 0 0-1.5-2.44 7.4 7.4 0 0 0-2.55-1.72 9.32 9.32 0 0 0-3.64-.65z"/></symbol><symbol id="st_r_S" viewBox="0 0 65.73 76.9"><path class="st_sides" d="M64.13 28.29a12.67 12.67 0 0 0-4.25-4.39 19.79 19.79 0 0 0-6.12-2.48c-.41-.1-.85-.17-1.27-.26L64.24 9.45a15.19 15.19 0 0 0-3.4-4.55A16.76 16.76 0 0 0 56.31 2 21.9 21.9 0 0 0 51.08.44 35.57 35.57 0 0 0 45.54 0 27 27 0 0 0 39 .82a20.26 20.26 0 0 0-6 2.48c-.9.57-27.31 26.82-27.34 26.86a13 13 0 0 0-1.94 2.42 11.64 11.64 0 0 0-1.63 6.29 12.6 12.6 0 0 0 1.56 6.6 12.38 12.38 0 0 0 4.15 4.18 19.31 19.31 0 0 0 4.34 2L0 63.76a17.84 17.84 0 0 0 3.33 5.51A16.51 16.51 0 0 0 8 72.87a21.33 21.33 0 0 0 5.85 2 36.33 36.33 0 0 0 6.87.62 31.91 31.91 0 0 0 7.58-.89 19.65 19.65 0 0 0 6.39-2.72 13.76 13.76 0 0 0 2.5-2.11S63.54 43.14 64.1 42.16a13.59 13.59 0 0 0 1.63-6.87 13.64 13.64 0 0 0-1.6-7z"/><g class="st_shadows" fill="url(#st_lg)"><g><path d="M53.32 49.57a31.91 31.91 0 0 1-7.58.89 36.33 36.33 0 0 1-6.87-.62 21.33 21.33 0 0 1-5.85-2 16.51 16.51 0 0 1-4.69-3.6A17.84 17.84 0 0 1 25 38.76L12.15 51.61 0 63.76a17.84 17.84 0 0 0 3.33 5.51A16.51 16.51 0 0 0 8 72.87a21.33 21.33 0 0 0 5.85 2 36.33 36.33 0 0 0 6.87.62 31.91 31.91 0 0 0 7.58-.89 19.65 19.65 0 0 0 6.39-2.72 13.76 13.76 0 0 0 2.5-2.11s14.81-15 22.47-22.89a19.74 19.74 0 0 1-6.34 2.69z"/></g><path d="M33 36a10.08 10.08 0 0 0 1.67 2.33 11.59 11.59 0 0 0 3.12 2.35A15 15 0 0 0 41.63 42a20.65 20.65 0 0 0 3.79.42l10.33-10.34a7 7 0 0 0-2-1.72A13.29 13.29 0 0 0 50.19 29a36.51 36.51 0 0 0-4.38-.75 54.62 54.62 0 0 1-7-1.23 20.12 20.12 0 0 1-6-2.41A12.33 12.33 0 0 1 30.7 23l-25 25a12.46 12.46 0 0 0 2.13 1.67 19.31 19.31 0 0 0 4.34 2L25 38.76l7.48-3.88z"/><path d="M55.36 11.15a13.89 13.89 0 0 0-2.58-1.7 15.18 15.18 0 0 0-3.27-1.19 15.68 15.68 0 0 0-3.7-.44q-5 0-7.45 1.84A5.46 5.46 0 0 0 36 14.14a3.89 3.89 0 0 0 .85 2.59 6.38 6.38 0 0 0 2.31 1.7 14.84 14.84 0 0 0 3.37 1.05c1.26.25 2.63.47 4.08.65 1 .13 2 .3 3.06.47l7.48-7.48a8.21 8.21 0 0 0-1.79-1.97z"/><path d="M49.63 20.59c1 .17 1.94.36 2.89.56l11.72-11.7-7.14 3.67z"/></g><path class="st_face" d="M57.1 13.12a8.21 8.21 0 0 0-1.74-2 13.89 13.89 0 0 0-2.58-1.7 15.18 15.18 0 0 0-3.27-1.19 15.68 15.68 0 0 0-3.7-.44q-5 0-7.45 1.84A5.46 5.46 0 0 0 36 14.14a3.89 3.89 0 0 0 .85 2.59 6.38 6.38 0 0 0 2.31 1.7 14.84 14.84 0 0 0 3.37 1.05c1.26.25 2.63.47 4.08.65a71.86 71.86 0 0 1 7.2 1.29 19.79 19.79 0 0 1 6.12 2.48 12.67 12.67 0 0 1 4.25 4.39 13.64 13.64 0 0 1 1.6 7 13.59 13.59 0 0 1-1.63 6.87 13.78 13.78 0 0 1-4.39 4.69 19.65 19.65 0 0 1-6.39 2.72 31.91 31.91 0 0 1-7.58.89 36.33 36.33 0 0 1-6.87-.62 21.33 21.33 0 0 1-5.85-2 16.51 16.51 0 0 1-4.69-3.6A17.84 17.84 0 0 1 25 38.76l7.48-3.88a10.73 10.73 0 0 0 2.18 3.4 11.59 11.59 0 0 0 3.12 2.35A15 15 0 0 0 41.63 42a19.9 19.9 0 0 0 4.25.44 21.88 21.88 0 0 0 4.12-.38 11.1 11.1 0 0 0 3.5-1.26 7.6 7.6 0 0 0 2.45-2.21 5.66 5.66 0 0 0 .91-3.3A5 5 0 0 0 56 32.4a7 7 0 0 0-2.31-2 13.29 13.29 0 0 0-3.5-1.4 36.51 36.51 0 0 0-4.38-.75 54.62 54.62 0 0 1-7-1.23 20.12 20.12 0 0 1-6-2.41 12.38 12.38 0 0 1-4.15-4.18 12.6 12.6 0 0 1-1.56-6.6 11.64 11.64 0 0 1 1.63-6.29A13.46 13.46 0 0 1 33 3.3a20.26 20.26 0 0 1 6-2.48A27 27 0 0 1 45.54 0a35.57 35.57 0 0 1 5.54.44A21.9 21.9 0 0 1 56.31 2a16.76 16.76 0 0 1 4.53 2.9 15.19 15.19 0 0 1 3.4 4.55z"/></symbol><symbol id="st_r_T" viewBox="0 0 64.17 76.9"><path class="st_sides" d="M64.17 1.32H25l-25 25v8.16h15.1v39.44h8.97l25-25V24.48l15.1-15V1.32z"/><g class="st_shadows" fill="url(#st_lg)"><path d="M24.07 73.92l25-25H40.1l-25 25h8.97z"/><path d="M15.1 34.48l25-25H25l-25 25h15.1z"/><path d="M49.07 24.48l15.1-15h-15.1v15z"/></g><path class="st_face" d="M40.1 9.48H25V1.32h39.17v8.16h-15.1v39.44h-9z"/></symbol><symbol id="st_r_U" viewBox="0 0 66.75 76.9"><path class="st_sides" d="M57.84 1.38l-23.93 24v-24H25l-25 25v27.27A24 24 0 0 0 1.7 63a18.85 18.85 0 0 0 4.59 6.7A18.57 18.57 0 0 0 13 73.64a25.09 25.09 0 0 0 8.13 1.3 24.38 24.38 0 0 0 8.26-1.36 18.2 18.2 0 0 0 6.53-4l25-25a18 18 0 0 0 4.28-6.63 25.75 25.75 0 0 0 1.53-9.28V1.38z"/><path class="st_face" d="M66.75 1.38v27.27a25.75 25.75 0 0 1-1.53 9.28 18 18 0 0 1-4.28 6.63 18.2 18.2 0 0 1-6.53 4 24.38 24.38 0 0 1-8.26 1.36A25.09 25.09 0 0 1 38 48.64a18.57 18.57 0 0 1-6.73-3.94A18.85 18.85 0 0 1 26.7 38a24 24 0 0 1-1.7-9.35V1.38h8.91v27.27q0 6.47 3.36 9.79a12.15 12.15 0 0 0 8.95 3.34q5.56 0 8.6-3.47t3-9.66V1.38z"/><g class="st_shadows" fill="url(#st_lg)"><path d="M46.15 49.94a25.09 25.09 0 0 1-8.15-1.3 18.57 18.57 0 0 1-6.73-3.94 16.88 16.88 0 0 1-1.61-1.7l-25 25a17.08 17.08 0 0 0 1.63 1.7A18.57 18.57 0 0 0 13 73.64a25.09 25.09 0 0 0 8.13 1.3 24.38 24.38 0 0 0 8.26-1.36 18.2 18.2 0 0 0 6.53-4l25-25a18.2 18.2 0 0 1-6.53 4 24.38 24.38 0 0 1-8.24 1.36z"/></g></symbol><symbol id="st_r_V" viewBox="0 0 73.89 76.9"><path class="st_sides" d="M73.89 1.32H63.83L43.11 22.09 35.06 1.32H25l-25 25 19.79 47.8h9.31l25-25 19.79-47.8z"/><g class="st_shadows" fill="url(#st_lg)"><path d="M19.79 74.12l25-25L25 1.32l-25 25 19.79 47.8z"/><path d="M29.1 74.12l25-25h-9.31l-25 25h9.31z"/></g><path class="st_face" d="M54.1 49.12h-9.31L25 1.32h10.06l14.35 37.06L63.83 1.32h10.06z"/></symbol><symbol id="st_r_W" viewBox="0 0 96.54 76.9"><path class="st_sides" d="M96.54 1.32H86.47l-16.9 16.96-5.88-16.96h-5.85L40.68 18.5 35.06 1.32H25l-25 25 17.48 47.6h7.61l15.57-15.59.21.63 5.91 14.96h7.62l25-25 17.14-47.6z"/><g class="st_shadows" fill="url(#st_lg)"><path d="M25.09 73.92l25-25h-7.61l-25 25h7.61z"/><path d="M54.4 73.92l25-25h-7.62l-25 25h7.62z"/><path d="M17.48 73.92l25-25L25 1.32l-25 25 17.48 47.6z"/><path d="M46.78 73.92l25-25-10.94-29.99-10.75 29.99-9.43 9.41 6.12 15.59z"/></g><path class="st_face" d="M79.4 48.92h-7.62L65.87 34l-5-15-5 15.16-5.78 14.76h-7.61L25 1.32h10.06l11.22 34.34L57.84 1.32h5.85l11.9 34.34L86.47 1.32h10.07z"/></symbol><symbol id="st_r_X" viewBox="0 0 69.47 76.9"><path class="st_sides" d="M69.47 48.64l-16.59-23.8L69 1.72v-.4h-9.86L44.89 15.57 35.34 1.32h-9.86l-25 25.4 16.04 23.12L0 73.64v.28h10.06l14.48-14.51 9.87 14.51h10.06l25-25v-.28z"/><g class="st_shadows" fill="url(#st_lg)"><path d="M10.06 73.92l25-25H25l-25 25h10.06z"/><path d="M44.47 73.92l25-25H59.41l-25 25h10.06z"/><path d="M16.52 49.84l25-25L25.48 1.72l-25 25 16.04 23.12z"/></g><path class="st_face" d="M59.14 1.32H69v.4L52.88 24.84l16.59 23.8v.28H59.41L47.24 31 35.06 48.92H25v-.28l16.52-23.8-16-23.12v-.4h9.86l11.9 17.74z"/></symbol><symbol id="st_r_Y" viewBox="0 0 71.24 76.9"><path class="st_sides" d="M60.43 1.32L45.12 16.64 35.68 1.32H25l-25 25v.4l18.29 27.54v19.66h8.98l25-25V29.26L71.24 1.72v-.4H60.43z"/><g class="st_shadows" fill="url(#st_lg)"><path d="M27.27 73.92l25-25h-8.98l-25 25h8.98z"/><path d="M18.29 54.26l25-25L25 1.72l-25 25 18.29 27.54z"/></g><path class="st_face" d="M47.78 21L60.43 1.32h10.81v.4l-19 27.54v19.66h-9V29.26L25 1.72v-.4h10.68z"/></symbol><symbol id="st_r_Z" viewBox="0 0 62.2 76.9"><path class="st_sides" d="M62.2 1.32H26.22l-25 25v8.22h22.92L0 68.79v5.13h37.2l25-25v-8.44H37.51L62.2 5.53V1.32z"/><g class="st_shadows" fill="url(#st_lg)"><path d="M37.2 73.92l25-25H25l-25 25h37.2z"/><path d="M49.14 9.54l-25 25H1.22l25-25h22.92z"/></g><path class="st_face" d="M26.22 1.32h36v4.21L37.51 40.48H62.2v8.44H25v-5.13L49.14 9.54H26.22z"/></symbol><symbol id="st_r__x2026_" data-name="" viewBox="0 0 65.8 76.9"><path class="st_sides" d="M33.26 48.27s-24.95 25-25 25a5.35 5.35 0 0 1-6.73 0 5.09 5.09 0 0 1 0-7.28l25-25a5.35 5.35 0 0 1 6.73 0 4.32 4.32 0 0 1 1.53 3.64 4.34 4.34 0 0 1-1.53 3.64zm17-3.64A4.32 4.32 0 0 0 48.77 41 5.37 5.37 0 0 0 42 41L17 66a5.09 5.09 0 0 0 0 7.28 5.37 5.37 0 0 0 6.74 0l25-25a4.34 4.34 0 0 0 1.56-3.65zm15.5 0A4.32 4.32 0 0 0 64.27 41a5.35 5.35 0 0 0-6.73 0l-25 25a5.09 5.09 0 0 0 0 7.28 5.35 5.35 0 0 0 6.73 0l25-25a4.34 4.34 0 0 0 1.53-3.65z"/><g class="st_shadows" fill="url(#st_lg)"><path d="M26.53 48.27a3.73 3.73 0 0 1-.87-1l-25 25a3.81 3.81 0 0 0 .88 1 5.35 5.35 0 0 0 6.73 0c.05 0 25-25 25-25a5.35 5.35 0 0 1-6.73 0z"/><path d="M42.07 48.27a3.77 3.77 0 0 1-.88-1l-25 25a3.77 3.77 0 0 0 .87 1 5.37 5.37 0 0 0 6.74 0l25-25a5.35 5.35 0 0 1-6.73 0z"/><path d="M57.52 48.27a3.91 3.91 0 0 1-.87-1l-25 25a4 4 0 0 0 .88 1 5.35 5.35 0 0 0 6.73 0l25-25a5.35 5.35 0 0 1-6.73 0z"/></g><path class="st_face" d="M25 44.63A4.32 4.32 0 0 1 26.53 41a5.35 5.35 0 0 1 6.73 0 4.32 4.32 0 0 1 1.53 3.64 4.34 4.34 0 0 1-1.53 3.64 5.35 5.35 0 0 1-6.73 0A4.34 4.34 0 0 1 25 44.63zm15.5 0A4.32 4.32 0 0 1 42 41a5.37 5.37 0 0 1 6.74 0 4.32 4.32 0 0 1 1.53 3.64 4.34 4.34 0 0 1-1.53 3.64 5.37 5.37 0 0 1-6.74 0 4.34 4.34 0 0 1-1.5-3.65zm15.51 0A4.32 4.32 0 0 1 57.54 41a5.35 5.35 0 0 1 6.73 0 4.32 4.32 0 0 1 1.53 3.64 4.34 4.34 0 0 1-1.53 3.64 5.35 5.35 0 0 1-6.73 0A4.34 4.34 0 0 1 56 44.63z"/></symbol></svg>