<svg xmlns="http://www.w3.org/2000/svg" viewBox="0 0 488.1 299.7"><path d="M324.1 0c3.8 79.9 44.2 150.4 104.9 195l17.8-58.7C409.1 102.2 384.4 54 381.1 0h-57z"/><path d="M243.1 0c4.2 116.7 67.7 218.5 161.3 276l17.2-56.7C351.2 170.7 303.9 90.9 300 0h-56.9z"/><path d="M162 0c3.4 118.9 56.6 225.4 139.4 299.7h95.7C293.7 238.6 223.2 127.6 219 0h-57zM0 0c2.3 110.1 35.3 212.7 90.9 299.7h69C97.4 215.5 59.5 112.1 56.9 0H0z"/><path d="M81 0c2.7 113.1 43.2 217.1 109.3 299.7l25.8-60.5C168.8 170.9 140.3 88.7 137.8 0H81zm324.2 0c2.9 42.8 21.2 81.4 49.4 110.4L488.1 0h-82.9zm-24.1 0h-57c3.8 79.9 44.2 150.4 104.9 195l17.8-58.7C409 102.2 384.3 54 381.1 0"/><path d="M300 0h-56.9c4.2 116.7 67.7 218.5 161.3 276l17.2-56.7C351.2 170.8 303.9 90.9 300 0"/><path d="M218.9 0H162c3.4 118.9 56.6 225.4 139.4 299.7h95.7C293.7 238.6 223.2 127.6 218.9 0M0 0c2.3 110.1 35.3 212.7 90.9 299.7h69C97.4 215.5 59.4 112.1 56.9 0H0z"/><path d="M81 0c2.7 113.1 43.2 217.1 109.3 299.7l25.8-60.5C168.8 170.9 140.3 88.7 137.8 0H81zm324.2 0c2.9 42.8 21.2 81.4 49.4 110.4L488.1 0h-82.9z"/></svg>