<?xml version="1.0" encoding="utf-8"?>
<!-- Generator: Adobe Illustrator 22.1.0, SVG Export Plug-In . SVG Version: 6.00 Build 0)  -->
<!DOCTYPE svg PUBLIC "-//W3C//DTD SVG 1.1//EN" "http://www.w3.org/Graphics/SVG/1.1/DTD/svg11.dtd" [
	<!ENTITY st0 "fill:#6A2774;">
]>
<svg version="1.1" id="Layer_1" xmlns="http://www.w3.org/2000/svg" xmlns:xlink="http://www.w3.org/1999/xlink" x="0px" y="0px"
	 viewBox="0 0 315.8 58.5" style="enable-background:new 0 0 315.8 58.5;" xml:space="preserve">
<g>
	<path style="&st0;" d="M100.5,53.9l1.2,2.6h-2.4L100.5,53.9z M100.4,53.6l-2.1,4.6h0.4l0.6-1.3h2.7l0.6,1.3h0.4l-2.1-4.6H100.4z
		 M115.7,58.1h-1.5v-4.5h1.5c1.4,0,2.4,1,2.4,2.3C118.1,57.1,117.1,58.1,115.7,58.1 M117.8,55.9c0-1.1-0.8-2-2.1-2h-1.2v3.9h1.2
		C117,57.8,117.8,57,117.8,55.9z M123.6,53.6h0.3v4.6h-0.3V53.6z M131.4,58.2h-0.3l-2-4.6h0.4l1.8,4.2l1.8-4.2h0.3L131.4,58.2z
		 M138.7,53.6h0.3v4.6h-0.3V53.6z M146.2,58.2c-0.7,0-1.3-0.2-1.8-0.7l0.2-0.3c0.5,0.5,1,0.7,1.6,0.7c0.7,0,1.2-0.4,1.2-0.9
		s-0.3-0.8-1.3-1c-1.1-0.2-1.5-0.6-1.5-1.3s0.6-1.2,1.5-1.2c0.7,0,1.1,0.2,1.6,0.6l-0.2,0.3c-0.4-0.4-0.9-0.5-1.4-0.5
		c-0.7,0-1.1,0.4-1.1,0.9s0.2,0.8,1.3,1s1.5,0.6,1.5,1.3C147.7,57.7,147.1,58.2,146.2,58.2 M153.1,53.6h0.3v4.6h-0.3V53.6z
		 M161.1,58.2c-1.4,0-2.3-1.1-2.3-2.3s0.9-2.4,2.3-2.4s2.3,1.1,2.3,2.3C163.4,57.1,162.5,58.2,161.1,58.2 M163.1,55.9
		c0-1.1-0.8-2-1.9-2s-1.9,0.9-1.9,2s0.8,2,1.9,2S163.1,57,163.1,55.9z M172.3,58.1l-3.2-4v4h-0.3v-4.5h0.3l3.2,4v-4h0.3v4.5H172.3z
		 M186.4,58.2c-1.4,0-2.3-1.1-2.3-2.3s0.9-2.4,2.3-2.4s2.3,1.1,2.3,2.3C188.7,57.1,187.8,58.2,186.4,58.2 M188.4,55.9
		c0-1.1-0.8-2-1.9-2s-1.9,0.9-1.9,2s0.8,2,1.9,2S188.4,57,188.4,55.9z M194.4,53.9v1.9h2.6v0.3h-2.6v2h-0.3v-4.5h3.2v0.3H194.4z
		 M210.8,58.2c-1.3,0-2.3-1-2.3-2.3s1-2.4,2.3-2.4c0.8,0,1.3,0.3,1.8,0.7l-0.2,0.2c-0.4-0.4-0.9-0.7-1.5-0.7c-1.1,0-1.9,0.9-1.9,2
		c0,1.2,0.8,2,1.9,2c0.7,0,1.1-0.3,1.6-0.7l0.2,0.2C212.2,57.9,211.6,58.2,210.8,58.2 M219.6,58.2c-1.1,0-1.9-0.7-1.9-2v-2.7h0.3
		v2.6c0,1.1,0.6,1.7,1.5,1.7s1.5-0.6,1.5-1.7v-2.7h0.3V56C221.5,57.5,220.7,58.2,219.6,58.2 M230.9,58.1v-3.9l-1.8,2.6l-1.8-2.6v3.9
		H227v-4.5h0.3l1.8,2.7l1.8-2.7h0.4v4.5H230.9z M238.6,58.2c-1.1,0-1.9-0.7-1.9-2v-2.7h0.3v2.6c0,1.1,0.6,1.7,1.5,1.7
		s1.5-0.6,1.5-1.7v-2.7h0.3V56C240.5,57.5,239.7,58.2,238.6,58.2 M246,58.1v-4.5h0.3v4.2h2.7v0.3H246z M255.9,58.2
		c-1.1,0-1.9-0.7-1.9-2v-2.7h0.3v2.6c0,1.1,0.6,1.7,1.5,1.7s1.5-0.6,1.5-1.7v-2.7h0.3V56C257.8,57.5,257,58.2,255.9,58.2
		 M264.8,58.2c-0.7,0-1.3-0.2-1.8-0.7l0.2-0.3c0.5,0.5,1,0.7,1.6,0.7c0.7,0,1.2-0.4,1.2-0.9s-0.3-0.8-1.3-1
		c-1.1-0.2-1.5-0.6-1.5-1.3s0.6-1.2,1.5-1.2c0.7,0,1.1,0.2,1.6,0.6l-0.2,0.3c-0.4-0.4-0.9-0.5-1.4-0.5c-0.7,0-1.1,0.4-1.1,0.9
		s0.2,0.8,1.3,1s1.5,0.6,1.5,1.3C266.4,57.7,265.7,58.2,264.8,58.2 M281.8,58.1v-3.9l-1.8,2.6l-1.8-2.6v3.9h-0.3v-4.5h0.3l1.8,2.7
		l1.8-2.7h0.4v4.5H281.8z M287.7,58.1v-4.5h3.3v0.3h-2.9v1.8h2.6V56h-2.6v1.8h2.9v0.3L287.7,58.1z M297.8,58.1h-1.5v-4.5h1.5
		c1.4,0,2.4,1,2.4,2.3C300.3,57.1,299.3,58.1,297.8,58.1 M299.9,55.9c0-1.1-0.8-2-2.1-2h-1.2v3.9h1.2
		C299.1,57.8,299.9,57,299.9,55.9z M305.7,53.6h0.3v4.6h-0.3V53.6z M315.5,58.1l-0.6-1.3h-2.7l-0.6,1.3h-0.4l2.1-4.6h0.3l2.1,4.6
		H315.5z M313.5,53.9l-1.2,2.6h2.4L313.5,53.9z M62.9,0.2c0.7,15.6,8.6,29.2,20.4,37.9l3.5-11.4c-7.3-6.6-12.1-16-12.8-26.5H62.9z"
		/>
	<path style="&st0;" d="M47.2,0.2C48,22.9,60.3,42.7,78.5,53.9l3.3-11C68.1,33.4,59,17.9,58.2,0.2H47.2z"/>
	<path style="&st0;" d="M31.4,0.2c0.6,23.1,11,43.8,27,58.3H77C57,46.6,43.3,25,42.5,0.2H31.4z M0,0.2c0.4,21.4,6.8,41.3,17.6,58.3
		H31C18.9,42.1,11.5,22,11,0.2H0z"/>
	<path style="&st0;" d="M15.7,0.2c0.5,22,8.4,42.2,21.2,58.3l5-11.8C32.8,33.4,27.2,17.5,26.8,0.2H15.7z M78.6,0.2
		c0.6,8.3,4.1,15.8,9.6,21.5l6.5-21.5H78.6z M121.6,21.2h-2.9l-2.8-7.4l-2.3-6.9l-2.2,7l-2.8,7.3h-2.8L98.3,0.5h3.7l5.2,15.9
		l5.3-15.9h2.2l5.4,15.9l5.2-15.9h3.7L121.6,21.2z M141.1,12.4c-0.2-2.3-1.8-3.5-4.3-3.5c-2.3,0-4.1,1.2-4.5,3.5H141.1z M132.2,15
		c0.2,2.3,2.1,3.7,4.8,3.7c1.5,0,3.3-0.5,4.2-1.6l2,1.9c-1.5,1.7-4,2.5-6.2,2.5c-4.8,0-7.8-3-7.8-7.7c0-4.4,3.1-7.6,7.6-7.6
		c4.7,0,7.9,2.9,7.3,8.8H132.2z M156.4,10.1c-1.1-1.1-2.4-1.4-3.8-1.4c-1.9,0-3.1,0.6-3.1,1.7c0,1.2,1.3,1.6,3.2,1.8
		c2.7,0.2,6.2,0.8,6.2,4.6c0,2.7-2.5,4.6-6.2,4.6c-2.4,0-4.7-0.5-6.6-2.7l1.6-2.1c1.4,1.5,3.4,2.1,5.1,2.1c1.4,0,3.1-0.5,3.1-1.9
		c0-1.3-1.2-1.8-3.4-2c-2.7-0.2-5.9-1.2-5.9-4.4s3.3-4.4,6-4.4c2.3,0,3.9,0.5,5.6,1.9L156.4,10.1z M166.5,2.3v4.2h4.3v2.6h-4.3V16
		c0,1.5,0.7,2.4,2.1,2.4c0.6,0,1.3-0.2,1.8-0.5l0.9,2.6c-1,0.5-1.9,0.7-2.9,0.7c-3.2,0.1-5-1.7-5-5.1V9.2h-2.8V6.6h2.8V2.7
		L166.5,2.3z M185.6,6.5l3.5,11.5l3.6-11.5h3.4L191,21.2h-3.5l-1.7-4.8l-1.5-5.1l-1.4,5.1l-1.7,4.8h-3.6l-5.1-14.7h3.4l3.6,11.5
		L183,6.5H185.6z M200.5,13.8c0,2.6,1.7,4.8,4.5,4.8s4.5-2.1,4.5-4.8c0-2.6-1.8-4.8-4.5-4.8C202.2,9.1,200.5,11.3,200.5,13.8
		 M212.5,13.8c0,4.4-3,7.6-7.6,7.6s-7.5-3.2-7.5-7.6c0-4.3,3-7.6,7.5-7.6S212.5,9.6,212.5,13.8 M217.8,13.8c0,2.6,1.7,4.8,4.5,4.8
		s4.5-2.1,4.5-4.8c0-2.6-1.8-4.8-4.5-4.8C219.6,9.1,217.8,11.3,217.8,13.8 M229.9,13.8c0,4.4-3,7.6-7.6,7.6s-7.5-3.2-7.5-7.6
		c0-4.3,3-7.6,7.5-7.6S229.9,9.6,229.9,13.8 M235.2,13.8c0,3,2,4.8,4.6,4.8c2.5,0,4.6-1.9,4.6-4.8c0-2.8-2.1-4.7-4.6-4.7
		S235.2,10.8,235.2,13.8 M247.7,0.5v20.7h-2.9l-0.2-2.3c-1.1,1.8-3.1,2.6-5,2.6c-4.2,0-7.4-2.8-7.4-7.6c0-5,3.2-7.6,7.4-7.6
		c1.8,0,4.1,0.9,5.1,2.6V0.5H247.7z M269,18.5c5.1,0,7.3-3.7,7.3-7.6c0-3.8-2.1-7.8-7.2-7.8c-4.8,0-7.3,3.3-7.3,7.8
		C261.8,14.6,263.9,18.5,269,18.5 M279.6,10.8c0,5.6-3.4,10.7-10.5,10.7s-10.5-5.2-10.5-10.7C258.6,4.5,263,0,269.2,0
		C276.1,0,279.6,5.3,279.6,10.8 M293.8,21.1v-7.8c0-2.5-1.4-4.3-3.9-4.3s-4.1,2.1-4.1,4.4V21h-3V6.5h2.8l0.2,2.1
		c1.4-1.6,3-2.4,4.9-2.4c3.5,0,6.2,2.5,6.2,7V21L293.8,21.1z M311.9,12.4c-0.2-2.3-1.8-3.5-4.3-3.5c-2.3,0-4.1,1.2-4.5,3.5H311.9z
		 M303,15c0.2,2.3,2.1,3.7,4.8,3.7c1.5,0,3.3-0.5,4.2-1.6l2,1.9c-1.5,1.7-4,2.5-6.2,2.5c-4.8,0-7.8-3-7.8-7.7c0-4.4,3.1-7.6,7.6-7.6
		c4.7,0,7.9,2.9,7.3,8.8H303z M99.7,27.8v9.8h6.9c6.4,0,6.4-9.8,0-9.8H99.7z M99.7,39v6.6h-1.5V26.5h8.4c8.3,0,8.3,12.5,0,12.5H99.7
		z M127.1,38.9c0-3.5-2.5-5.8-5.6-5.8s-5.6,2.3-5.6,5.8s2.5,5.6,5.6,5.6S127.1,42.4,127.1,38.9 M114.7,38.9c0-4.3,3.1-7,6.8-7
		c3.8,0,6.8,2.7,6.8,7s-3.1,6.9-6.8,6.9S114.7,43.2,114.7,38.9 M132.1,38.8c0,3.7,2.5,5.7,5.5,5.7c3.1,0,5.5-2.3,5.5-5.7
		s-2.4-5.7-5.5-5.7C134.6,33.1,132.1,35.1,132.1,38.8 M144.5,26.5v19.1h-1.3v-3c-1.1,2.1-3.3,3.2-5.6,3.2c-3.8,0-6.8-2.5-6.8-7
		s3-7,6.8-7c2.3,0,4.5,1,5.6,3.2v-8.6L144.5,26.5z M159.4,43.7c-1.4,1.4-3.2,2-4.9,2c-3.8,0-6.9-2.7-6.9-6.9s3-6.9,6.9-6.9
		c1.8,0,3.6,0.7,4.9,2l-0.9,0.9c-1.1-1.1-2.6-1.6-4.1-1.6c-3.1,0-5.6,2-5.6,5.6c0,3.7,2.6,5.6,5.6,5.6c1.5,0,2.9-0.6,4-1.7
		L159.4,43.7z M162.7,38.8c0,3.4,2.5,5.7,5.5,5.7c7.5,0,7.5-11.3,0-11.3C165.2,33.2,162.7,35.5,162.7,38.8 M175.1,32.1v13.5h-1.3
		v-2.9c-1.3,2.1-3.3,3.1-5.5,3.1c-3.8,0-6.8-2.8-6.8-7s3.1-6.9,6.8-6.9c2.2,0,4.4,1,5.5,3.1v-3L175.1,32.1z M188.1,34.5
		c-1.4-1.2-2.7-1.4-4.2-1.4c-2.1,0-4.1,0.8-4.1,2.5c0,1.8,2.4,2.1,4.1,2.5c2.4,0.4,5.7,0.8,5.6,4c-0.1,3-3.1,3.8-5.6,3.8
		c-2.4,0-4.7-0.9-5.9-2.7l1-0.9c1.1,1.6,3.1,2.3,4.9,2.3c1.6,0,4.1-0.5,4.2-2.6c0-2-2.2-2.3-4.4-2.7c-2.6-0.5-5.2-0.9-5.2-3.7
		c0-2.7,2.6-3.8,5.3-3.8c2,0,3.7,0.5,5,1.8L188.1,34.5z M195.5,28v4.1h4.6v1.1h-4.6v8.2c0,1.8,0.4,3.1,2.5,3.1
		c0.6,0,1.4-0.2,2.1-0.5l0.5,1.1c-0.9,0.4-1.7,0.7-2.6,0.7c-2.9,0-3.8-1.7-3.8-4.3v-8.2h-2.9v-1.1h2.9v-3.9L195.5,28z M211.6,26.5
		l12.9,15.8V26.5h1.5v19.1h-0.6l-13-15.8v15.8H211V26.5L211.6,26.5z M241.5,38.3c0-3.3-2.2-5.2-5.5-5.2c-2.8,0-5.2,1.9-5.5,5.2
		H241.5z M229.2,38.8c0-4.1,3.1-7,6.8-7s7.2,2.3,6.7,7.6h-12.2c0.3,3.2,2.7,5,5.5,5c1.8,0,3.8-0.7,4.9-2.1l1,0.8
		c-1.3,1.7-3.7,2.6-5.8,2.6C232.3,45.8,229.2,43.1,229.2,38.8 M248.7,28v4.1h4.6v1.1h-4.6v8.2c0,1.8,0.4,3.1,2.5,3.1
		c0.6,0,1.4-0.2,2.1-0.5l0.5,1.1c-0.9,0.4-1.7,0.7-2.6,0.7c-2.9,0-3.8-1.7-3.8-4.3v-8.2h-2.9v-1.1h2.9v-3.9L248.7,28z M270.4,45.6
		h-1.5l-2.2-5.9l-1.6-5.2l-1.7,5.3l-2.2,5.9h-1.5l-4.8-13.6h1.5l4.1,12l4.1-12h0.9l4.1,12l4.1-12h1.5L270.4,45.6z M289.1,38.9
		c0-3.5-2.5-5.8-5.6-5.8s-5.6,2.3-5.6,5.8s2.5,5.6,5.6,5.6S289.1,42.4,289.1,38.9 M276.7,38.9c0-4.3,3.1-7,6.8-7s6.8,2.7,6.8,7
		s-3.1,6.9-6.8,6.9S276.7,43.2,276.7,38.9 M294.8,32.1v2.4c0.9-1.8,2.8-2.6,4.5-2.6c1,0,2,0.2,2.9,0.8l-0.6,1.1
		c-0.7-0.5-1.5-0.6-2.3-0.6c-2.5,0-4.5,2.1-4.5,4.5v7.9h-1.3V32.1H294.8z M305.6,26.5V38l6.4-5.9h1.7v0.1l-6.8,6.3l7.6,7v0.1h-1.7
		l-7.2-6.6v6.6h-1.4V26.5L305.6,26.5z"/>
</g>
</svg>
