<svg viewBox="0 0 315.8 58.5" xmlns="http://www.w3.org/2000/svg"><g fill="#fff"><path d="M100.5 53.9l1.2 2.6h-2.4zm-.1-.3l-2.1 4.6h.4l.6-1.3h2.7l.6 1.3h.4l-2.1-4.6zm15.3 4.5h-1.5v-4.5h1.5c1.4 0 2.4 1 2.4 2.3 0 1.2-1 2.2-2.4 2.2m2.1-2.2c0-1.1-.8-2-2.1-2h-1.2v3.9h1.2c1.3 0 2.1-.8 2.1-1.9zm5.8-2.3h.3v4.6h-.3zm7.8 4.6h-.3l-2-4.6h.4l1.8 4.2 1.8-4.2h.3zm7.3-4.6h.3v4.6h-.3zm7.5 4.6c-.7 0-1.3-.2-1.8-.7l.2-.3c.5.5 1 .7 1.6.7.7 0 1.2-.4 1.2-.9s-.3-.8-1.3-1c-1.1-.2-1.5-.6-1.5-1.3 0-.7.6-1.2 1.5-1.2.7 0 1.1.2 1.6.6l-.2.3c-.4-.4-.9-.5-1.4-.5-.7 0-1.1.4-1.1.9s.2.8 1.3 1 1.5.6 1.5 1.3c-.1.6-.7 1.1-1.6 1.1m6.9-4.6h.3v4.6h-.3zm8 4.6c-1.4 0-2.3-1.1-2.3-2.3 0-1.2.9-2.4 2.3-2.4s2.3 1.1 2.3 2.3c0 1.3-.9 2.4-2.3 2.4m2-2.3c0-1.1-.8-2-1.9-2s-1.9.9-1.9 2 .8 2 1.9 2 1.9-.9 1.9-2zm9.2 2.2l-3.2-4v4h-.3v-4.5h.3l3.2 4v-4h.3v4.5zm14.1.1c-1.4 0-2.3-1.1-2.3-2.3 0-1.2.9-2.4 2.3-2.4s2.3 1.1 2.3 2.3c0 1.3-.9 2.4-2.3 2.4m2-2.3c0-1.1-.8-2-1.9-2s-1.9.9-1.9 2 .8 2 1.9 2 1.9-.9 1.9-2zm6-2v1.9h2.6v.3h-2.6v2h-.3v-4.5h3.2v.3zm16.4 4.3c-1.3 0-2.3-1-2.3-2.3 0-1.3 1-2.4 2.3-2.4.8 0 1.3.3 1.8.7l-.2.2c-.4-.4-.9-.7-1.5-.7-1.1 0-1.9.9-1.9 2 0 1.2.8 2 1.9 2 .7 0 1.1-.3 1.6-.7l.2.2c-.5.7-1.1 1-1.9 1m8.8 0c-1.1 0-1.9-.7-1.9-2v-2.7h.3v2.6c0 1.1.6 1.7 1.5 1.7s1.5-.6 1.5-1.7v-2.7h.3V56c.2 1.5-.6 2.2-1.7 2.2m11.3-.1v-3.9l-1.8 2.6-1.8-2.6v3.9h-.3v-4.5h.3l1.8 2.7 1.8-2.7h.4v4.5zm7.7.1c-1.1 0-1.9-.7-1.9-2v-2.7h.3v2.6c0 1.1.6 1.7 1.5 1.7s1.5-.6 1.5-1.7v-2.7h.3V56c.2 1.5-.6 2.2-1.7 2.2m7.4-.1v-4.5h.3v4.2h2.7v.3zm9.9.1c-1.1 0-1.9-.7-1.9-2v-2.7h.3v2.6c0 1.1.6 1.7 1.5 1.7s1.5-.6 1.5-1.7v-2.7h.3V56c.2 1.5-.6 2.2-1.7 2.2m8.9 0c-.7 0-1.3-.2-1.8-.7l.2-.3c.5.5 1 .7 1.6.7.7 0 1.2-.4 1.2-.9s-.3-.8-1.3-1c-1.1-.2-1.5-.6-1.5-1.3 0-.7.6-1.2 1.5-1.2.7 0 1.1.2 1.6.6l-.2.3c-.4-.4-.9-.5-1.4-.5-.7 0-1.1.4-1.1.9s.2.8 1.3 1 1.5.6 1.5 1.3c0 .6-.7 1.1-1.6 1.1m17-.1v-3.9l-1.8 2.6-1.8-2.6v3.9h-.3v-4.5h.3l1.8 2.7 1.8-2.7h.4v4.5zm5.9 0v-4.5h3.3v.3h-2.9v1.8h2.6v.3h-2.6v1.8h2.9v.3zm10.1 0h-1.5v-4.5h1.5c1.4 0 2.4 1 2.4 2.3.1 1.2-.9 2.2-2.4 2.2m2.1-2.2c0-1.1-.8-2-2.1-2h-1.2v3.9h1.2c1.3 0 2.1-.8 2.1-1.9zm5.8-2.3h.3v4.6h-.3zm9.8 4.5l-.6-1.3h-2.7l-.6 1.3h-.4l2.1-4.6h.3l2.1 4.6zm-2-4.2l-1.2 2.6h2.4zM62.9.2c.7 15.6 8.6 29.2 20.4 37.9l3.5-11.4C79.5 20.1 74.7 10.7 74 .2H62.9z"/><path d="M47.2.2c.8 22.7 13.1 42.5 31.3 53.7l3.3-11C68.1 33.4 59 17.9 58.2.2h-11z"/><path d="M31.4.2c.6 23.1 11 43.8 27 58.3H77C57 46.6 43.3 25 42.5.2zM0 .2c.4 21.4 6.8 41.3 17.6 58.3H31C18.9 42.1 11.5 22 11 .2z"/><path d="M15.7.2c.5 22 8.4 42.2 21.2 58.3l5-11.8C32.8 33.4 27.2 17.5 26.8.2zm62.9 0c.6 8.3 4.1 15.8 9.6 21.5L94.7.2H78.6zm43 21h-2.9l-2.8-7.4-2.3-6.9-2.2 7-2.8 7.3h-2.8L98.3.5h3.7l5.2 15.9L112.5.5h2.2l5.4 15.9L125.3.5h3.7zm19.5-8.8c-.2-2.3-1.8-3.5-4.3-3.5-2.3 0-4.1 1.2-4.5 3.5zm-8.9 2.6c.2 2.3 2.1 3.7 4.8 3.7 1.5 0 3.3-.5 4.2-1.6l2 1.9c-1.5 1.7-4 2.5-6.2 2.5-4.8 0-7.8-3-7.8-7.7 0-4.4 3.1-7.6 7.6-7.6 4.7 0 7.9 2.9 7.3 8.8zm24.2-4.9c-1.1-1.1-2.4-1.4-3.8-1.4-1.9 0-3.1.6-3.1 1.7 0 1.2 1.3 1.6 3.2 1.8 2.7.2 6.2.8 6.2 4.6 0 2.7-2.5 4.6-6.2 4.6-2.4 0-4.7-.5-6.6-2.7l1.6-2.1c1.4 1.5 3.4 2.1 5.1 2.1 1.4 0 3.1-.5 3.1-1.9 0-1.3-1.2-1.8-3.4-2-2.7-.2-5.9-1.2-5.9-4.4s3.3-4.4 6-4.4c2.3 0 3.9.5 5.6 1.9zm10.1-7.8v4.2h4.3v2.6h-4.3V16c0 1.5.7 2.4 2.1 2.4.6 0 1.3-.2 1.8-.5l.9 2.6c-1 .5-1.9.7-2.9.7-3.2.1-5-1.7-5-5.1V9.2h-2.8V6.6h2.8V2.7zm19.1 4.2l3.5 11.5 3.6-11.5h3.4L191 21.2h-3.5l-1.7-4.8-1.5-5.1-1.4 5.1-1.7 4.8h-3.6l-5.1-14.7h3.4l3.6 11.5L183 6.5zm14.9 7.3c0 2.6 1.7 4.8 4.5 4.8s4.5-2.1 4.5-4.8c0-2.6-1.8-4.8-4.5-4.8-2.8.1-4.5 2.3-4.5 4.8m12 0c0 4.4-3 7.6-7.6 7.6s-7.5-3.2-7.5-7.6c0-4.3 3-7.6 7.5-7.6s7.6 3.4 7.6 7.6m5.3 0c0 2.6 1.7 4.8 4.5 4.8s4.5-2.1 4.5-4.8c0-2.6-1.8-4.8-4.5-4.8-2.7.1-4.5 2.3-4.5 4.8m12.1 0c0 4.4-3 7.6-7.6 7.6s-7.5-3.2-7.5-7.6c0-4.3 3-7.6 7.5-7.6s7.6 3.4 7.6 7.6m5.3 0c0 3 2 4.8 4.6 4.8 2.5 0 4.6-1.9 4.6-4.8 0-2.8-2.1-4.7-4.6-4.7s-4.6 1.7-4.6 4.7M247.7.5v20.7h-2.9l-.2-2.3c-1.1 1.8-3.1 2.6-5 2.6-4.2 0-7.4-2.8-7.4-7.6 0-5 3.2-7.6 7.4-7.6 1.8 0 4.1.9 5.1 2.6V.5zm21.3 18c5.1 0 7.3-3.7 7.3-7.6 0-3.8-2.1-7.8-7.2-7.8-4.8 0-7.3 3.3-7.3 7.8 0 3.7 2.1 7.6 7.2 7.6m10.6-7.7c0 5.6-3.4 10.7-10.5 10.7s-10.5-5.2-10.5-10.7C258.6 4.5 263 0 269.2 0c6.9 0 10.4 5.3 10.4 10.8m14.2 10.3v-7.8c0-2.5-1.4-4.3-3.9-4.3s-4.1 2.1-4.1 4.4V21h-3V6.5h2.8l.2 2.1c1.4-1.6 3-2.4 4.9-2.4 3.5 0 6.2 2.5 6.2 7V21zm18.1-8.7c-.2-2.3-1.8-3.5-4.3-3.5-2.3 0-4.1 1.2-4.5 3.5zM303 15c.2 2.3 2.1 3.7 4.8 3.7 1.5 0 3.3-.5 4.2-1.6l2 1.9c-1.5 1.7-4 2.5-6.2 2.5-4.8 0-7.8-3-7.8-7.7 0-4.4 3.1-7.6 7.6-7.6 4.7 0 7.9 2.9 7.3 8.8zM99.7 27.8v9.8h6.9c6.4 0 6.4-9.8 0-9.8zm0 11.2v6.6h-1.5V26.5h8.4c8.3 0 8.3 12.5 0 12.5zm27.4-.1c0-3.5-2.5-5.8-5.6-5.8s-5.6 2.3-5.6 5.8 2.5 5.6 5.6 5.6 5.6-2.1 5.6-5.6m-12.4 0c0-4.3 3.1-7 6.8-7 3.8 0 6.8 2.7 6.8 7s-3.1 6.9-6.8 6.9-6.8-2.6-6.8-6.9m17.4-.1c0 3.7 2.5 5.7 5.5 5.7 3.1 0 5.5-2.3 5.5-5.7s-2.4-5.7-5.5-5.7c-3 0-5.5 2-5.5 5.7m12.4-12.3v19.1h-1.3v-3c-1.1 2.1-3.3 3.2-5.6 3.2-3.8 0-6.8-2.5-6.8-7s3-7 6.8-7c2.3 0 4.5 1 5.6 3.2v-8.6zm14.9 17.2c-1.4 1.4-3.2 2-4.9 2-3.8 0-6.9-2.7-6.9-6.9s3-6.9 6.9-6.9c1.8 0 3.6.7 4.9 2l-.9.9c-1.1-1.1-2.6-1.6-4.1-1.6-3.1 0-5.6 2-5.6 5.6 0 3.7 2.6 5.6 5.6 5.6 1.5 0 2.9-.6 4-1.7zm3.3-4.9c0 3.4 2.5 5.7 5.5 5.7 7.5 0 7.5-11.3 0-11.3-3 0-5.5 2.3-5.5 5.6m12.4-6.7v13.5h-1.3v-2.9c-1.3 2.1-3.3 3.1-5.5 3.1-3.8 0-6.8-2.8-6.8-7s3.1-6.9 6.8-6.9c2.2 0 4.4 1 5.5 3.1v-3zm13 2.4c-1.4-1.2-2.7-1.4-4.2-1.4-2.1 0-4.1.8-4.1 2.5 0 1.8 2.4 2.1 4.1 2.5 2.4.4 5.7.8 5.6 4-.1 3-3.1 3.8-5.6 3.8-2.4 0-4.7-.9-5.9-2.7l1-.9c1.1 1.6 3.1 2.3 4.9 2.3 1.6 0 4.1-.5 4.2-2.6 0-2-2.2-2.3-4.4-2.7-2.6-.5-5.2-.9-5.2-3.7 0-2.7 2.6-3.8 5.3-3.8 2 0 3.7.5 5 1.8zm7.4-6.5v4.1h4.6v1.1h-4.6v8.2c0 1.8.4 3.1 2.5 3.1.6 0 1.4-.2 2.1-.5l.5 1.1c-.9.4-1.7.7-2.6.7-2.9 0-3.8-1.7-3.8-4.3v-8.2h-2.9v-1.1h2.9v-3.9zm16.1-1.5l12.9 15.8V26.5h1.5v19.1h-.6l-13-15.8v15.8H211V26.5zm29.9 11.8c0-3.3-2.2-5.2-5.5-5.2-2.8 0-5.2 1.9-5.5 5.2zm-12.3.5c0-4.1 3.1-7 6.8-7s7.2 2.3 6.7 7.6h-12.2c.3 3.2 2.7 5 5.5 5 1.8 0 3.8-.7 4.9-2.1l1 .8c-1.3 1.7-3.7 2.6-5.8 2.6-3.8.1-6.9-2.6-6.9-6.9M248.7 28v4.1h4.6v1.1h-4.6v8.2c0 1.8.4 3.1 2.5 3.1.6 0 1.4-.2 2.1-.5l.5 1.1c-.9.4-1.7.7-2.6.7-2.9 0-3.8-1.7-3.8-4.3v-8.2h-2.9v-1.1h2.9v-3.9zm21.7 17.6h-1.5l-2.2-5.9-1.6-5.2-1.7 5.3-2.2 5.9h-1.5l-4.8-13.6h1.5l4.1 12 4.1-12h.9l4.1 12 4.1-12h1.5zm18.7-6.7c0-3.5-2.5-5.8-5.6-5.8s-5.6 2.3-5.6 5.8 2.5 5.6 5.6 5.6 5.6-2.1 5.6-5.6m-12.4 0c0-4.3 3.1-7 6.8-7s6.8 2.7 6.8 7-3.1 6.9-6.8 6.9-6.8-2.6-6.8-6.9m18.1-6.8v2.4c.9-1.8 2.8-2.6 4.5-2.6 1 0 2 .2 2.9.8l-.6 1.1c-.7-.5-1.5-.6-2.3-.6-2.5 0-4.5 2.1-4.5 4.5v7.9h-1.3V32.1zm10.8-5.6V38l6.4-5.9h1.7v.1l-6.8 6.3 7.6 7v.1h-1.7l-7.2-6.6v6.6h-1.4V26.5z"/></g></svg>