<svg xmlns="http://www.w3.org/2000/svg" class="st_l" data-zflow="+" data-prefix="st_l">
    <defs>
        <linearGradient id="st_lg" x1="0%" y1="0%" x2="0%" y2="100%">
            <stop class="st_shadow1" offset="0" stop-opacity=".35"/>
            <stop class="st_shadow2" offset="1" stop-opacity=".15"/>
        </linearGradient>
    </defs>
    <symbol id="st_l__x21_" data-name="!" viewBox="0 0 35.88 76.9">
        <path class="st_sides" d="M34.18 65s-3.49-3.49-3.5-3.51h4.18v-35.1l-25-25H1v35.08L3.52 39a6.41 6.41 0 0 0-1.82 1A4.84 4.84 0 0 0 0 44a4.83 4.83 0 0 0 1.7 4l25 25a5.82 5.82 0 0 0 7.48 0 5.61 5.61 0 0 0 0-8z"/>
        <g class="st_shadows" fill="url(#st_lg)">
            <path class="cls-2" d="M9.86 36.47H1L3.52 39a5.86 5.86 0 0 1 1.92-.32A6 6 0 0 1 9.18 40c.12.1.2.21.31.31l21.19 21.16h4.18z"/>
            <path class="cls-2" d="M9.86 47.35a3.92 3.92 0 0 1-.67.68A5.82 5.82 0 0 1 1.7 48l25 25a5.82 5.82 0 0 0 7.48 0 4.3 4.3 0 0 0 .67-.68z"/>
        </g>
        <path class="st_face" d="M0 44a4.81 4.81 0 0 1 1.7-4 5.92 5.92 0 0 1 7.48 0 4.81 4.81 0 0 1 1.7 4 4.83 4.83 0 0 1-1.7 4 5.82 5.82 0 0 1-7.48 0A4.83 4.83 0 0 1 0 44zM9.86 1.39v35.08H1V1.39z"/>
    </symbol>
    <symbol id="st_l__x22_" data-name="&quot;" viewBox="0 0 48.66 76.9">
        <path class="st_sides" d="M23.32 1.32h-8.56l-.54 2.49-2.39-2.49H3.26L0 16.62l25 25h6.53l1.29-3.73 3.67 3.73h6.53l5.3-15.3-25-25z"/>
        <g class="st_shadows" fill="url(#st_lg)">
            <path class="cls-2" d="M31.53 41.62l-25-25H0l25 25h6.53z"/>
            <path class="cls-2" d="M43.02 41.62l-25-25h-6.53l25 25h6.53z"/>
        </g>
        <path class="st_face" d="M3.26 1.32h8.57l-5.3 15.3H0zm11.5 0h8.56L18 16.62h-6.51z"/>
    </symbol>
    <symbol id="st_l__x201C_" data-name="&quot;" viewBox="0 0 48.66 76.9">
        <path class="st_sides" d="M23.32 1.32h-8.56l-.54 2.49-2.39-2.49H3.26L0 16.62l25 25h6.53l1.29-3.73 3.67 3.73h6.53l5.3-15.3-25-25z"/>
        <g class="st_shadows" fill="url(#st_lg)">
            <path class="cls-2" d="M31.53 41.62l-25-25H0l25 25h6.53z"/>
            <path class="cls-2" d="M43.02 41.62l-25-25h-6.53l25 25h6.53z"/>
        </g>
        <path class="st_face" d="M3.26 1.32h8.57l-5.3 15.3H0zm11.5 0h8.56L18 16.62h-6.51z"/>
    </symbol>
    <symbol id="st_l__x201D_" data-name="&quot;" viewBox="0 0 48.66 76.9">
        <path class="st_sides" d="M23.32 1.32h-8.56l-.54 2.49-2.39-2.49H3.26L0 16.62l25 25h6.53l1.29-3.73 3.67 3.73h6.53l5.3-15.3-25-25z"/>
        <g class="st_shadows" fill="url(#st_lg)">
            <path class="cls-2" d="M31.53 41.62l-25-25H0l25 25h6.53z"/>
            <path class="cls-2" d="M43.02 41.62l-25-25h-6.53l25 25h6.53z"/>
        </g>
        <path class="st_face" d="M3.26 1.32h8.57l-5.3 15.3H0zm11.5 0h8.56L18 16.62h-6.51z"/>
    </symbol>
    <symbol id="st_l__x24_" data-name="$" viewBox="0 0 59.41 76.9">
        <path class="st_sides" d="M57.82 51.46A11.12 11.12 0 0 0 56 49.32L40.48 33.81h.65a13.81 13.81 0 0 1 3.11.36 15.8 15.8 0 0 1 2.89 1 11.76 11.76 0 0 1 2.08 1.2l2 2 6.45-3a14.2 14.2 0 0 0-2.36-3.47l-22-22a14.42 14.42 0 0 0-1.65-1.49L23.29 0h-7.58v5.2a22.82 22.82 0 0 0-5.11 1.16 16.16 16.16 0 0 0-4.42 2.32 11.23 11.23 0 0 0-3.13 3.64 10.35 10.35 0 0 0-1.2 5.09 11.07 11.07 0 0 0 1.43 6 10.47 10.47 0 0 0 1.7 2l16.73 16.73a20.88 20.88 0 0 1-2.78.21 15.48 15.48 0 0 1-3.73-.46 16 16 0 0 1-3.49-1.26c-.08 0-4.65-4.55-4.66-4.59L0 39a16 16 0 0 0 2.72 4.28c.28.31.57.61.87.89l21.87 21.92a16.93 16.93 0 0 0 2.92 2.27 18.53 18.53 0 0 0 1.65.88l7.64 7.66h7.58v-6a19 19 0 0 0 5.32-1.13 15.72 15.72 0 0 0 4.54-2.6 12.19 12.19 0 0 0 3.13-4 12 12 0 0 0 1.17-5.41 11.24 11.24 0 0 0-1.59-6.3z"/>
        <g class="st_shadows" fill="url(#st_lg)">
            <path class="cls-2" d="M35.72 13.38l21.95 21.96-6.45 2.98-21.95-21.96 6.45-2.98z"/>
            <path class="cls-2" d="M45.25 76.91L23.29 54.95h-7.58l21.96 21.96h7.58z"/>
            <path class="cls-2" d="M35.32 43h-.1a11.69 11.69 0 0 1-2.07 2.26 15.49 15.49 0 0 1-4.54 2.6A18.25 18.25 0 0 1 23.29 49l22 22a19 19 0 0 0 5.32-1.13 15.72 15.72 0 0 0 4.54-2.6 12.15 12.15 0 0 0 2.13-2.34z"/>
            <path class="cls-2" d="M15.71 49.27a27 27 0 0 1-4.87-.92 18.24 18.24 0 0 1-4.42-2 15.75 15.75 0 0 1-2.83-2.19l21.87 21.93a16.93 16.93 0 0 0 2.92 2.27 18.53 18.53 0 0 0 1.65.88L15.71 55z"/>
            <path class="cls-2" d="M26.1 40.84a6.5 6.5 0 0 0 2.3-2 5.15 5.15 0 0 0 .87-3 3.75 3.75 0 0 0-.87-2.52 7.19 7.19 0 0 0-2.3-1.74 14.37 14.37 0 0 0-3.34-1.14 39.94 39.94 0 0 0-4-.66c-2.15-.24-4.23-.54-6.24-.92a18 18 0 0 1-5.4-1.88A10.31 10.31 0 0 1 5 25.41l15 15 1.74 1.73c.37 0 .74-.08 1.11-.16a11.43 11.43 0 0 0 3.25-1.14z"/>
            <path class="cls-2" d="M29.27 16.36a7.18 7.18 0 0 0-1.68-1.79 11.7 11.7 0 0 0-2.42-1.43 15.8 15.8 0 0 0-2.89-1 13.73 13.73 0 0 0-3.11-.35 20.93 20.93 0 0 0-3.58.29 10.92 10.92 0 0 0-3.05 1A5.9 5.9 0 0 0 11 14.23l8.46 8.47q3.29.4 6.51 1a20.71 20.71 0 0 1 5.79 2 11.51 11.51 0 0 1 3 2.37l5.69 5.69h.65a13.81 13.81 0 0 1 3.11.36 15.8 15.8 0 0 1 2.89 1 11.07 11.07 0 0 1 2 1.18z"/>
        </g>
        <path class="st_face" d="M29.27 16.36a7.18 7.18 0 0 0-1.68-1.79 11.7 11.7 0 0 0-2.42-1.43 15.8 15.8 0 0 0-2.89-1 13.73 13.73 0 0 0-3.11-.35 20.93 20.93 0 0 0-3.58.29 10.92 10.92 0 0 0-3.05 1 5.77 5.77 0 0 0-2.09 1.73 4.35 4.35 0 0 0-.77 2.63 3.53 3.53 0 0 0 .8 2.42 5.51 5.51 0 0 0 2.18 1.46 16 16 0 0 0 3.11.84c1.15.2 2.37.38 3.64.54q3.29.4 6.51 1a20.71 20.71 0 0 1 5.79 2 11.22 11.22 0 0 1 4.15 3.76 11.29 11.29 0 0 1 1.59 6.33 11.87 11.87 0 0 1-4.3 9.41 15.49 15.49 0 0 1-4.54 2.6 18.25 18.25 0 0 1-5.32 1.2v6h-7.58v-5.73a27 27 0 0 1-4.87-.92 18.24 18.24 0 0 1-4.42-2 16.75 16.75 0 0 1-3.7-3.08A16 16 0 0 1 0 39l7.05-3a7.62 7.62 0 0 0 1.82 2.61 11.36 11.36 0 0 0 2.84 2 16 16 0 0 0 3.49 1.26 15.48 15.48 0 0 0 3.73.46 19.6 19.6 0 0 0 3.89-.33 11.43 11.43 0 0 0 3.28-1.14 6.5 6.5 0 0 0 2.3-2 5.15 5.15 0 0 0 .87-3 3.75 3.75 0 0 0-.87-2.52 7.19 7.19 0 0 0-2.3-1.74 14.37 14.37 0 0 0-3.34-1.14 39.94 39.94 0 0 0-4-.66c-2.15-.24-4.23-.54-6.24-.92A18 18 0 0 1 7.12 27a10.27 10.27 0 0 1-3.83-3.57 11.07 11.07 0 0 1-1.43-6 10.35 10.35 0 0 1 1.2-5.09 11.23 11.23 0 0 1 3.12-3.66 16.16 16.16 0 0 1 4.42-2.32 22.82 22.82 0 0 1 5.11-1.16V0h7.58v5.2A27.78 27.78 0 0 1 27 6a15.6 15.6 0 0 1 3.4 1.49 13.68 13.68 0 0 1 3 2.39 15 15 0 0 1 2.36 3.47z"/>
    </symbol>
    <symbol id="st_l__x25_" data-name="%" viewBox="0 0 73.01 76.9">
        <path class="st_sides" d="M71.78 58.58a9.65 9.65 0 0 0-1.61-2.23L57.71 43.89l11.56-17.64-25-25h-9.59L27.61 12l-8.18-8.16A11.6 11.6 0 0 0 17.24 2 11.22 11.22 0 0 0 11.08.43 11.18 11.18 0 0 0 4.93 2a10.43 10.43 0 0 0-3.71 4A11 11 0 0 0 0 11.11a11 11 0 0 0 1.22 5.13 9.78 9.78 0 0 0 1.62 2.23l12.39 12.4L3.33 49l25 25H38l7.36-11.24L53.58 71a12.22 12.22 0 0 0 14.5 1.82 10.4 10.4 0 0 0 3.7-4 11.33 11.33 0 0 0 0-10.27z"/>
        <path class="cls-2" d="M45.62 45.58a11.5 11.5 0 0 1-2.51 2.21 11.22 11.22 0 0 1-6.16 1.59 11.2 11.2 0 0 1-6.15-1.59 14.44 14.44 0 0 1-1.35-1h-.05l16 16L53.58 71a12.22 12.22 0 0 0 14.5 1.82 11.43 11.43 0 0 0 2.53-2.23z"/>
        <path class="cls-2" d="M40.19 35.69a3.9 3.9 0 0 0-3.27-1.39 4 4 0 0 0-3.29 1.39L40 42a2.28 2.28 0 0 0 .22-.22 4.84 4.84 0 0 0 0-6.12z"/>
        <path class="cls-2" d="M11.08 6.62A4 4 0 0 0 7.79 8l6.34 6.34c.07-.08.15-.14.22-.22a4.84 4.84 0 0 0 0-6.12 3.91 3.91 0 0 0-3.27-1.38z"/>
        <path class="cls-2" d="M15.23 30.87l6.67-10.3-2.34-2.34a11.33 11.33 0 0 1-2.3 2 11.22 11.22 0 0 1-6.16 1.6 11.18 11.18 0 0 1-6.15-1.6 11.55 11.55 0 0 1-2.09-1.72l12.39 12.4z"/>
        <path class="cls-2" d="M37.99 73.99l-25-25H3.33l25 25h9.66z"/>
        <path class="st_face" d="M11.08.43A11.22 11.22 0 0 1 17.24 2a10.4 10.4 0 0 1 3.7 4 10.86 10.86 0 0 1 1.23 5.13 10.86 10.86 0 0 1-1.23 5.13 10.4 10.4 0 0 1-3.7 4 11.22 11.22 0 0 1-6.16 1.6 11.18 11.18 0 0 1-6.15-1.6 10.43 10.43 0 0 1-3.71-4A11 11 0 0 1 0 11.11 11 11 0 0 1 1.22 6a10.43 10.43 0 0 1 3.71-4A11.18 11.18 0 0 1 11.08.43zm33.19.82L13 49H3.33L34.68 1.25zM11.08 6.62A4 4 0 0 0 7.79 8a4.71 4.71 0 0 0 0 6.12 4 4 0 0 0 3.29 1.39 3.93 3.93 0 0 0 3.27-1.39 4.84 4.84 0 0 0 0-6.12 3.91 3.91 0 0 0-3.27-1.38zM36.92 28a11.14 11.14 0 0 1 6.16 1.6 10.44 10.44 0 0 1 3.7 3.94 11.33 11.33 0 0 1 0 10.27 10.4 10.4 0 0 1-3.7 3.95 11.22 11.22 0 0 1-6.16 1.59 11.2 11.2 0 0 1-6.15-1.59 10.43 10.43 0 0 1-3.71-3.95 11.42 11.42 0 0 1 0-10.27 10.47 10.47 0 0 1 3.71-3.94 11.12 11.12 0 0 1 6.15-1.6zm0 6.26a4 4 0 0 0-3.29 1.39 4.71 4.71 0 0 0 0 6.12 4 4 0 0 0 3.29 1.4 3.91 3.91 0 0 0 3.27-1.4 4.84 4.84 0 0 0 0-6.12 3.9 3.9 0 0 0-3.27-1.35z"/>
    </symbol>
    <symbol id="st_l__x26_" data-name="&amp;" viewBox="0 0 66.81 76.9">
        <path class="st_sides" d="M62.26 61.06a8.43 8.43 0 0 1-.06-1v-6.95h3.94V46l-7-7h2.4A12.34 12.34 0 0 0 60 32.57a12.83 12.83 0 0 0-1.85-2.38L33.19 5.29a12 12 0 0 0-2.28-1.86 16.72 16.72 0 0 0-5.58-2.21 30.42 30.42 0 0 0-6.22-.65 25.89 25.89 0 0 0-6.43.82 18.25 18.25 0 0 0-5.81 2.55 14.13 14.13 0 0 0-4.25 4.42A12.07 12.07 0 0 0 1 14.85a11.11 11.11 0 0 0 .41 2.92 11.56 11.56 0 0 0 1.14 2.83 10.11 10.11 0 0 0 2 2.38l1.9 1.89a10.28 10.28 0 0 0-2.1 1.23A11.65 11.65 0 0 0 2 28.52a10.62 10.62 0 0 0-1.5 2.89 9.53 9.53 0 0 0-.51 3 15.76 15.76 0 0 0 1.5 7.31 12.43 12.43 0 0 0 1.86 2.7l24.9 24.9a11.87 11.87 0 0 0 2.32 2 16.94 16.94 0 0 0 6 2.45 36.33 36.33 0 0 0 7.31.71 21.33 21.33 0 0 0 3.81-.34 17.93 17.93 0 0 0 3.71-1.09 13.25 13.25 0 0 0 3.36-2 11.18 11.18 0 0 0 2-2.12l2.75 2.74A7 7 0 0 0 61.24 73a7.61 7.61 0 0 0 2.55.89 18.52 18.52 0 0 0 2.69.2v-8.88s-4.2-4.15-4.22-4.15z"/>
        <g class="st_shadows" fill="url(#st_lg)">
            <path class="cls-2" d="M41.48 49.12a18.52 18.52 0 0 1-2.69-.2 7.61 7.61 0 0 1-2.55-.92 7.49 7.49 0 0 1-1.7-1.32l22.23 22.26 2.75 2.74A7 7 0 0 0 61.24 73a7.61 7.61 0 0 0 2.55.89 18.52 18.52 0 0 0 2.69.2z"/>
            <path class="cls-2" d="M34.54 46.71l-.54-.55v-.1a9 9 0 0 1-1.48-3.19 12.31 12.31 0 0 1-2.72 3.19 13.25 13.25 0 0 1-3.36 2 17.93 17.93 0 0 1-3.71 1.09 21.33 21.33 0 0 1-3.81.34 36.33 36.33 0 0 1-7.31-.71 16.94 16.94 0 0 1-6-2.45 11.71 11.71 0 0 1-2.22-1.93l24.9 24.9a11.87 11.87 0 0 0 2.32 2 16.94 16.94 0 0 0 6 2.45 36.33 36.33 0 0 0 7.31.71 21.33 21.33 0 0 0 3.81-.34 17.93 17.93 0 0 0 3.71-1.09 13.25 13.25 0 0 0 3.36-2 11.18 11.18 0 0 0 2-2.12z"/>
            <path class="cls-2" d="M25 40a8.86 8.86 0 0 0 2.65-2 4.48 4.48 0 0 0 1.05-3v-6.89H18.36a13.19 13.19 0 0 0-4.25.61 10.34 10.34 0 0 0-3 1.53l-.21.18 10.76 10.74A13.35 13.35 0 0 0 25 40z"/>
            <path class="cls-2" d="M7.34 24.51A7.35 7.35 0 0 1 4.52 23l1.9 1.89c.3-.15.58-.28.92-.38z"/>
            <path class="cls-2" d="M61.52 39.03h-2.4L41.13 21.04H35.2l-7.18-7.01h8.5l25 25z"/>
            <path class="cls-2" d="M27.27 11.28a5.47 5.47 0 0 0-2-1.8 9.84 9.84 0 0 0-2.89-1 19.16 19.16 0 0 0-3.47-.3 13.07 13.07 0 0 0-4.42.64 8.61 8.61 0 0 0-2.85 1.63 6.88 6.88 0 0 0-.93 1L20.24 21h15L28 14a4.85 4.85 0 0 0-.73-2.72z"/>
            <path class="cls-2" d="M66.14 53.11l-25-25H37.2l25 25h3.94z"/>
        </g>
        <path class="st_face" d="M37.2 35.05a6.53 6.53 0 0 0 1 3.63 3.63 3.63 0 0 0 3.3 1.53v8.91a18.52 18.52 0 0 1-2.69-.2A7.54 7.54 0 0 1 34 46.13a9 9 0 0 1-1.53-3.26 12.31 12.31 0 0 1-2.72 3.19 13.25 13.25 0 0 1-3.36 2 17.93 17.93 0 0 1-3.71 1.09 21.33 21.33 0 0 1-3.81.34 36.33 36.33 0 0 1-7.31-.71 16.94 16.94 0 0 1-6-2.45 12.13 12.13 0 0 1-4.06-4.59A15.76 15.76 0 0 1 0 34.43a9.53 9.53 0 0 1 .51-3A10.62 10.62 0 0 1 2 28.52a11.65 11.65 0 0 1 2.35-2.42 10.13 10.13 0 0 1 3-1.59A7.35 7.35 0 0 1 4.52 23a10.11 10.11 0 0 1-2-2.38 11.56 11.56 0 0 1-1.19-2.83A11.11 11.11 0 0 1 1 14.85a12.07 12.07 0 0 1 1.62-6.49 14.13 14.13 0 0 1 4.25-4.42 18.25 18.25 0 0 1 5.81-2.55 25.89 25.89 0 0 1 6.43-.82 30.42 30.42 0 0 1 6.22.65 16.72 16.72 0 0 1 5.58 2.21 12.41 12.41 0 0 1 4 4.14A12.34 12.34 0 0 1 36.52 14H28a4.85 4.85 0 0 0-.75-2.75 5.47 5.47 0 0 0-2-1.8 9.84 9.84 0 0 0-2.89-1 19.16 19.16 0 0 0-3.47-.3 13.07 13.07 0 0 0-4.42.64 8.61 8.61 0 0 0-2.85 1.63 5.51 5.51 0 0 0-1.53 2.18 6.24 6.24 0 0 0-.44 2.21 4.6 4.6 0 0 0 1 3 7.43 7.43 0 0 0 2.42 1.9 10.84 10.84 0 0 0 3 1 16.54 16.54 0 0 0 2.79.27h22.3v7.07H37.2zm-18.84-6.94a13.19 13.19 0 0 0-4.25.61 10.34 10.34 0 0 0-3 1.53 5.8 5.8 0 0 0-1.74 2 5.09 5.09 0 0 0-.54 2.21 5.82 5.82 0 0 0 .85 3.23 6.87 6.87 0 0 0 2.24 2.18 10 10 0 0 0 3.2 1.22 17.78 17.78 0 0 0 3.64.38 15.78 15.78 0 0 0 2.92-.34A13.35 13.35 0 0 0 25 40a8.86 8.86 0 0 0 2.65-2 4.48 4.48 0 0 0 1.05-3v-6.89z"/>
    </symbol>
    <symbol id="st_l__x27_" data-name="'" viewBox="0 0 36.83 76.9">
        <path class="st_sides" d="M11.83 1.32H3.26L0 16.62l25 25h6.53l5.3-15.3-25-25z"/>
        <g class="st_shadows" fill="url(#st_lg)">
            <path d="M31.53 41.62l-25-25H0l25 25h6.53z"/>
        </g>
        <path class="st_face" d="M3.26 1.32h8.57l-5.3 15.3H0z"/>
    </symbol>
    <symbol id="st_l__x28_" data-name="(" viewBox="0 0 40.39 76.9">
        <path class="st_sides" d="M35.58 66.68A27 27 0 0 1 30 49.52a29.44 29.44 0 0 1 2.59-12.26 26.28 26.28 0 0 1 7.76-9.89l-3.71-5L14.3 0A30 30 0 0 0 8 5.51a33.31 33.31 0 0 0-4.44 6.66 34.19 34.19 0 0 0-2.65 7.34A32.48 32.48 0 0 0 0 27.14a35.89 35.89 0 0 0 .85 7.73 33.72 33.72 0 0 0 2.59 7.49 31.46 31.46 0 0 0 4.35 6.69c.45.54.93 1.06 1.43 1.56L31.5 72.9a29.42 29.42 0 0 0 4.87 4l4-5.41z"/>
        <g class="st_shadows" fill="url(#st_lg)">
            <path class="cls-2" d="M14 54.53a29.69 29.69 0 0 1-4.78-3.91L31.5 72.9a29.42 29.42 0 0 0 4.87 4z"/>
            <path class="cls-2" d="M40.39 71.49L18.01 49.11 14 54.53l22.37 22.38 4.02-5.42z"/>
        </g>
        <path class="st_face" d="M18 5a26.63 26.63 0 0 0-7.76 9.89 29.59 29.59 0 0 0-2.57 12.25Q7.67 41 18 49.11l-4 5.42a28.58 28.58 0 0 1-6.21-5.48 31.46 31.46 0 0 1-4.35-6.69 33.72 33.72 0 0 1-2.59-7.49A35.89 35.89 0 0 1 0 27.14a32.48 32.48 0 0 1 .91-7.63 34.19 34.19 0 0 1 2.68-7.34A33.31 33.31 0 0 1 8 5.51 30 30 0 0 1 14.3 0z"/>
    </symbol>
    <symbol id="st_l__x29_" data-name=")" viewBox="0 0 40.39 76.9">
        <path class="st_sides" d="M39.48 41.88a34.45 34.45 0 0 0-2.68-7.33 32.07 32.07 0 0 0-4.48-6.67c-.46-.54-.95-1.06-1.45-1.57L8.58 4a31.71 31.71 0 0 0-4.87-4L0 5l4.43 4.42a25.42 25.42 0 0 1 3.33 5.46 29.6 29.6 0 0 1 2.59 12.26Q10.35 41 .12 49L4 54.53 26.39 76.9a30.36 30.36 0 0 0 6.18-5.47 31.41 31.41 0 0 0 4.43-6.7 33.64 33.64 0 0 0 2.59-7.48 36.67 36.67 0 0 0 .85-7.73 33.1 33.1 0 0 0-.96-7.64z"/>
        <g class="st_shadows" fill="url(#st_lg)">
            <path d="M15.75 39.63c-.35.91-.72 1.82-1.14 2.7a31.26 31.26 0 0 1-4.39 6.69A30.08 30.08 0 0 1 4 54.53l22.33 22.31.06.06a30.36 30.36 0 0 0 6.18-5.47 31.41 31.41 0 0 0 4.43-6.7 32.59 32.59 0 0 0 1.37-3.29z"/>
        </g>
        <path class="st_face" d="M3.71 0A31.36 31.36 0 0 1 10 5.51a32.22 32.22 0 0 1 4.47 6.66 34.19 34.19 0 0 1 2.68 7.34 32.48 32.48 0 0 1 .85 7.63 35.89 35.89 0 0 1-.85 7.73 34.21 34.21 0 0 1-2.58 7.49 31.26 31.26 0 0 1-4.39 6.69A30.08 30.08 0 0 1 4 54.53L.12 49q10.23-8 10.23-21.85a29.6 29.6 0 0 0-2.59-12.27A26.53 26.53 0 0 0 0 5z"/>
    </symbol>
    <symbol id="st_l__x2B_" data-name="+" viewBox="0 0 53.36 76.9">
        <path class="st_sides" d="M18.22 11.39H10v10.13H0v7.55l35 35.2h8.22v-10.2h10.14v-7.55L18.22 11.39z"/>
        <g class="st_shadows" fill="url(#st_lg)">
            <path class="cls-2" d="M0 29.07l10 10.05V29.07H0z"/>
            <path class="cls-2" d="M18.22 39.27l25 25H35l-25-25h8.22z"/>
            <path class="cls-2" d="M43.22 54.07l-25-25h10.14l25 25H43.22z"/>
        </g>
        <path class="st_face" d="M10 21.52V11.39h8.22v10.13h10.14v7.55H18.22v10.2H10v-10.2H0v-7.55z"/>
    </symbol>
    <symbol id="st_l__x2C_" data-name="," viewBox="0 0 30.75 76.9">
        <path class="st_sides" d="M29.25 63L8.16 41.91a5.63 5.63 0 0 0-3.33-1.26 5 5 0 0 0-3.33 1.06A4.11 4.11 0 0 0 0 45.18a3.42 3.42 0 0 0 .88 2.48L3 49.79l-1.1 5.79L23 76.67h4.7q1.15-3.6 1.8-5.54c.43-1.29.73-2.24.92-2.86a8.87 8.87 0 0 0 .3-1.19 5.35 5.35 0 0 0 0-.61A4.2 4.2 0 0 0 29.25 63z"/>
        <g class="st_shadows" fill="url(#st_lg)">
            <path class="cls-2" d="M2.82 50.81l.38-2a4.21 4.21 0 0 1-2.32-1.15L3 49.79z"/>
            <path class="cls-2" d="M27.69 76.67L6.6 55.58H1.9l21.09 21.09h4.7z"/>
        </g>
        <path class="st_face" d="M9.66 45.38a5.35 5.35 0 0 1 0 .61 8.87 8.87 0 0 1-.3 1.19c-.19.62-.49 1.57-.92 2.86s-1 3.14-1.8 5.54H1.9l1.3-6.73a4.21 4.21 0 0 1-2.32-1.19A3.42 3.42 0 0 1 0 45.18a4.11 4.11 0 0 1 1.5-3.47 5 5 0 0 1 3.33-1.09 5.63 5.63 0 0 1 3.33 1.26 4.2 4.2 0 0 1 1.5 3.5z"/>
        <path d="M15.22 11.54h76.9v76.9h-76.9z"/>
    </symbol>
    <symbol id="st_l__x2D_" data-name="-" viewBox="0 0 50.76 76.9">
        <path class="st_sides" d="M25.09 25.46H0v7.62l25 25h25.09v-7.62l-25-25z"/>
        <g class="st_shadows" fill="url(#st_lg)">
            <path d="M25 58.08l-25-25h25.09l25 25H25z"/>
        </g>
        <path class="st_face" d="M0 25.46h25.09v7.62H0z"/>
    </symbol>
    <symbol id="st_l_x3A_" data-name=":" viewBox="0 0 34.66 76.9">
        <path class="st_sides" d="M33.16 66.06a5 5 0 0 1 0 7.14 5.25 5.25 0 0 1-6.66 0l-25-25A4.27 4.27 0 0 1 0 44.63a4.3 4.3 0 0 1 1.5-3.57 5.25 5.25 0 0 1 6.66 0zM26.5 53.48a5.25 5.25 0 0 0 6.66 0 4.27 4.27 0 0 0 1.5-3.57 4.3 4.3 0 0 0-1.5-3.57l-25-25a5.25 5.25 0 0 0-6.66 0A4.3 4.3 0 0 0 0 24.91a4.27 4.27 0 0 0 1.5 3.57s24.96 24.97 25 25z"/>
        <g class="st_shadows" fill="url(#st_lg)">
            <path class="cls-2" d="M9.15 46.94a3.58 3.58 0 0 1-1 1.26 5.19 5.19 0 0 1-3.33 1.19A5.15 5.15 0 0 1 1.5 48.2l25 25a5.25 5.25 0 0 0 6.66 0 3.58 3.58 0 0 0 1-1.26z"/>
            <path class="cls-2" d="M9.09 27.39a3.54 3.54 0 0 1-.9 1.1 5.19 5.19 0 0 1-3.33 1.19 5.15 5.15 0 0 1-3.36-1.2l25 25a5.25 5.25 0 0 0 6.66 0 3.64 3.64 0 0 0 .91-1.11z"/>
        </g>
        <path class="st_face" d="M0 24.91a4.3 4.3 0 0 1 1.5-3.57 5.25 5.25 0 0 1 6.66 0 4.3 4.3 0 0 1 1.5 3.57 4.27 4.27 0 0 1-1.5 3.57 5.19 5.19 0 0 1-3.33 1.19 5.15 5.15 0 0 1-3.33-1.19A4.27 4.27 0 0 1 0 24.91zm0 19.72a4.3 4.3 0 0 1 1.5-3.57 5.25 5.25 0 0 1 6.66 0 4.3 4.3 0 0 1 1.5 3.57 4.27 4.27 0 0 1-1.5 3.57 5.19 5.19 0 0 1-3.33 1.19A5.15 5.15 0 0 1 1.5 48.2 4.27 4.27 0 0 1 0 44.63z"/>
    </symbol>
    <symbol id="st_l__x2E_" data-name="." viewBox="0 0 34.79 76.9">
        <path class="st_sides" d="M33.26 66s-24.95-25-25-25a5.35 5.35 0 0 0-6.73 0A4.3 4.3 0 0 0 0 44.63a4.31 4.31 0 0 0 1.53 3.64l25 25a5.35 5.35 0 0 0 6.73 0 5.08 5.08 0 0 0 0-7.27z"/>
        <g class="st_shadows" fill="url(#st_lg)">
            <path d="M9.06 47.41H9a3.23 3.23 0 0 1-.78.87 5.35 5.35 0 0 1-6.73 0l25 25a5.35 5.35 0 0 0 6.73 0 3.63 3.63 0 0 0 .79-.87z"/>
        </g>
        <path class="st_face" d="M0 44.63A4.3 4.3 0 0 1 1.53 41a5.35 5.35 0 0 1 6.73 0 4.3 4.3 0 0 1 1.53 3.63 4.31 4.31 0 0 1-1.53 3.64 5.35 5.35 0 0 1-6.73 0A4.31 4.31 0 0 1 0 44.63z"/>
    </symbol>
    <symbol id="st_l_0" data-name="0" viewBox="0 0 65.94 76.9">
        <path class="st_sides" d="M64.17 37.13a19.58 19.58 0 0 0-4.66-6.66l-25-25a19.23 19.23 0 0 0-6.56-4 21.9 21.9 0 0 0-15 0 18.92 18.92 0 0 0-6.53 4 19.91 19.91 0 0 0-4.62 6.66A22.92 22.92 0 0 0 0 21.45v7.34a22.92 22.92 0 0 0 1.77 9.32 20.36 20.36 0 0 0 4.62 6.69l25 25a18.72 18.72 0 0 0 6.53 4 22.05 22.05 0 0 0 15 0 19 19 0 0 0 6.56-4 20 20 0 0 0 4.66-6.69 22.92 22.92 0 0 0 1.77-9.32v-7.34a22.92 22.92 0 0 0-1.74-9.32z"/>
        <g class="st_shadows" fill="url(#st_lg)">
            <path class="cls-2" d="M36.26 42.93a20 20 0 0 1-1.71 1.85 19 19 0 0 1-6.56 4 22.05 22.05 0 0 1-15 0 18.72 18.72 0 0 1-6.53-4l25 25a18.72 18.72 0 0 0 6.53 4 22.05 22.05 0 0 0 15 0 19 19 0 0 0 6.56-4 17.32 17.32 0 0 0 1.73-1.89z"/>
            <path class="cls-2" d="M32 21.38a14.11 14.11 0 0 0-1-5.58 12.48 12.48 0 0 0-2.65-4 11.09 11.09 0 0 0-3.71-2.41 11.59 11.59 0 0 0-4.25-.82 11.77 11.77 0 0 0-4.25.79 10.15 10.15 0 0 0-3.67 2.38l19.39 19.4a18.63 18.63 0 0 0 .14-2.42z"/>
        </g>
        <path class="st_face" d="M0 28.79v-7.34a22.92 22.92 0 0 1 1.77-9.32 19.91 19.91 0 0 1 4.62-6.66 18.92 18.92 0 0 1 6.53-4 21.9 21.9 0 0 1 15 0 19.23 19.23 0 0 1 6.56 4 19.58 19.58 0 0 1 4.66 6.66 22.92 22.92 0 0 1 1.77 9.32v7.34a22.92 22.92 0 0 1-1.77 9.32 20 20 0 0 1-4.66 6.69 19 19 0 0 1-6.56 4 22.05 22.05 0 0 1-15 0 18.72 18.72 0 0 1-6.53-4 20.36 20.36 0 0 1-4.62-6.69A22.92 22.92 0 0 1 0 28.79zm8.91-7.41v7.34a15.1 15.1 0 0 0 1 5.68 12.16 12.16 0 0 0 2.62 4.05 10.92 10.92 0 0 0 3.67 2.44 11.16 11.16 0 0 0 4.22.82 11.62 11.62 0 0 0 4.28-.82 10.63 10.63 0 0 0 3.74-2.44A12.16 12.16 0 0 0 31 34.4a14.9 14.9 0 0 0 1-5.68v-7.34a14.11 14.11 0 0 0-1-5.58 12.48 12.48 0 0 0-2.65-4 11.09 11.09 0 0 0-3.71-2.41 11.59 11.59 0 0 0-4.25-.82 11.77 11.77 0 0 0-4.25.79 10.15 10.15 0 0 0-3.67 2.38 11.92 11.92 0 0 0-2.59 4 14.91 14.91 0 0 0-.97 5.64z"/>
    </symbol>
    <symbol id="st_l_1" data-name="1" viewBox="0 0 50.09 76.9">
        <path class="st_sides" d="M42.2 58.49V26.32l-25-25L.41 6.89v8.16l7.89 7.78V41.3H0v7.62l25 25h25.09V66.3l-7.89-7.81z"/>
        <g class="st_shadows" fill="url(#st_lg)">
            <path class="cls-2" d="M50.09 73.92l-25-25H0l25 25h25.09z"/>
            <path class="cls-2" d="M.41 15.05l7.89 7.78V12.74L.41 15.05z"/>
        </g>
        <path class="st_face" d="M0 41.3h8.3V12.74L.41 15.05V6.89L17.2 1.32v40h7.89v7.62H0z"/>
    </symbol>
    <symbol id="st_l_2" data-name="2" viewBox="0 0 63.56 76.9">
        <path class="st_sides" d="M52.39 54.42a16.64 16.64 0 0 0 5.25-2.09 12 12 0 0 0 4.22-4.54 15.54 15.54 0 0 0 1.56-7.43 12.7 12.7 0 0 0-3.6-9.57l-24.9-24.9a12.78 12.78 0 0 0-2.42-2 17.46 17.46 0 0 0-5.95-2.44 31 31 0 0 0-6.63-.74 34.17 34.17 0 0 0-6.8.68A19.4 19.4 0 0 0 7 3.7a13.93 13.93 0 0 0-4.62 4.42 14.77 14.77 0 0 0-2.18 7l8.8 8.7a18.33 18.33 0 0 0-2.86 1.36 13 13 0 0 0-4.44 4.39A12.83 12.83 0 0 0 0 36.41v12.51l25 25h38.56v-8.43z"/>
        <g class="st_shadows" fill="url(#st_lg)">
            <path class="cls-2" d="M38.56 48.92H0l25 25h38.56l-25-25z"/>
            <path class="cls-2" d="M35.5 24.81a11.68 11.68 0 0 1-2.83 2.51 17 17 0 0 1-6.12 2.28 42.25 42.25 0 0 1-7.21.61 25.12 25.12 0 0 0-3.3.24 12.25 12.25 0 0 0-3.36.91A7.14 7.14 0 0 0 10 33.28l7.16 7.17h21.4l13.83 13.97L56.51 53c.39-.2.77-.41 1.13-.64a11.69 11.69 0 0 0 2.85-2.54z"/>
            <path class="cls-2" d="M12.34 22.87a36.15 36.15 0 0 1 4-.55l-7.22-7.25H.31L9 23.82a21.43 21.43 0 0 1 3.34-.95z"/>
            <path class="cls-2" d="M26.79 10.16a9.85 9.85 0 0 0-3.06-1.23 19.66 19.66 0 0 0-3.81-.47 20 20 0 0 0-3.87.37A12.47 12.47 0 0 0 12.61 10a7 7 0 0 0-.79.49l11.27 11.29a12.69 12.69 0 0 0 2.68-.85 7.38 7.38 0 0 0 2.65-2 5 5 0 0 0 1.09-3.33 7 7 0 0 0-.71-3.3 5.73 5.73 0 0 0-2.01-2.14z"/>
        </g>
        <path class="st_face" d="M.2 15.12a14.77 14.77 0 0 1 2.18-7A13.93 13.93 0 0 1 7 3.7a19.4 19.4 0 0 1 6.15-2.31 34.17 34.17 0 0 1 6.8-.68 31 31 0 0 1 6.63.71 17.46 17.46 0 0 1 5.92 2.44 13.28 13.28 0 0 1 4.29 4.55 13.62 13.62 0 0 1 1.63 7 15.54 15.54 0 0 1-1.56 7.43 12 12 0 0 1-4.22 4.54 17 17 0 0 1-6.12 2.28 42.25 42.25 0 0 1-7.21.61 25.12 25.12 0 0 0-3.3.24 12.25 12.25 0 0 0-3.36.91A7.14 7.14 0 0 0 10 33.28a4.63 4.63 0 0 0-1 3.13v4.08h29.56v8.43H0V36.41a12.83 12.83 0 0 1 1.7-6.84 13 13 0 0 1 4.45-4.39 19.84 19.84 0 0 1 6.19-2.31 36 36 0 0 1 7-.68 21 21 0 0 0 3.13-.27 12.35 12.35 0 0 0 3.33-1 7.38 7.38 0 0 0 2.65-2 5 5 0 0 0 1.09-3.33 7 7 0 0 0-.71-3.3 5.73 5.73 0 0 0-2-2.14 9.85 9.85 0 0 0-3.06-1.23 19.66 19.66 0 0 0-3.81-.47 20 20 0 0 0-3.87.37A12.47 12.47 0 0 0 12.61 10a7.57 7.57 0 0 0-2.48 2.08 5.24 5.24 0 0 0-1 3z"/>
    </symbol>
    <symbol id="st_l_3" data-name="3" viewBox="0 0 64.58 76.9">
        <path class="st_sides" d="M62.43 53.35a11 11 0 0 0-1.18-1.27L58.16 49a8.56 8.56 0 0 0 3.53-3 10.3 10.3 0 0 0 1.73-5.84 12.23 12.23 0 0 0-1.67-6.52 13.73 13.73 0 0 0-2-2.54L34.87 6.17a14.38 14.38 0 0 0-2.43-2 19.37 19.37 0 0 0-6-2.62 27.66 27.66 0 0 0-6.7-.85 30.77 30.77 0 0 0-6.66.75 19.72 19.72 0 0 0-6.14 2.38 14 14 0 0 0-4.46 4.32 11.75 11.75 0 0 0-1.73 6.53l11.83 11.76v1.7l12.55 12.5a13.35 13.35 0 0 1-2 .59 18.24 18.24 0 0 1-3.57.38 18.83 18.83 0 0 1-3.27-.34c-.44-.09-.85-.21-1.27-.33C15 40.93 9 35 9 35H0a12.61 12.61 0 0 0 1.77 6.88 13.69 13.69 0 0 0 2.08 2.57s24.86 24.87 24.9 24.9a14.19 14.19 0 0 0 2.61 2.06 19.86 19.86 0 0 0 6.25 2.49 32 32 0 0 0 6.84.75 36.31 36.31 0 0 0 7-.71A20.38 20.38 0 0 0 58 71.47a14.54 14.54 0 0 0 4.76-4.67 13.32 13.32 0 0 0 1.87-7.28 9.64 9.64 0 0 0-2.2-6.17z"/>
        <g class="st_shadows" fill="url(#st_lg)">
            <path class="cls-2" d="M36.88 42.93a14 14 0 0 1-3.88 3.5 19.92 19.92 0 0 1-6.46 2.45 35.57 35.57 0 0 1-7 .72 32 32 0 0 1-6.84-.75 19.86 19.86 0 0 1-6.25-2.49 14.19 14.19 0 0 1-4.59-4.53A11.5 11.5 0 0 1 1 40.31a9.85 9.85 0 0 0 .8 1.55 13.69 13.69 0 0 0 2.08 2.57s24.86 24.87 24.9 24.9a14.19 14.19 0 0 0 2.61 2.06 19.86 19.86 0 0 0 6.25 2.49 32 32 0 0 0 6.84.75 36.31 36.31 0 0 0 7-.71A20.38 20.38 0 0 0 58 71.47a14.25 14.25 0 0 0 3.94-3.53z"/>
            <path class="cls-2" d="M12.56 20.83l.02.01v-.01h3.33l-6.19-6.19H.75l11.81 11.82v-5.63z"/>
            <path class="cls-2" d="M29.1 37.78a5.19 5.19 0 0 0 1-3.25 7 7 0 0 0-.37-2.22 4.68 4.68 0 0 0-1.46-2.05 9 9 0 0 0-3.1-1.54 18.15 18.15 0 0 0-5.2-.61h-7.39l12.51 12.51a12.28 12.28 0 0 0 1.43-.62 8.09 8.09 0 0 0 2.58-2.22z"/>
            <path class="cls-2" d="M28.56 17.88a4.32 4.32 0 0 0 .88-2.76A5.6 5.6 0 0 0 29 13a5.34 5.34 0 0 0-1.6-2 9.39 9.39 0 0 0-3-1.53 15.4 15.4 0 0 0-4.73-.61 20 20 0 0 0-3.33.3 13.12 13.12 0 0 0-3.23 1 8.24 8.24 0 0 0-1.39.83l9.82 9.82c.51 0 1-.1 1.53-.18a12.21 12.21 0 0 0 3.2-.92 6.13 6.13 0 0 0 2.29-1.83z"/>
            <path class="cls-2" d="M35.14 22.68a9 9 0 0 1-3.28 1.79 11.88 11.88 0 0 1 4.91 3.09L58.16 49a8.64 8.64 0 0 0 2-1.28z"/>
        </g>
        <path class="st_face" d="M20 28.11h-7.42v-7.28h6.87a23.84 23.84 0 0 0 3.6-.27 12.21 12.21 0 0 0 3.2-.92 6.13 6.13 0 0 0 2.31-1.76 4.32 4.32 0 0 0 .88-2.76A5.6 5.6 0 0 0 29 13a5.34 5.34 0 0 0-1.6-2 9.39 9.39 0 0 0-3-1.53 15.4 15.4 0 0 0-4.73-.61 20 20 0 0 0-3.33.3 13.12 13.12 0 0 0-3.23 1 6.79 6.79 0 0 0-2.41 1.8 4.1 4.1 0 0 0-1 2.75h-9a11.71 11.71 0 0 1 1.78-6.59A14 14 0 0 1 6.94 3.8a19.72 19.72 0 0 1 6.12-2.41 30.77 30.77 0 0 1 6.66-.75 27.17 27.17 0 0 1 6.7.85 19.12 19.12 0 0 1 6 2.61 14.4 14.4 0 0 1 4.31 4.48 12.25 12.25 0 0 1 1.67 6.52 10.28 10.28 0 0 1-1.73 5.84 8.71 8.71 0 0 1-4.87 3.53 11.61 11.61 0 0 1 5.61 3.85 9.61 9.61 0 0 1 2.15 6.16 13.36 13.36 0 0 1-1.87 7.29A14.51 14.51 0 0 1 33 46.43a19.92 19.92 0 0 1-6.46 2.45 35.57 35.57 0 0 1-7 .72 32 32 0 0 1-6.84-.75 19.86 19.86 0 0 1-6.25-2.49 14.19 14.19 0 0 1-4.59-4.53A12.62 12.62 0 0 1 0 34.94h9a4.63 4.63 0 0 0 1.09 3.11 8.22 8.22 0 0 0 2.69 2.05 12.68 12.68 0 0 0 3.43 1.13 17.9 17.9 0 0 0 3.27.34 18.2 18.2 0 0 0 3.57-.37 12.07 12.07 0 0 0 3.47-1.2 8.09 8.09 0 0 0 2.58-2.19 5.19 5.19 0 0 0 1-3.25 7 7 0 0 0-.37-2.22 4.68 4.68 0 0 0-1.46-2.05 8.86 8.86 0 0 0-3.1-1.53 17.76 17.76 0 0 0-5.17-.65z"/>
    </symbol>
    <symbol id="st_l_4" data-name="4" viewBox="0 0 65.66 76.9">
        <path class="st_sides" d="M60.09 50.64V26.39l-25-25H21.42L0 30.76l.82 9.11 25 25h16.44l8.99 9.05h8.84v-9.05h5.57v-8.7l-5.57-5.53z"/>
        <g class="st_shadows" fill="url(#st_lg)">
            <path class="cls-2" d="M60.09 73.92l-25-25h-8.84l25 25h8.84z"/>
            <path class="cls-2" d="M25.82 64.87l-25-25h25.43v9.05l16.01 15.95H25.82z"/>
            <path class="cls-2" d="M65.66 64.87l-25-25h-5.57l25 25h5.57z"/>
        </g>
        <path class="st_face" d="M35.09 1.39v29.78h5.57v8.7h-5.57v9.05h-8.84v-9.05H.82L0 30.76 21.42 1.39zm-8.84 29.78v-22l-16.12 22z"/>
    </symbol>
    <symbol id="st_l_5" data-name="5" viewBox="0 0 63.15 76.9">
        <path class="st_sides" d="M61.62 51.41a13.32 13.32 0 0 0-2.93-3.78L45.87 34.82H60.5v-8.43l-25-25H1v25.22L15.15 40.7l-.21-.05s-6-6-6-6.08H0a14.07 14.07 0 0 0 1.6 7 13.82 13.82 0 0 0 1.94 2.64s24.87 24.86 24.9 24.9a14 14 0 0 0 2.41 2 17.41 17.41 0 0 0 6.15 2.6 35.93 35.93 0 0 0 7.48.75 25 25 0 0 0 7-1 18.34 18.34 0 0 0 5.95-3 14.74 14.74 0 0 0 4.14-5 15 15 0 0 0 1.57-7.07 15.1 15.1 0 0 0-1.52-6.98z"/>
        <g class="st_shadows" fill="url(#st_lg)">
            <path class="cls-2" d="M35.05 42.93a15.06 15.06 0 0 1-2.59 2.58 18.12 18.12 0 0 1-5.95 2.95 24.62 24.62 0 0 1-7 1 35.93 35.93 0 0 1-7.51-.75 17.41 17.41 0 0 1-6.15-2.51 13.55 13.55 0 0 1-2.31-2s24.87 24.86 24.9 24.9a14 14 0 0 0 2.41 2A17.41 17.41 0 0 0 37 73.71a35.93 35.93 0 0 0 7.48.75 25 25 0 0 0 7-1 18.34 18.34 0 0 0 5.95-3A14.49 14.49 0 0 0 60 67.93z"/>
            <path class="cls-2" d="M15.84 40.86a22.12 22.12 0 0 0 3.54.31 14.84 14.84 0 0 0 3.37-.41 10.44 10.44 0 0 0 3.19-1.32 7.38 7.38 0 0 0 2.38-2.37 6.53 6.53 0 0 0 .92-3.55 6 6 0 0 0-.88-3.35 6.44 6.44 0 0 0-2.36-2.1A11.46 11.46 0 0 0 22.71 27a20.71 20.71 0 0 0-3.71-.39H1l14.09 14.07c.25.06.49.14.75.18z"/>
            <path class="cls-2" d="M35.5 9.82H9.79l8.37 8.36H19a31.42 31.42 0 0 1 7.28.82 17.83 17.83 0 0 1 6.12 2.65 12.65 12.65 0 0 1 1.49 1.23l11.98 11.94H60.5z"/>
        </g>
        <path class="st_face" d="M35.5 9.82H9.79v8.36H19a31.42 31.42 0 0 1 7.28.82 17.83 17.83 0 0 1 6.12 2.65 13.08 13.08 0 0 1 4.18 4.76 15.1 15.1 0 0 1 1.53 7.07 15 15 0 0 1-1.57 7.07 14.74 14.74 0 0 1-4.14 5 18.34 18.34 0 0 1-5.95 3 25 25 0 0 1-7 1 35.93 35.93 0 0 1-7.45-.84 17.41 17.41 0 0 1-6.15-2.51 13.28 13.28 0 0 1-4.25-4.59 14.07 14.07 0 0 1-1.6-7h8.91a5 5 0 0 0 1 3.23 7.45 7.45 0 0 0 2.55 2 12 12 0 0 0 3.36 1 22.12 22.12 0 0 0 3.54.31 14.84 14.84 0 0 0 3.37-.41 10.44 10.44 0 0 0 3.19-1.32 7.38 7.38 0 0 0 2.38-2.37 6.53 6.53 0 0 0 .92-3.55 6 6 0 0 0-.88-3.35A6.44 6.44 0 0 0 26 28.07 11.46 11.46 0 0 0 22.71 27a20.71 20.71 0 0 0-3.71-.39H1V1.39h34.5z"/>
    </symbol>
    <symbol id="st_l_6" data-name="6" viewBox="0 0 64.58 76.9">
        <path class="st_sides" d="M62.84 51.44a14.72 14.72 0 0 0-2.08-2.81L45.35 33.22a18.43 18.43 0 0 1 3.14.37c.36.08.67.19 1 .29 0 0 5.63 5.6 5.63 5.63h9a12.32 12.32 0 0 0-1.6-6.43 12.75 12.75 0 0 0-1.93-2.49L35.67 5.69a13.16 13.16 0 0 0-2.45-2A19.21 19.21 0 0 0 27 1.22a33.76 33.76 0 0 0-7.42-.79 27.33 27.33 0 0 0-7.2 1 20 20 0 0 0-6.29 2.81A14.42 14.42 0 0 0 1.67 9.1 13.78 13.78 0 0 0 0 16v17.75a13.8 13.8 0 0 0 1.73 7 15.43 15.43 0 0 0 2.1 2.82l24.9 24.9a15.29 15.29 0 0 0 2.56 2.24 20.63 20.63 0 0 0 6.36 3 26.49 26.49 0 0 0 14.35 0 20.3 20.3 0 0 0 6.32-3 15.56 15.56 0 0 0 4.52-4.93 13.35 13.35 0 0 0 1.74-6.9 14.74 14.74 0 0 0-1.74-7.44z"/>
        <g class="st_shadows" fill="url(#st_lg)">
            <path class="cls-2" d="M36.34 42.93a16.12 16.12 0 0 1-3 2.78 20.3 20.3 0 0 1-6.32 3 26.49 26.49 0 0 1-14.35 0 20.63 20.63 0 0 1-6.36-3 15.3 15.3 0 0 1-2.46-2.14l24.9 24.9a15.29 15.29 0 0 0 2.56 2.24 20.63 20.63 0 0 0 6.36 3 26.49 26.49 0 0 0 14.35 0 20.3 20.3 0 0 0 6.32-3 15.36 15.36 0 0 0 3-2.8z"/>
            <path class="cls-2" d="M64.1 39.51l-25-25h-8.98l25 25h8.98z"/>
            <path class="cls-2" d="M29.78 37.31a6.56 6.56 0 0 0 .89-3.45 7.07 7.07 0 0 0-.85-3.49 7.85 7.85 0 0 0-2.28-2.52 10 10 0 0 0-3.4-1.54 16.83 16.83 0 0 0-4.22-.51 17.24 17.24 0 0 0-4.25.51 11.19 11.19 0 0 0-3.53 1.54 7.15 7.15 0 0 0-1.08.88l12.51 12.51.37-.08a11.24 11.24 0 0 0 3.46-1.43 7.43 7.43 0 0 0 2.38-2.42z"/>
            <path class="cls-2" d="M30.12 14.51L29.86 13a4.76 4.76 0 0 0-.65-1.19 7.48 7.48 0 0 0-2.38-2 13.27 13.27 0 0 0-3.34-1.19 17.7 17.7 0 0 0-3.77-.41 15.58 15.58 0 0 0-4 .52 11.72 11.72 0 0 0-3.47 1.52 8 8 0 0 0-2.44 2.56l5.91 5.91c.38-.11.76-.22 1.16-.3a14.26 14.26 0 0 1 3-.34 31.45 31.45 0 0 1 7.11.81 19 19 0 0 1 6.29 2.69 14.22 14.22 0 0 1 1.94 1.6l.48.48.09.09 9.49 9.5a18.43 18.43 0 0 1 3.14.37c.36.08.67.19 1 .29z"/>
        </g>
        <path class="st_face" d="M8.91 15.94v7.14A8.53 8.53 0 0 1 11 20.9a13.31 13.31 0 0 1 2.78-1.56 17.37 17.37 0 0 1 3.1-.95 14.26 14.26 0 0 1 3-.34 31.45 31.45 0 0 1 7.11.81 19 19 0 0 1 6.29 2.69 14.35 14.35 0 0 1 4.52 4.89 14.74 14.74 0 0 1 1.74 7.45 13.35 13.35 0 0 1-1.74 6.9 15.56 15.56 0 0 1-4.52 4.93 20.3 20.3 0 0 1-6.32 3 26.49 26.49 0 0 1-14.35 0 20.63 20.63 0 0 1-6.36-3 15.47 15.47 0 0 1-4.56-5 13.8 13.8 0 0 1-1.73-7V16a13.78 13.78 0 0 1 1.71-6.9 14.42 14.42 0 0 1 4.42-4.86 20 20 0 0 1 6.29-2.85 27.33 27.33 0 0 1 7.2-1 33.76 33.76 0 0 1 7.42.83 19.21 19.21 0 0 1 6.22 2.48 12.9 12.9 0 0 1 4.28 4.38 12.32 12.32 0 0 1 1.6 6.43h-9a4.38 4.38 0 0 0-.91-2.75 7.48 7.48 0 0 0-2.38-2 13.27 13.27 0 0 0-3.34-1.19 17.7 17.7 0 0 0-3.77-.41 15.58 15.58 0 0 0-4 .52 11.49 11.49 0 0 0-3.47 1.53 7.91 7.91 0 0 0-2.44 2.55 6.46 6.46 0 0 0-.92 3.43zm11 25.7a17.26 17.26 0 0 0 4.08-.48 11.24 11.24 0 0 0 3.46-1.43 7.43 7.43 0 0 0 2.38-2.42 6.56 6.56 0 0 0 .89-3.45 7.07 7.07 0 0 0-.85-3.49 7.85 7.85 0 0 0-2.28-2.52 10 10 0 0 0-3.4-1.54 16.83 16.83 0 0 0-4.22-.51 17.24 17.24 0 0 0-4.25.51 11.19 11.19 0 0 0-3.53 1.54 7.33 7.33 0 0 0-2.38 2.52 7 7 0 0 0-.85 3.49 6.31 6.31 0 0 0 .92 3.45 7.73 7.73 0 0 0 2.41 2.42 11.3 11.3 0 0 0 3.47 1.43 17.42 17.42 0 0 0 4.1.48z"/>
    </symbol>
    <symbol id="st_l_7" data-name="7" viewBox="0 0 60.43 76.9">
        <path class="st_sides" d="M59.95 26.32l-25-25H0v8.56L15.51 25.3 3.74 48.92l25 25h10.34l21.35-42.84-.48-4.76z"/>
        <g class="st_shadows" fill="url(#st_lg)">
            <path class="cls-2" d="M0 9.88L15.51 25.3l7.68-15.42H0z"/>
            <path class="cls-2" d="M39.08 73.92l-25-25H3.74l25 25h10.34z"/>
        </g>
        <path class="st_face" d="M3.74 48.92l19.45-39H0v-8.6h35l.48 4.76-21.4 42.84z"/>
    </symbol>
    <symbol id="st_l_8" data-name="8" viewBox="0 0 66.07 76.9">
        <path class="st_sides" d="M65.63 56.65a12.07 12.07 0 0 0-1.32-3 11.6 11.6 0 0 0-1.67-2.13l-2.77-2.77 1.78-1.46A10 10 0 0 0 63.56 45a9.58 9.58 0 0 0 1.09-2.52A10.16 10.16 0 0 0 65 40a12.17 12.17 0 0 0-1.6-6.26 13.65 13.65 0 0 0-2-2.57S36.57 6.29 36.53 6.26a14.29 14.29 0 0 0-2.46-2.09 20.2 20.2 0 0 0-6.22-2.75A29.15 29.15 0 0 0 20.47.5a28.66 28.66 0 0 0-7.34.92A19.63 19.63 0 0 0 7 4.14a13.31 13.31 0 0 0-4.18 4.52A12.68 12.68 0 0 0 1.29 15a10.19 10.19 0 0 0 1.47 5.27 9.6 9.6 0 0 0 1.88 2.28l2.08 2.08a11.68 11.68 0 0 0-2.64 1.65 11.16 11.16 0 0 0-2.24 2.55 12.24 12.24 0 0 0-1.36 2.88A9.37 9.37 0 0 0 0 34.57a13.35 13.35 0 0 0 1.67 7.14 13.88 13.88 0 0 0 2.09 2.71s24.86 24.87 24.9 24.9a14.1 14.1 0 0 0 2.63 2.15 21.15 21.15 0 0 0 6.6 2.69 34.2 34.2 0 0 0 7.58.85 35.46 35.46 0 0 0 7.72-.85 21.11 21.11 0 0 0 6.66-2.69 13.09 13.09 0 0 0 6.22-11.9 10.51 10.51 0 0 0-.44-2.92z"/>
        <g class="st_shadows" fill="url(#st_lg)">
            <path class="cls-2" d="M38.62 42.93a13.49 13.49 0 0 1-3.76 3.53 21.11 21.11 0 0 1-6.66 2.69 35.46 35.46 0 0 1-7.72.85 34.2 34.2 0 0 1-7.58-.85 21.15 21.15 0 0 1-6.6-2.69 14.09 14.09 0 0 1-2.53-2s24.86 24.87 24.9 24.9a14.1 14.1 0 0 0 2.63 2.15 21.15 21.15 0 0 0 6.6 2.69 34.2 34.2 0 0 0 7.58.85 35.46 35.46 0 0 0 7.72-.85 21.11 21.11 0 0 0 6.66-2.69 13.7 13.7 0 0 0 3.77-3.54z"/>
            <path class="cls-2" d="M31 37.43a5.63 5.63 0 0 0 .71-2.72 5.21 5.21 0 0 0-.92-3.07 6.9 6.9 0 0 0-2.45-2.1 13.09 13.09 0 0 0-3.53-1.23 21.52 21.52 0 0 0-4.25-.4 20.17 20.17 0 0 0-4.08.4 13.54 13.54 0 0 0-3.54 1.23L24.79 41.4l.58-.13a11.22 11.22 0 0 0 3.5-1.57A6.85 6.85 0 0 0 31 37.43z"/>
            <path class="cls-2" d="M29.75 17.5a5.44 5.44 0 0 0-1.9-7.65A13.11 13.11 0 0 0 20.47 8a15.43 15.43 0 0 0-4.42.58 10.48 10.48 0 0 0-2.48 1.09l11.19 11.17a10 10 0 0 0 2.85-1.23 7 7 0 0 0 2.14-2.11z"/>
            <path class="cls-2" d="M36.86 22.05l-.21.21A9.94 9.94 0 0 1 33.87 24a11.06 11.06 0 0 1 3.19 2l.3.29.27.27.1.1 22.14 22.06 1.78-1.46.21-.21z"/>
            <path class="cls-2" d="M4.64 22.54l2.08 2.08.56-.25a13.11 13.11 0 0 1-2.64-1.83z"/>
        </g>
        <path class="st_face" d="M0 34.57a9.37 9.37 0 0 1 .48-2.86 12.24 12.24 0 0 1 1.36-2.89 11.16 11.16 0 0 1 2.24-2.55 11.74 11.74 0 0 1 3.2-1.9 11.15 11.15 0 0 1-4.52-4.11A10.19 10.19 0 0 1 1.29 15a12.7 12.7 0 0 1 1.53-6.34A13.31 13.31 0 0 1 7 4.14a19.63 19.63 0 0 1 6.12-2.72A28.66 28.66 0 0 1 20.47.5a29.15 29.15 0 0 1 7.38.92 20.2 20.2 0 0 1 6.22 2.75 14.22 14.22 0 0 1 4.32 4.56A12.17 12.17 0 0 1 40 15a10.16 10.16 0 0 1-.34 2.51 9.58 9.58 0 0 1-1.1 2.49 9.86 9.86 0 0 1-4.69 4 11.06 11.06 0 0 1 3.19 2 11.84 11.84 0 0 1 2.25 2.69 12.17 12.17 0 0 1 1.32 3 10.64 10.64 0 0 1 .44 2.93 13.09 13.09 0 0 1-6.22 11.9 21.11 21.11 0 0 1-6.66 2.69 35.46 35.46 0 0 1-7.72.85 34.2 34.2 0 0 1-7.58-.85 21.15 21.15 0 0 1-6.6-2.69 13.93 13.93 0 0 1-4.62-4.76A13.35 13.35 0 0 1 0 34.57zm20.54-6.66a20.17 20.17 0 0 0-4.08.4 13.54 13.54 0 0 0-3.54 1.23 7.53 7.53 0 0 0-2.55 2.1 4.92 4.92 0 0 0-1 3.07 5.38 5.38 0 0 0 .71 2.65 7 7 0 0 0 2.11 2.28 11.59 11.59 0 0 0 3.5 1.59 17.21 17.21 0 0 0 4.83.62 18.59 18.59 0 0 0 4.83-.58 11.22 11.22 0 0 0 3.5-1.57A6.85 6.85 0 0 0 31 37.43a5.63 5.63 0 0 0 .71-2.72 5.21 5.21 0 0 0-.92-3.07 6.9 6.9 0 0 0-2.45-2.1 13.09 13.09 0 0 0-3.53-1.23 21.52 21.52 0 0 0-4.27-.4zm-10.07-13.2a5.19 5.19 0 0 0 .92 2.79 8 8 0 0 0 2.21 2.11 10.12 10.12 0 0 0 3.16 1.32 15.53 15.53 0 0 0 3.78.45 16.16 16.16 0 0 0 3.87-.45 10.06 10.06 0 0 0 3.2-1.32 7 7 0 0 0 2.14-2.11 5.44 5.44 0 0 0-1.9-7.65A13.11 13.11 0 0 0 20.47 8a15.43 15.43 0 0 0-4.42.58 9.62 9.62 0 0 0-3.16 1.56A6.75 6.75 0 0 0 11 12.3a4.68 4.68 0 0 0-.53 2.41z"/>
    </symbol>
    <symbol id="st_l_9" data-name="9" viewBox="0 0 64.58 76.9">
        <path class="st_sides" d="M62.84 34.34a15.85 15.85 0 0 0-2.09-2.82l-24.9-24.9a16.12 16.12 0 0 0-2.56-2.24 20.84 20.84 0 0 0-6.36-3 26.49 26.49 0 0 0-14.35 0 20.09 20.09 0 0 0-6.32 3 15.71 15.71 0 0 0-4.53 4.93A13.44 13.44 0 0 0 0 16.21a14.85 14.85 0 0 0 1.73 7.45 14.77 14.77 0 0 0 2.09 2.81l15.4 15.41a18.9 18.9 0 0 1-3.17-.37c-.47-.1-.9-.24-1.34-.37 0 0-5.53-5.52-5.53-5.55H.2A12.17 12.17 0 0 0 1.84 42a12.75 12.75 0 0 0 2 2.48L28.7 69.4a13.78 13.78 0 0 0 2.52 2 20 20 0 0 0 6.33 2.48 34.76 34.76 0 0 0 7.44.79 27.08 27.08 0 0 0 7.18-1 20.05 20.05 0 0 0 6.25-2.85A15 15 0 0 0 62.88 66a13.6 13.6 0 0 0 1.7-6.94V41.35a13.71 13.71 0 0 0-1.74-7.01z"/>
        <g class="st_shadows" fill="url(#st_lg)">
            <path class="cls-2" d="M36.52 43a14.75 14.75 0 0 1-3.1 2.9 20.05 20.05 0 0 1-6.25 2.85 27.08 27.08 0 0 1-7.18 1 34.76 34.76 0 0 1-7.44-.79 20 20 0 0 1-6.33-2.56 13.36 13.36 0 0 1-2.42-1.9l24.9 24.9a13.78 13.78 0 0 0 2.52 2 20 20 0 0 0 6.33 2.48 34.76 34.76 0 0 0 7.44.79 27.08 27.08 0 0 0 7.18-1 20.05 20.05 0 0 0 6.25-2.85 14.75 14.75 0 0 0 3.1-2.9z"/>
            <path class="cls-2" d="M23.83 41.4a11.38 11.38 0 0 0 3.47-1.53 8.14 8.14 0 0 0 2.45-2.51 6.54 6.54 0 0 0 .92-3.47V27a8.88 8.88 0 0 1-2.11 2.18 13.13 13.13 0 0 1-2.79 1.56 17.52 17.52 0 0 1-3.09.95 14.42 14.42 0 0 1-3 .34 31.37 31.37 0 0 1-7.1-.81 18.8 18.8 0 0 1-6.29-2.69 13.9 13.9 0 0 1-2.44-2.08l15.4 15.41h.64a15.49 15.49 0 0 0 3.94-.46z"/>
            <path class="cls-2" d="M27.44 22.25a7.42 7.42 0 0 0 2.38-2.52 7.07 7.07 0 0 0 .85-3.49 6.4 6.4 0 0 0-.92-3.45 7.84 7.84 0 0 0-2.41-2.42 11.16 11.16 0 0 0-3.47-1.43 17.54 17.54 0 0 0-4.15-.48 17.13 17.13 0 0 0-4.08.48 11.06 11.06 0 0 0-3.47 1.43l13 13a10.38 10.38 0 0 0 2.27-1.12z"/>
        </g>
        <path class="st_face" d="M30.67 34.16V27a8.88 8.88 0 0 1-2.11 2.18 13.13 13.13 0 0 1-2.79 1.56 17.52 17.52 0 0 1-3.09.95 14.42 14.42 0 0 1-3 .34 31.37 31.37 0 0 1-7.1-.81 18.8 18.8 0 0 1-6.29-2.69 14.48 14.48 0 0 1-4.53-4.89A14.85 14.85 0 0 1 0 16.21a13.44 13.44 0 0 1 1.73-6.9 15.71 15.71 0 0 1 4.53-4.93 20.09 20.09 0 0 1 6.32-3 26.49 26.49 0 0 1 14.35 0 20.84 20.84 0 0 1 6.36 3 15.32 15.32 0 0 1 4.55 5 13.71 13.71 0 0 1 1.74 7v17.71a13.6 13.6 0 0 1-1.7 6.91 15 15 0 0 1-4.46 4.83 20.05 20.05 0 0 1-6.25 2.85 27.08 27.08 0 0 1-7.18 1 34.76 34.76 0 0 1-7.44-.79 20 20 0 0 1-6.33-2.49A13 13 0 0 1 1.84 42 12.15 12.15 0 0 1 .2 35.59h9a4.29 4.29 0 0 0 1 2.75 7.57 7.57 0 0 0 2.48 2 14.36 14.36 0 0 0 3.44 1.19 18.27 18.27 0 0 0 3.81.4 15.49 15.49 0 0 0 4-.51 11.38 11.38 0 0 0 3.47-1.53 8.14 8.14 0 0 0 2.45-2.51 6.54 6.54 0 0 0 .92-3.47zm-11-25.7a17.13 17.13 0 0 0-4.08.48 11.06 11.06 0 0 0-3.47 1.43 7.43 7.43 0 0 0-2.38 2.42 6.56 6.56 0 0 0-.88 3.45 7 7 0 0 0 .85 3.49A7.62 7.62 0 0 0 12 22.25a9.92 9.92 0 0 0 3.4 1.54 16.75 16.75 0 0 0 4.21.51 17.18 17.18 0 0 0 4.25-.51 11.15 11.15 0 0 0 3.54-1.54 7.42 7.42 0 0 0 2.38-2.52 7.07 7.07 0 0 0 .85-3.49 6.4 6.4 0 0 0-.92-3.45 7.84 7.84 0 0 0-2.41-2.42 11.16 11.16 0 0 0-3.47-1.43 17.54 17.54 0 0 0-4.11-.48z"/>
    </symbol>
    <symbol id="st_l__x3F_" data-name="?" viewBox="0 0 61.38 76.9">
        <path class="st_sides" d="M60 33.87a13.31 13.31 0 0 0-1.84-2.57L33.21 6.4a12.71 12.71 0 0 0-2.27-2 17.85 17.85 0 0 0-5.85-2.55 29.22 29.22 0 0 0-6.93-.81 27.4 27.4 0 0 0-6.87.84 17.32 17.32 0 0 0-5.78 2.67 13.3 13.3 0 0 0-4 4.55A13.39 13.39 0 0 0 0 15.6s12.85 12.8 12.85 12.83c-.12.32-.23.66-.34 1a20.5 20.5 0 0 0-.68 5.74l3.38 3.36a6.12 6.12 0 0 0-2.7 1.23 4.83 4.83 0 0 0-1.7 4 4.84 4.84 0 0 0 1.7 4l25 25a5.82 5.82 0 0 0 7.48 0 5.63 5.63 0 0 0 0-8.06l-4.56-4.56h5.38a10.35 10.35 0 0 1 .61-3.88 5.44 5.44 0 0 1 2-2.44 17.78 17.78 0 0 1 3.71-1.87 23.18 23.18 0 0 0 4.28-2.21 12.54 12.54 0 0 0 3.54-3.57 10.59 10.59 0 0 0 1.46-5.89A12.88 12.88 0 0 0 60 33.87z"/>
        <g class="st_shadows" fill="url(#st_lg)">
            <path class="cls-2" d="M20 47.83a5.82 5.82 0 0 1-7.48 0l25 25a5.82 5.82 0 0 0 7.48 0z"/>
            <path class="cls-2" d="M20.81 35.25l-9-.07 3.38 3.36A6 6 0 0 1 20 39.77a3.85 3.85 0 0 1 .49.5l19.94 19.94h5.38z"/>
            <path class="cls-2" d="M34 22.45a12.31 12.31 0 0 1-2.66 2.4 23.18 23.18 0 0 1-4.28 2.21 17.78 17.78 0 0 0-3.71 1.87l25 25a17.78 17.78 0 0 1 3.71-1.87 23.18 23.18 0 0 0 4.28-2.21 12.06 12.06 0 0 0 2.66-2.4z"/>
            <path class="cls-2" d="M12.85 28.43a10.51 10.51 0 0 1 1.4-2.7 9 9 0 0 1 2.38-2.28l.21-.13-7.73-7.72H0l12.85 12.83z"/>
            <path class="cls-2" d="M22 20.63a16.36 16.36 0 0 0 2.48-1.22 6.87 6.87 0 0 0 1.84-1.6 3.91 3.91 0 0 0 .71-2.48 5.86 5.86 0 0 0-.81-3.23 6 6 0 0 0-2.11-2 9.23 9.23 0 0 0-2.92-1A19.65 19.65 0 0 0 18 8.87a11.81 11.81 0 0 0-3.23.44 9 9 0 0 0-2.86 1.32 8 8 0 0 0-1.12 1l9.7 9.69c.51-.27 1.03-.49 1.51-.69z"/>
        </g>
        <path class="st_face" d="M0 15.6a13.39 13.39 0 0 1 1.5-6.5 13.3 13.3 0 0 1 4-4.55 17.11 17.11 0 0 1 5.79-2.65 26.94 26.94 0 0 1 6.87-.85 29.22 29.22 0 0 1 6.93.81 17.85 17.85 0 0 1 5.85 2.55 12.84 12.84 0 0 1 4 4.46 12.85 12.85 0 0 1 1.43 6.52 10.59 10.59 0 0 1-1.46 5.89 12.54 12.54 0 0 1-3.54 3.57 23.18 23.18 0 0 1-4.28 2.21 17.78 17.78 0 0 0-3.71 1.87 5.44 5.44 0 0 0-2 2.44 10.35 10.35 0 0 0-.61 3.88l-9-.07a20.5 20.5 0 0 1 .68-5.74 11.75 11.75 0 0 1 1.74-3.71 9 9 0 0 1 2.38-2.28c.88-.56 1.77-1.1 2.68-1.6S21.12 21 22 20.63a16.36 16.36 0 0 0 2.48-1.22 6.87 6.87 0 0 0 1.84-1.6 3.91 3.91 0 0 0 .71-2.48 5.86 5.86 0 0 0-.81-3.23 6 6 0 0 0-2.11-2 9.23 9.23 0 0 0-2.92-1A19.65 19.65 0 0 0 18 8.87a11.81 11.81 0 0 0-3.23.44 9 9 0 0 0-2.86 1.32 7.57 7.57 0 0 0-2 2.11 5.22 5.22 0 0 0-.78 2.86zm10.81 28.22a4.83 4.83 0 0 1 1.7-4 6 6 0 0 1 7.48 0 4.83 4.83 0 0 1 1.7 4 4.84 4.84 0 0 1-1.7 4 5.82 5.82 0 0 1-7.48 0 4.84 4.84 0 0 1-1.7-4z"/>
    </symbol>
    <symbol id="st_l__x40_" data-name="@" viewBox="0 0 74.59 76.9">
        <path class="st_sides" d="M72.57 41.1a21.39 21.39 0 0 0-3.93-6.1S46.11 12.52 46.09 12.49a19.62 19.62 0 0 0-1.68-1.61 23 23 0 0 0-8.25-4.44A35.3 35.3 0 0 0 25.87 5a29.58 29.58 0 0 0-9.67 1.6 24.79 24.79 0 0 0-8.29 4.74 23 23 0 0 0-5.75 7.76A25 25 0 0 0 0 29.82a25.11 25.11 0 0 0 2.19 11 22.07 22.07 0 0 0 4.13 6l22.56 22.51a20.35 20.35 0 0 0 1.74 1.61 23.66 23.66 0 0 0 8.13 4.35A31.64 31.64 0 0 0 48 76.67a28.29 28.29 0 0 0 5.61-.58 19.6 19.6 0 0 0 6-2.44l-2.29-4.55L54 65.82a10 10 0 0 0 1.48-1.13 5.74 5.74 0 0 0 .69-.79l.9.9c.13.15 1.63 1.64 1.66 1.67a4.51 4.51 0 0 0 .54.44 5.54 5.54 0 0 0 2 .89 8.68 8.68 0 0 0 2 .25 9.84 9.84 0 0 0 4.8-1.14 10.24 10.24 0 0 0 3.55-3.24 15.25 15.25 0 0 0 2.18-5.05 27.55 27.55 0 0 0 .77-6.62 27.11 27.11 0 0 0-2-10.9z"/>
        <g class="st_shadows" fill="url(#st_lg)">
            <path class="cls-2" d="M37 51a19.71 19.71 0 0 1-6 2.43 28.3 28.3 0 0 1-5.6.59 31.6 31.6 0 0 1-9.27-1.39A23.47 23.47 0 0 1 8 48.3a21.79 21.79 0 0 1-1.66-1.53l22.54 22.56a20.35 20.35 0 0 0 1.74 1.61 23.66 23.66 0 0 0 8.13 4.35A31.64 31.64 0 0 0 48 76.67a28.29 28.29 0 0 0 5.61-.58 19.6 19.6 0 0 0 6-2.44z"/>
            <path class="cls-2" d="M36.21 43.91a5.64 5.64 0 0 1-1.13-1.4 5.74 5.74 0 0 1-.65-2.9 6 6 0 0 1-1.57 2.44 10.13 10.13 0 0 1-2.37 1.66 11.65 11.65 0 0 1-2.62.95 10.09 10.09 0 0 1-2.31.31 17.21 17.21 0 0 1-6.22-1.11 15.07 15.07 0 0 1-5-3.11l7.83 7.83a29.45 29.45 0 0 0 3.41.21 23.57 23.57 0 0 0 4.31-.46 14.46 14.46 0 0 0 4.81-1.88L54 65.81a9.84 9.84 0 0 0 1.47-1.12 5.74 5.74 0 0 0 .69-.79z"/>
            <path class="cls-2" d="M48 42.28a9.49 9.49 0 0 1-7.33 3.12 9.29 9.29 0 0 1-2-.24 5.82 5.82 0 0 1-2-.9 4.82 4.82 0 0 1-.44-.35l20 20 .9.9c.13.15 1.63 1.64 1.66 1.67a4.51 4.51 0 0 0 .54.44 5.54 5.54 0 0 0 2 .89 8.68 8.68 0 0 0 2 .25 9.49 9.49 0 0 0 7.32-3.12z"/>
            <path class="cls-2" d="M31.78 23.5a7.65 7.65 0 0 0-2.64-1.81 9.67 9.67 0 0 0-3.76-.69 8.74 8.74 0 0 0-3.73.74 7.64 7.64 0 0 0-2.62 2L31.4 36.09c.12-.12.24-.23.35-.36a8 8 0 0 0 1.6-2.83 11 11 0 0 0 .53-3.45 10.1 10.1 0 0 0-.53-3.27 7.59 7.59 0 0 0-1.57-2.68z"/>
            <path class="cls-2" d="M41 14.79q-5.24-4.74-15.15-4.74A22.08 22.08 0 0 0 18 11.43a19.09 19.09 0 0 0-6.38 3.94c-.37.35-.71.73-1.05 1.11l3 3a14.9 14.9 0 0 1 4.16-3.23 15.32 15.32 0 0 1 5.37-1.65 17.32 17.32 0 0 1 3 0 12.41 12.41 0 0 1 3.05.71 11.1 11.1 0 0 1 2.74 1.51 7.71 7.71 0 0 1 2.11 2.4l.49-3.14 5.3.8 5.67 5.67A15.22 15.22 0 0 0 41 14.79z"/>
        </g>
        <path class="st_face" d="M25.87 10.05A22.08 22.08 0 0 0 18 11.43a19.09 19.09 0 0 0-6.38 3.94 18.77 18.77 0 0 0-4.29 6.23 20.26 20.26 0 0 0-1.6 8.22 21.34 21.34 0 0 0 1.63 8.84 16 16 0 0 0 4.37 5.85 17.19 17.19 0 0 0 6.35 3.26 27.34 27.34 0 0 0 7.48 1 23.57 23.57 0 0 0 4.31-.46 14.46 14.46 0 0 0 4.81-1.88L37 51a19.71 19.71 0 0 1-6 2.43 28.3 28.3 0 0 1-5.6.59 31.6 31.6 0 0 1-9.27-1.39A23.47 23.47 0 0 1 8 48.3a21.5 21.5 0 0 1-5.79-7.52A25.11 25.11 0 0 1 0 29.82 25 25 0 0 1 2.16 19.1a23 23 0 0 1 5.75-7.76A24.79 24.79 0 0 1 16.2 6.6 29.58 29.58 0 0 1 25.87 5a35.3 35.3 0 0 1 10.29 1.44 23 23 0 0 1 8.25 4.44 20.55 20.55 0 0 1 5.51 7.57 27 27 0 0 1 2 10.88 27.61 27.61 0 0 1-.73 6.67A15.66 15.66 0 0 1 49 41a10.27 10.27 0 0 1-3.54 3.23 9.91 9.91 0 0 1-4.81 1.14 9.29 9.29 0 0 1-2-.24 5.82 5.82 0 0 1-2-.9 5.35 5.35 0 0 1-1.57-1.75 5.74 5.74 0 0 1-.65-2.9 6 6 0 0 1-1.57 2.44 10.13 10.13 0 0 1-2.37 1.66 11.65 11.65 0 0 1-2.62.95 10.09 10.09 0 0 1-2.31.31 17.21 17.21 0 0 1-6.22-1.11 15.07 15.07 0 0 1-5-3.11A14 14 0 0 1 11 36a15.24 15.24 0 0 1-1.21-6.13 15.67 15.67 0 0 1 1-5.67 14.56 14.56 0 0 1 7-7.88 15.32 15.32 0 0 1 5.31-1.72 17.32 17.32 0 0 1 3 0 12.41 12.41 0 0 1 3.05.71 11.1 11.1 0 0 1 2.74 1.51 7.71 7.71 0 0 1 2.11 2.4l.49-3.14 5.3.8v22a1.07 1.07 0 0 0 .65 1.05 1.69 1.69 0 0 0 1.14.19 5 5 0 0 0 2.34-1.48 7.86 7.86 0 0 0 1.45-2.47 13.25 13.25 0 0 0 .7-3.11 31 31 0 0 0 .19-3.54q0-10-5.24-14.72t-15.15-4.75zm-.49 11a8.74 8.74 0 0 0-3.73.74 7.64 7.64 0 0 0-2.62 2 8 8 0 0 0-1.54 2.8 10.74 10.74 0 0 0-.49 3.17 10.39 10.39 0 0 0 .49 3.2A7.65 7.65 0 0 0 19 35.7a7.75 7.75 0 0 0 2.65 1.94 8.94 8.94 0 0 0 3.76.74 8.85 8.85 0 0 0 3.66-.71 7.62 7.62 0 0 0 2.65-1.94 8 8 0 0 0 1.6-2.83 11 11 0 0 0 .53-3.45 10.1 10.1 0 0 0-.53-3.27 7.23 7.23 0 0 0-4.21-4.49 9.67 9.67 0 0 0-3.73-.69z"/>
    </symbol>
    <symbol id="st_l_A" viewBox="0 0 77.5 76.9">
        <path class="st_sides" d="M77.5 73.85l-21.36-47.6-25-25h-9.79L0 48.85l25 25h9.72l4.08-8.9h20l8.9 8.9h9.8z"/>
        <g class="st_shadows" fill="url(#st_lg)">
            <path class="cls-2" d="M25 73.85l-25-25h9.72l25 25H25z"/>
            <path class="cls-2" d="M38.69 39.95H13.8l25 25h20l-16.09-16.1-4.02-8.9z"/>
            <path class="cls-2" d="M67.7 73.85l-25-25h9.8l25 25h-9.8z"/>
        </g>
        <path class="st_face" d="M31.14 1.25h-9.79L0 48.85h9.72L13.8 40h24.89l4 8.9h9.8zM17.41 31.51l8.84-20.26 8.84 20.26z"/>
    </symbol>
    <symbol id="st_l_B" viewBox="0 0 65.39 76.9">
        <path class="st_sides" d="M65 57.19a12.27 12.27 0 0 0-1.32-3.12 12.39 12.39 0 0 0-1.76-2.31l-3.08-3.06a9.32 9.32 0 0 0 3.7-3.41A10.2 10.2 0 0 0 64 40.06a14.35 14.35 0 0 0-1.25-6.22 11.94 11.94 0 0 0-2.45-3.43L35.36 5.51a11.16 11.16 0 0 0-1.09-1 14.7 14.7 0 0 0-5.17-2.44 24.87 24.87 0 0 0-6.52-.82H0v47.6l25 25h22.58a33.45 33.45 0 0 0 6.93-.68 15.65 15.65 0 0 0 5.68-2.31A11.47 11.47 0 0 0 64 66.54a14.41 14.41 0 0 0 1.39-6.69 10.53 10.53 0 0 0-.39-2.66z"/>
        <g class="st_shadows" fill="url(#st_lg)">
            <path class="cls-2" d="M22.58 20.36q4.22 0 5.84-1.53a4.75 4.75 0 0 0 1.64-3.57 5.39 5.39 0 0 0-.38-1.83 5.58 5.58 0 0 0-1.22-1.91A6.73 6.73 0 0 0 26.15 10a9.24 9.24 0 0 0-3.57-.62H8.84l11 11z"/>
            <path class="cls-2" d="M25.5 40.15a10.73 10.73 0 0 0 2.89-.91 6.4 6.4 0 0 0 2.21-1.73 4.22 4.22 0 0 0 .88-2.77 4.7 4.7 0 0 0-.88-2.84 7.67 7.67 0 0 0-2.21-2 10.58 10.58 0 0 0-2.89-1.21 11.71 11.71 0 0 0-2.92-.41H8.84L21 40.42h1.57a17.24 17.24 0 0 0 2.93-.27z"/>
            <path class="cls-2" d="M38.75 42a11.39 11.39 0 0 1-3.53 3.86 15.65 15.65 0 0 1-5.68 2.31 33.45 33.45 0 0 1-6.93.68H0l25 25h22.58a33.45 33.45 0 0 0 6.93-.68 15.65 15.65 0 0 0 5.68-2.31A11.48 11.48 0 0 0 63.74 67z"/>
            <path class="cls-2" d="M37.54 20.29a10 10 0 0 1-4.76 3.95 8.7 8.7 0 0 1 3.53 1.93l.59.59.1.1L58.84 48.7a9.32 9.32 0 0 0 3.7-3.41z"/>
        </g>
        <path class="st_face" d="M22.58 1.25a24.87 24.87 0 0 1 6.52.82 14.7 14.7 0 0 1 5.17 2.48 11.66 11.66 0 0 1 3.44 4.29A14.35 14.35 0 0 1 39 15.06a10.2 10.2 0 0 1-1.42 5.23 10 10 0 0 1-4.76 3.95 8.6 8.6 0 0 1 3.53 1.94 12.53 12.53 0 0 1 2.35 2.89 12.27 12.27 0 0 1 1.3 3.12 10.53 10.53 0 0 1 .41 2.66A14.41 14.41 0 0 1 39 41.54a11.47 11.47 0 0 1-3.81 4.32 15.65 15.65 0 0 1-5.68 2.31 33.45 33.45 0 0 1-6.93.68H0V1.25zM8.84 20.36h13.74q4.22 0 5.84-1.53a4.75 4.75 0 0 0 1.64-3.57 5.39 5.39 0 0 0-.38-1.83 5.58 5.58 0 0 0-1.22-1.91A6.73 6.73 0 0 0 26.15 10a9.24 9.24 0 0 0-3.57-.62H8.84zm0 20.06h13.74a17.24 17.24 0 0 0 2.92-.27 10.73 10.73 0 0 0 2.89-.91 6.4 6.4 0 0 0 2.21-1.73 4.22 4.22 0 0 0 .88-2.77 4.7 4.7 0 0 0-.88-2.84 7.67 7.67 0 0 0-2.21-2 10.58 10.58 0 0 0-2.89-1.21 11.71 11.71 0 0 0-2.92-.41H8.84z"/>
    </symbol>
    <symbol id="st_l_C" viewBox="0 0 68.32 76.9">
        <path class="st_sides" d="M62.2 61.68L38.65 38.13a15.7 15.7 0 0 1 4.17-2.8 17.4 17.4 0 0 1 7.41-1.46A17.72 17.72 0 0 1 56.35 35a15 15 0 0 1 5.37 3.4l6-5.78-25-25a24.39 24.39 0 0 0-8.14-5.52A24.74 24.74 0 0 0 25.23.3 26.77 26.77 0 0 0 14 2.48a23.22 23.22 0 0 0-7.88 5.71 22.76 22.76 0 0 0-4.62 8 28.81 28.81 0 0 0 0 18.23A22.15 22.15 0 0 0 6 42.29l25 25a22.43 22.43 0 0 0 7.82 5.54 28.07 28.07 0 0 0 11.43 2.11 28.23 28.23 0 0 0 9.75-1.7 22.73 22.73 0 0 0 8.3-5.37z"/>
        <g class="st_shadows" fill="url(#st_lg)">
            <path class="cls-2" d="M43.32 42.87A22.73 22.73 0 0 1 35 48.24a28.23 28.23 0 0 1-9.79 1.7 28.07 28.07 0 0 1-11.41-2.11 22.9 22.9 0 0 1-6.51-4.24L31 67.29a22.43 22.43 0 0 0 7.82 5.54 28.07 28.07 0 0 0 11.43 2.11 28.23 28.23 0 0 0 9.75-1.7 22.73 22.73 0 0 0 8.3-5.37z"/>
            <path class="cls-2" d="M36.72 13.36A15 15 0 0 0 31.35 10a17.72 17.72 0 0 0-6.12-1.09 17.4 17.4 0 0 0-7.41 1.46 15.11 15.11 0 0 0-5.14 3.81l23.48 23.44c.35-.3.7-.61 1-.94l2.85 2.88-1.43-1.43a15.7 15.7 0 0 1 4.17-2.8 17.4 17.4 0 0 1 7.41-1.46A17.72 17.72 0 0 1 56.35 35a15 15 0 0 1 5.37 3.4z"/>
        </g>
        <path class="st_face" d="M43.32 42.87A22.73 22.73 0 0 1 35 48.24a28.23 28.23 0 0 1-9.79 1.7 28.07 28.07 0 0 1-11.41-2.11A22.43 22.43 0 0 1 6 42.29a22.15 22.15 0 0 1-4.52-7.85 28.81 28.81 0 0 1 0-18.23 22.76 22.76 0 0 1 4.62-8A23.22 23.22 0 0 1 14 2.48 26.77 26.77 0 0 1 25.23.3a24.74 24.74 0 0 1 9.35 1.8 24.39 24.39 0 0 1 8.12 5.48l-6 5.78A15 15 0 0 0 31.35 10a17.72 17.72 0 0 0-6.12-1.09 17.4 17.4 0 0 0-7.41 1.46 15.11 15.11 0 0 0-5.14 3.81 14.74 14.74 0 0 0-2.92 5.3 20.1 20.1 0 0 0-.92 5.95 19 19 0 0 0 .92 5.85 14.76 14.76 0 0 0 2.89 5.17 14.19 14.19 0 0 0 5.06 3.71 18.26 18.26 0 0 0 7.52 1.39 18 18 0 0 0 6.36-1.22 15.78 15.78 0 0 0 5.61-3.61z"/>
    </symbol>
    <symbol id="st_l_D" viewBox="0 0 67.5 76.9">
        <path class="st_sides" d="M66 41a21.53 21.53 0 0 0-4.36-7.48l-25-25a21.7 21.7 0 0 0-7.38-5.27 25.53 25.53 0 0 0-10.57-2H0v47.6l25 25h18.7a25.75 25.75 0 0 0 10.78-2.07 21.22 21.22 0 0 0 7.44-5.51 22.06 22.06 0 0 0 4.29-7.78A28.15 28.15 0 0 0 66 41z"/>
        <g class="st_shadows" fill="url(#st_lg)">
            <path class="cls-2" d="M36.2 42a21.39 21.39 0 0 1-6.72 4.75 25.75 25.75 0 0 1-10.78 2.1H0l25 25h18.7a25.75 25.75 0 0 0 10.78-2.07A21.39 21.39 0 0 0 61.2 67z"/>
            <path class="cls-2" d="M32.88 30.27a19.33 19.33 0 0 0 .71-5.73 18.41 18.41 0 0 0-1-5.45A14.08 14.08 0 0 0 30 14.32 12.87 12.87 0 0 0 25.36 11a16.09 16.09 0 0 0-6.66-1.31H8.91l23 23a13.57 13.57 0 0 0 .97-2.42z"/>
        </g>
        <path class="st_face" d="M18.7 1.25a25.53 25.53 0 0 1 10.57 2 21.7 21.7 0 0 1 7.38 5.27A21.35 21.35 0 0 1 41 16a27.73 27.73 0 0 1 1.5 8.64 28.09 28.09 0 0 1-1.29 8.84 22.06 22.06 0 0 1-4.29 7.78 21.22 21.22 0 0 1-7.44 5.51 25.75 25.75 0 0 1-10.78 2.08H0V1.25zm-9.79 39h9.79a16 16 0 0 0 6.94-1.37 13.2 13.2 0 0 0 4.65-3.57 13.61 13.61 0 0 0 2.59-5 19.33 19.33 0 0 0 .71-5.73 18.41 18.41 0 0 0-1-5.45A14.08 14.08 0 0 0 30 14.32 12.87 12.87 0 0 0 25.36 11a16.09 16.09 0 0 0-6.66-1.31H8.91z"/>
    </symbol>
    <symbol id="st_l_E" viewBox="0 0 60.63 76.9">
        <path class="st_sides" d="M60.63 34.96v-8.71l-25-25H0v47.6l25 25h35.63v-8.84L49.86 54.34h9.82v-8.43L48.71 34.96h11.92z"/>
        <g class="st_shadows" fill="url(#st_lg)">
            <path class="cls-2" d="M0 48.85l25 25h35.63l-25-25H0z"/>
            <path class="cls-2" d="M59.68 54.34l-25-25H8.91l10.67 10.67h16.05l14.28 14.28 9.77.05z"/>
            <path class="cls-2" d="M60.63 34.96l-25-25H8.91l10.95 10.95h14.82l14.04 14.04 11.91.01z"/>
        </g>
        <path class="st_face" d="M35.63 48.85H0V1.25h35.63V10H8.91v11h25.77v8.43H8.91V40h26.72z"/>
    </symbol>
    <symbol id="st_l_F" viewBox="0 0 59.2 76.9">
        <path class="st_sides" d="M59.2 34.96v-8.64l-25-25H0v47.53l25 25h8.98V56.24h23.86v-8.29L44.8 34.96h14.4z"/>
        <g class="st_shadows" fill="url(#st_lg)">
            <path class="cls-2" d="M33.98 73.85l-25-25H0l25 25h8.98z"/>
            <path class="cls-2" d="M57.84 56.24l-25-25H8.98l25 25h23.86z"/>
            <path class="cls-2" d="M59.2 34.96l-25-25H8.98l12.93 12.93h10.93L44.86 34.9l14.34.06z"/>
        </g>
        <path class="st_face" d="M0 48.85V1.32h34.2V10H9v13h23.84v8.29H9v17.56z"/>
    </symbol>
    <symbol id="st_l_G" viewBox="0 0 69.13 76.9">
        <path class="st_sides" d="M57.57 34.87A16 16 0 0 1 62.26 38l5.58-5.71-25-25a24 24 0 0 0-8.26-5.49A25.59 25.59 0 0 0 25.16 0a26.3 26.3 0 0 0-11 2.14 23.3 23.3 0 0 0-7.87 5.71 23.74 23.74 0 0 0-4.73 8.23A30.35 30.35 0 0 0 0 25.77a29.18 29.18 0 0 0 1.43 9.08 21.26 21.26 0 0 0 4.45 7.75l25 25a21.76 21.76 0 0 0 7.79 5.4 29.08 29.08 0 0 0 11.49 2A24.33 24.33 0 0 0 61 72.8a25.57 25.57 0 0 0 8.09-6.32V46.42z"/>
        <g class="st_shadows" fill="url(#st_lg)">
            <path class="cls-2" d="M44.13 41.48A25.57 25.57 0 0 1 36 47.8a24.33 24.33 0 0 1-10.88 2.25 29.08 29.08 0 0 1-11.49-2 21.76 21.76 0 0 1-7.75-5.45l25 25a21.76 21.76 0 0 0 7.79 5.4 29.08 29.08 0 0 0 11.49 2A24.33 24.33 0 0 0 61 72.8a25.57 25.57 0 0 0 8.09-6.32z"/>
            <path class="cls-2" d="M35.9 29.44H23.73l9.93 9.93a21.45 21.45 0 0 0 2.24-1.54z"/>
            <path class="cls-2" d="M37.26 13a16.12 16.12 0 0 0-5.67-3.54 18.59 18.59 0 0 0-6.43-1.22 16.69 16.69 0 0 0-6.87 1.36 14.89 14.89 0 0 0-5.17 3.73l10.61 10.6v-2.51h20.4l13.45 13.45h.06A15.63 15.63 0 0 1 62.26 38z"/>
        </g>
        <path class="st_face" d="M37.26 13a16.12 16.12 0 0 0-5.67-3.54 18.59 18.59 0 0 0-6.43-1.22 16.69 16.69 0 0 0-6.87 1.36 14.89 14.89 0 0 0-5.17 3.73 16.69 16.69 0 0 0-3.23 5.56 20.73 20.73 0 0 0-1.12 6.86 19.39 19.39 0 0 0 .89 5.77 13.74 13.74 0 0 0 2.85 5.08 14.61 14.61 0 0 0 5.1 3.64 18.64 18.64 0 0 0 7.55 1.39 18.06 18.06 0 0 0 5.37-.78 17.13 17.13 0 0 0 5.37-3v-8.41H23.73v-8h20.4v20.04A25.57 25.57 0 0 1 36 47.8a24.33 24.33 0 0 1-10.88 2.25 29.08 29.08 0 0 1-11.49-2 21.76 21.76 0 0 1-7.75-5.45 21.26 21.26 0 0 1-4.45-7.75A29.18 29.18 0 0 1 0 25.77a30.35 30.35 0 0 1 1.56-9.69 23.74 23.74 0 0 1 4.73-8.23 23.3 23.3 0 0 1 7.85-5.71A26.3 26.3 0 0 1 25.16 0a25.59 25.59 0 0 1 9.42 1.8 24 24 0 0 1 8.26 5.48z"/>
    </symbol>
    <symbol id="st_l_H" viewBox="0 0 66.28 76.9">
        <path class="st_sides" d="M41.28 1.32h-8.91v20.06h-3.33L8.98 1.32H0v47.6l25 25h8.98V54.68h4.22l19.17 19.24h8.91v-47.6l-25-25z"/>
        <g class="st_shadows" fill="url(#st_lg)">
            <path class="cls-2" d="M33.98 73.92l-25-25H0l25 25h8.98z"/>
            <path class="cls-2" d="M8.98 29.68l25 25h4.22l-5.79-5.8v-19.2H8.98z"/>
            <path class="cls-2" d="M66.28 73.92l-25-25h-8.91l25 25h8.91z"/>
        </g>
        <path class="st_face" d="M32.37 48.92V29.68H9v19.24H0V1.32h9v20.06h23.37V1.32h8.91v47.6z"/>
    </symbol>
    <symbol id="st_l_I" viewBox="0 0 33.91 76.9">
        <path class="st_sides" d="M8.91 1.25H0v47.6l25 25h8.91v-47.6l-25-25z"/>
        <g class="st_shadows" fill="url(#st_lg)">
            <path d="M33.91 73.85l-25-25H0l25 25h8.91z"/>
        </g>
        <path class="st_face" d="M0 48.85V1.25h8.91v47.6z"/>
    </symbol>
    <symbol id="st_l_J" viewBox="0 0 66.82 76.9">
        <path class="st_sides" d="M41.82 1.31H18.5v8.43l14.34 14.33v4.54a17.08 17.08 0 0 1-.71 5 11.07 11.07 0 0 1-2.21 4.07 10.33 10.33 0 0 1-3.74 2.72 13 13 0 0 1-5.09 1S8.84 29.16 8.84 29.12H0A23.7 23.7 0 0 0 1.56 38a18.41 18.41 0 0 0 4.32 6.5l25 25a18.32 18.32 0 0 0 6.6 4 24.92 24.92 0 0 0 8.4 1.36 23.19 23.19 0 0 0 8.8-1.59 18.83 18.83 0 0 0 6.6-4.42 19.13 19.13 0 0 0 4.11-6.74 24.71 24.71 0 0 0 1.43-8.53V26.31z"/>
        <g class="st_shadows" fill="url(#st_lg)">
            <path class="cls-2" d="M37.09 42.93c-.25.3-.5.62-.77.91a18.83 18.83 0 0 1-6.6 4.42 23.19 23.19 0 0 1-8.8 1.59 24.92 24.92 0 0 1-8.4-1.36 18.32 18.32 0 0 1-6.6-4l25 25a18.32 18.32 0 0 0 6.6 4 24.92 24.92 0 0 0 8.4 1.36 23.19 23.19 0 0 0 8.8-1.59 18.83 18.83 0 0 0 6.6-4.42c.28-.3.53-.62.8-.94z"/>
            <path class="cls-2" d="M4.34 42.82l-.44-.6z"/>
            <path class="cls-2" d="M18.5 9.74l14.34 14.33V9.74H18.5z"/>
        </g>
        <path class="st_face" d="M41.82 1.31v27.27a24.71 24.71 0 0 1-1.43 8.53 19.13 19.13 0 0 1-4.11 6.74 18.83 18.83 0 0 1-6.6 4.42 23.19 23.19 0 0 1-8.8 1.59 24.92 24.92 0 0 1-8.4-1.36 18.32 18.32 0 0 1-6.6-4A18.41 18.41 0 0 1 1.56 38 23.7 23.7 0 0 1 0 29.12h8.84q0 12.31 12 12.31a13.06 13.06 0 0 0 5.3-1 10.33 10.33 0 0 0 3.74-2.72 11.07 11.07 0 0 0 2.21-4.07 17.08 17.08 0 0 0 .71-5V9.74H18.5V1.31z"/>
    </symbol>
    <symbol id="st_l_K" viewBox="0 0 64.98 76.9">
        <path class="st_sides" d="M42.07 49.37l21.15-22.79-25-25.27H27.06l-8.6 9.57-9.48-9.57H0v47.6l25 25h8.98V53.98L53.9 73.91h11.08v-.54l-22.91-24z"/>
        <g class="st_shadows" fill="url(#st_lg)">
            <path class="cls-2" d="M33.98 73.91l-25-25H0l25 25h8.98z"/>
            <path class="cls-2" d="M64.98 73.91l-25-25H28.9l25 25h11.08z"/>
        </g>
        <path class="st_face" d="M38.22 1.58L17.07 24.36 40 48.37v.54H28.9L9 27.83v21.08H0V1.31h9v20.13L27.06 1.31h11.16z"/>
    </symbol>
    <symbol id="st_l_L" viewBox="0 0 58.46 76.9">
        <path class="st_sides" d="M33.98 41.21v-14.9l-25-25H0v47.6l25 25h33.46v-8.29L33.98 41.21z"/>
        <g class="st_shadows" fill="url(#st_lg)">
            <path d="M25 73.91l-25-25h33.46l25 25H25z"/>
        </g>
        <path class="st_face" d="M9 1.31v39.31h24.46v8.29H0V1.31z"/>
    </symbol>
    <symbol id="st_l_M" viewBox="0 0 75.39 76.9">
        <path class="st_sides" d="M50.39 1.38H40.12L27.57 18.63 10.34 1.38H0v47.6l25 25h8.98V44.93l15.16 15.18h1.77l.71-.95 14.79 14.82h8.98v-47.6l-25-25z"/>
        <g class="st_shadows" fill="url(#st_lg)">
            <path class="cls-2" d="M33.98 73.98l-25-25H0l25 25h8.98z"/>
            <path class="cls-2" d="M50.91 60.11l-25-25h-1.77l25 25h1.77z"/>
            <path class="cls-2" d="M75.39 73.98l-25-25h-8.98l25 25h8.98z"/>
        </g>
        <path class="st_face" d="M41.41 14.44l-15.5 20.67h-1.77L9 14.37V49H0V1.38h10.34l14.89 20.47L40.12 1.38h10.27V49h-9z"/>
    </symbol>
    <symbol id="st_l_N" viewBox="0 0 66.55 76.9">
        <path class="st_sides" d="M41.55 1.31h-8.98v25.38L7.28 1.31H0v47.6l25 25h8.98V48.54l25.29 25.37h7.28v-47.6l-25-25z"/>
        <g class="st_shadows" fill="url(#st_lg)">
            <path class="cls-2" d="M33.98 73.91l-25-25H0l25 25h8.98z"/>
            <path class="cls-2" d="M66.55 73.91l-25-25h-7.28l25 25h7.28z"/>
        </g>
        <path class="st_face" d="M32.57 33.34v-32h9v47.6h-7.3L9 17.22v31.69H0V1.31h7.28z"/>
    </symbol>
    <symbol id="st_l_O" viewBox="0 0 73.89 76.9">
        <path class="st_sides" d="M72.46 41.27a23.32 23.32 0 0 0-4.52-8 19.87 19.87 0 0 0-1.63-1.68S41.45 6.73 41.41 6.7a23.6 23.6 0 0 0-6-4.1A25.3 25.3 0 0 0 24.68.36 26 26 0 0 0 15 2.16a23.26 23.26 0 0 0-7.85 5.1 23.76 23.76 0 0 0-5.25 7.92A26.76 26.76 0 0 0 0 25.45a28.91 28.91 0 0 0 1.46 9.11A22.43 22.43 0 0 0 6 42.42a20.87 20.87 0 0 0 1.62 1.64S32.43 68.93 32.47 69a23 23 0 0 0 6.13 4 26.43 26.43 0 0 0 10.88 2 25.74 25.74 0 0 0 10.85-2.11 21.91 21.91 0 0 0 7.58-5.57 23.06 23.06 0 0 0 4.45-7.89 29.73 29.73 0 0 0 1.53-9 27.16 27.16 0 0 0-1.43-9.16z"/>
        <g class="st_shadows" fill="url(#st_lg)">
            <path class="cls-2" d="M42.35 42.93h-.05a22 22 0 0 1-7 5A25.74 25.74 0 0 1 24.48 50a26.43 26.43 0 0 1-10.88-2.07 23.1 23.1 0 0 1-6-3.87S32.43 68.93 32.47 69a23 23 0 0 0 6.13 4 26.43 26.43 0 0 0 10.88 2 25.74 25.74 0 0 0 10.85-2.11 22.14 22.14 0 0 0 7-5z"/>
            <path class="cls-2" d="M40.05 25.52a19.83 19.83 0 0 0-.78-6 15.76 15.76 0 0 0-2.72-5.41 14.83 14.83 0 0 0-4.83-4 15.53 15.53 0 0 0-7-1.63 16.54 16.54 0 0 0-6.8 1.33 14.41 14.41 0 0 0-4.13 2.73L37 35.82a14.9 14.9 0 0 0 2.14-4.45 22.42 22.42 0 0 0 .91-5.85z"/>
        </g>
        <path class="st_face" d="M24.68.36A25.3 25.3 0 0 1 35.36 2.6a23.1 23.1 0 0 1 7.58 5.68 23.32 23.32 0 0 1 4.52 8 27.16 27.16 0 0 1 1.43 9.11 29.73 29.73 0 0 1-1.53 9.05 23.06 23.06 0 0 1-4.45 7.89 21.91 21.91 0 0 1-7.58 5.57A25.74 25.74 0 0 1 24.48 50a26.43 26.43 0 0 1-10.88-2.07A22.19 22.19 0 0 1 6 42.42a22.43 22.43 0 0 1-4.49-7.86A28.91 28.91 0 0 1 0 25.45a26.76 26.76 0 0 1 1.9-10.27 23.76 23.76 0 0 1 5.24-7.92A23.26 23.26 0 0 1 15 2.16a26 26 0 0 1 9.68-1.8zM8.84 25.59a21.2 21.2 0 0 0 .95 5.81 15.23 15.23 0 0 0 2.76 5.2 13.69 13.69 0 0 0 4.79 3.74 16.06 16.06 0 0 0 7.14 1.43 16.06 16.06 0 0 0 7.14-1.43 13.69 13.69 0 0 0 4.79-3.74 14.61 14.61 0 0 0 2.72-5.23 22.42 22.42 0 0 0 .92-5.85 19.83 19.83 0 0 0-.78-6 15.76 15.76 0 0 0-2.72-5.41 14.83 14.83 0 0 0-4.83-4 15.53 15.53 0 0 0-7-1.63 16.54 16.54 0 0 0-6.8 1.33 14.36 14.36 0 0 0-5 3.63 15.77 15.77 0 0 0-3.09 5.44 18.37 18.37 0 0 0-.99 6.71z"/>
    </symbol>
    <symbol id="st_l_P" viewBox="0 0 64.98 76.9">
        <path class="st_sides" d="M63.9 36.85a15.92 15.92 0 0 0-3.3-5.37l-25-25a16.15 16.15 0 0 0-5.51-3.81 19.16 19.16 0 0 0-7.65-1.43H11.22L0 1.31v47.6l25 25h9v-14h13.44a19.48 19.48 0 0 0 7.72-1.53 15.86 15.86 0 0 0 8.74-9.21 18.08 18.08 0 0 0 0-12.31z"/>
        <g class="st_shadows" fill="url(#st_lg)">
            <path class="cls-2" d="M33.98 73.91l-25-25H0l25 25h8.98z"/>
            <path class="cls-2" d="M35.63 29.53a16 16 0 0 1-5.47 3.84 19.48 19.48 0 0 1-7.72 1.53H9l25 25h13.44a19.48 19.48 0 0 0 7.72-1.53 16 16 0 0 0 5.47-3.84z"/>
            <path class="cls-2" d="M25.41 26.24a7.13 7.13 0 0 0 1.79-.82 8.21 8.21 0 0 0 2.86-3.13 9.09 9.09 0 0 0 0-8.09 8.21 8.21 0 0 0-2.86-3.13 8.46 8.46 0 0 0-4.76-1.26H9z"/>
        </g>
        <path class="st_face" d="M9 34.9v14H0V1.31h22.44a19.16 19.16 0 0 1 7.65 1.43 15.79 15.79 0 0 1 8.81 9.18 18.08 18.08 0 0 1 0 12.31 15.86 15.86 0 0 1-8.74 9.21 19.48 19.48 0 0 1-7.72 1.53zm0-8.22h13.44a8.46 8.46 0 0 0 4.76-1.26 8.21 8.21 0 0 0 2.86-3.13 9.09 9.09 0 0 0 0-8.09 8.21 8.21 0 0 0-2.86-3.13 8.46 8.46 0 0 0-4.76-1.26H9z"/>
    </symbol>
    <symbol id="st_l_Q" viewBox="0 0 75.12 76.9">
        <path class="st_sides" d="M69.5 65a23.67 23.67 0 0 0 3.37-7.33 29.44 29.44 0 0 0-.51-17.07 22.66 22.66 0 0 0-4.45-7.82 19.16 19.16 0 0 0-1.61-1.68L41.4 6.2a22.69 22.69 0 0 0-6.07-4A26.22 26.22 0 0 0 24.48.16 25.63 25.63 0 0 0 13.6 2.3 22.49 22.49 0 0 0 6 7.94a23.14 23.14 0 0 0-4.49 8 29.15 29.15 0 0 0 0 18.22A22.94 22.94 0 0 0 5.92 42a19.51 19.51 0 0 0 1.61 1.67l24.9 24.9a22.65 22.65 0 0 0 6.1 4 26.28 26.28 0 0 0 10.95 2.11A24.51 24.51 0 0 0 63 71.19l5.78 5.71 6.33-6.32z"/>
        <g class="st_shadows" fill="url(#st_lg)">
            <path class="cls-2" transform="rotate(-45 59.457 61.242)" d="M54.98 43.56h8.94v35.36h-8.94z"/>
            <path class="cls-2" d="M38 46.19a24.51 24.51 0 0 1-13.53 3.54 26.28 26.28 0 0 1-11-2.11 23 23 0 0 1-6-3.91l24.9 24.9a22.65 22.65 0 0 0 6.1 4 26.28 26.28 0 0 0 10.95 2.11A24.51 24.51 0 0 0 63 71.19z"/>
            <path class="cls-2" d="M40.05 24.23a22.79 22.79 0 0 0-1-5.71 15.21 15.21 0 0 0-2.72-5.14 13.77 13.77 0 0 0-4.72-3.7 15.86 15.86 0 0 0-7.11-1.43 15.7 15.7 0 0 0-7.21 1.53 14.64 14.64 0 0 0-3.84 2.79l23.1 23.12a16.65 16.65 0 0 0 2.72-5.34 18.4 18.4 0 0 0 .78-6.12z"/>
        </g>
        <path class="st_face" d="M24.48.16a26.22 26.22 0 0 1 10.85 2.07 21.78 21.78 0 0 1 7.58 5.51 22.66 22.66 0 0 1 4.45 7.82 29.44 29.44 0 0 1 .51 17.07 23.5 23.5 0 0 1-3.4 7.37l5.65 5.58-6.33 6.32L38 46.19a24.51 24.51 0 0 1-13.53 3.54 26.28 26.28 0 0 1-11-2.11A21.65 21.65 0 0 1 5.92 42a22.94 22.94 0 0 1-4.46-7.92 29.15 29.15 0 0 1 0-18.22A23.14 23.14 0 0 1 6 7.94a22.49 22.49 0 0 1 7.6-5.64A25.63 25.63 0 0 1 24.48.16zm0 8.09a15.7 15.7 0 0 0-7.21 1.53 14 14 0 0 0-4.86 4 16.48 16.48 0 0 0-2.75 5.47 19.6 19.6 0 0 0-.82 6 19.3 19.3 0 0 0 1.05 5.81 16.18 16.18 0 0 0 2.93 5.2A14.44 14.44 0 0 0 17.68 40a15.23 15.23 0 0 0 6.8 1.43 15.17 15.17 0 0 0 7-1.53 14.43 14.43 0 0 0 4.93-4 16.51 16.51 0 0 0 2.86-5.54 18.4 18.4 0 0 0 .78-6.12 22.79 22.79 0 0 0-1-5.71 15.21 15.21 0 0 0-2.72-5.14 13.77 13.77 0 0 0-4.72-3.7 15.86 15.86 0 0 0-7.13-1.44z"/>
    </symbol>
    <symbol id="st_l_R" viewBox="0 0 67.16 76.9">
        <path class="st_sides" d="M52.74 57a16.42 16.42 0 0 0 5.72-2.17 12.78 12.78 0 0 0 3.7-3.53 14 14 0 0 0 2-4.41 19.13 19.13 0 0 0 .61-4.82 16.32 16.32 0 0 0-1.09-5.9 14.09 14.09 0 0 0-3.26-5l-25-25a16.44 16.44 0 0 0-5.37-3.5 19.35 19.35 0 0 0-7.42-1.32H-.01v47.56l25 25h9v-16h6.94l16 16h10.23v-.61z"/>
        <g class="st_shadows" fill="url(#st_lg)">
            <path class="cls-2" d="M33.98 73.91l-25-25H0l25 25h8.98z"/>
            <path class="cls-2" d="M67.16 73.91l-25-25H31.89l25 25h10.27z"/>
            <path class="cls-2" d="M31.89 48.91l-13.8-15.98H8.98l25 25h6.94l-8.24-9.02h-.79z"/>
            <path class="cls-2" d="M36.05 27.64a13.49 13.49 0 0 1-2.59 2.17A16.42 16.42 0 0 1 27.74 32l25 25 2-.52a15 15 0 0 0 3.68-1.65 13.49 13.49 0 0 0 2.59-2.17z"/>
            <path class="cls-2" d="M26.32 24.27a7.06 7.06 0 0 0 2.55-1.73 7.15 7.15 0 0 0 1.46-2.44 8.43 8.43 0 0 0 0-5.55 7 7 0 0 0-1.5-2.44 7.4 7.4 0 0 0-2.55-1.72 9.32 9.32 0 0 0-3.64-.65H9l15.05 15.08a9.1 9.1 0 0 0 2.27-.55z"/>
        </g>
        <path class="st_face" d="M42.16 48.91H31.89l-13.8-16H9v16H0V1.24h22.64a19.16 19.16 0 0 1 7.42 1.33 16.26 16.26 0 0 1 5.37 3.49 14.09 14.09 0 0 1 3.26 5 16.32 16.32 0 0 1 1.09 5.9 19.13 19.13 0 0 1-.61 4.82 14 14 0 0 1-2 4.41 12.78 12.78 0 0 1-3.7 3.53A16.42 16.42 0 0 1 27.74 32l14.42 16.3zM9 9.74v15.17h13.64a9.84 9.84 0 0 0 3.68-.64 7.06 7.06 0 0 0 2.55-1.73 7.15 7.15 0 0 0 1.46-2.44 8.43 8.43 0 0 0 0-5.55 7 7 0 0 0-1.5-2.44 7.4 7.4 0 0 0-2.55-1.72 9.32 9.32 0 0 0-3.64-.65z"/>
    </symbol>
    <symbol id="st_l_S" viewBox="0 0 65.73 76.9">
        <path class="st_sides" d="M64.13 53.29a12.91 12.91 0 0 0-1.92-2.52s-17.9-17.89-17.9-17.9h1.5a15.68 15.68 0 0 1 3.7.44 15.18 15.18 0 0 1 3.27 1.19 13.93 13.93 0 0 1 1.65 1l2.67 2.66 7.14-3.67a16.15 16.15 0 0 0-2.52-3.68L36.82 5.87c-.32-.34-.64-.67-1-1A16.76 16.76 0 0 0 31.31 2 21.9 21.9 0 0 0 26.08.44 35.57 35.57 0 0 0 20.54 0 27 27 0 0 0 14 .82 20.15 20.15 0 0 0 8 3.3a13.46 13.46 0 0 0-4.26 4.28 11.64 11.64 0 0 0-1.63 6.29 12.6 12.6 0 0 0 1.56 6.6 12.55 12.55 0 0 0 1.88 2.39l19.22 19.22a21.57 21.57 0 0 1-3.89.35 19.9 19.9 0 0 1-4.25-.43 15.45 15.45 0 0 1-3-1s-6.13-6.07-6.15-6.12L0 38.76a17.84 17.84 0 0 0 3.33 5.51c.34.37.7.73 1.07 1.07 0 0 24.86 24.87 24.9 24.9a16.38 16.38 0 0 0 3.7 2.63 21.33 21.33 0 0 0 5.85 2 36.33 36.33 0 0 0 6.87.62 31.91 31.91 0 0 0 7.58-.89 19.65 19.65 0 0 0 6.39-2.72 13.78 13.78 0 0 0 4.39-4.69 13.59 13.59 0 0 0 1.63-6.87 13.64 13.64 0 0 0-1.58-7.03z"/>
        <g class="st_shadows" fill="url(#st_lg)">
            <path class="cls-2" d="M38.4 43.26a13.6 13.6 0 0 1-3.67 3.58 19.65 19.65 0 0 1-6.39 2.72 31.91 31.91 0 0 1-7.58.89 36.33 36.33 0 0 1-6.87-.62 21.33 21.33 0 0 1-5.85-2 16.24 16.24 0 0 1-3.64-2.49s24.86 24.87 24.9 24.9a16.38 16.38 0 0 0 3.7 2.63 21.33 21.33 0 0 0 5.85 2 36.33 36.33 0 0 0 6.87.62 31.91 31.91 0 0 0 7.58-.89 19.65 19.65 0 0 0 6.39-2.72 13.82 13.82 0 0 0 3.68-3.59z"/>
            <path class="cls-2" d="M30.91 38.59a5.66 5.66 0 0 0 .91-3.3A5 5 0 0 0 31 32.4a7 7 0 0 0-2.31-2 13.29 13.29 0 0 0-3.5-1.4 36.51 36.51 0 0 0-4.38-.75 54.62 54.62 0 0 1-7-1.23 20.12 20.12 0 0 1-5.95-2.41 12.53 12.53 0 0 1-2.27-1.79l19.18 19.26c-.13 0-.27 0-.41.06.2 0 .4 0 .6-.08a11.1 11.1 0 0 0 3.5-1.26 7.6 7.6 0 0 0 2.45-2.21z"/>
            <path class="cls-2" d="M32.1 13.12a8.21 8.21 0 0 0-1.74-2 13.89 13.89 0 0 0-2.58-1.7 15.37 15.37 0 0 0-3.27-1.19 15.68 15.68 0 0 0-3.7-.44q-5 0-7.45 1.84A5.71 5.71 0 0 0 11.07 13l6.5 6.5q1.86.36 4 .63a71.86 71.86 0 0 1 7.2 1.29 19.79 19.79 0 0 1 6.12 2.48 12.79 12.79 0 0 1 2.22 1.77l.12.12a.12.12 0 0 0 0 .05l7 7h1.5a15.68 15.68 0 0 1 3.7.44 15.18 15.18 0 0 1 3.27 1.19 13.93 13.93 0 0 1 1.65 1z"/>
        </g>
        <path class="st_face" d="M32.1 13.12a8.21 8.21 0 0 0-1.74-2 13.89 13.89 0 0 0-2.58-1.7 15.37 15.37 0 0 0-3.27-1.19 15.68 15.68 0 0 0-3.7-.44q-5 0-7.45 1.84A5.46 5.46 0 0 0 11 14.14a3.89 3.89 0 0 0 .85 2.59 6.38 6.38 0 0 0 2.31 1.7 14.84 14.84 0 0 0 3.37 1.05c1.26.25 2.62.47 4.08.65a71.86 71.86 0 0 1 7.2 1.29 19.79 19.79 0 0 1 6.12 2.48 12.67 12.67 0 0 1 4.25 4.39 13.64 13.64 0 0 1 1.6 7 13.59 13.59 0 0 1-1.63 6.87 13.78 13.78 0 0 1-4.39 4.69 19.65 19.65 0 0 1-6.39 2.72 31.91 31.91 0 0 1-7.58.89 36.33 36.33 0 0 1-6.87-.62 21.33 21.33 0 0 1-5.85-2 16.51 16.51 0 0 1-4.69-3.6A17.84 17.84 0 0 1 0 38.76l7.48-3.88a10.73 10.73 0 0 0 2.18 3.4 11.44 11.44 0 0 0 3.12 2.35A15 15 0 0 0 16.63 42a19.9 19.9 0 0 0 4.25.44 21.88 21.88 0 0 0 4.12-.38 11.1 11.1 0 0 0 3.5-1.26 7.6 7.6 0 0 0 2.45-2.21 5.66 5.66 0 0 0 .91-3.3A5 5 0 0 0 31 32.4a7 7 0 0 0-2.31-2 13.29 13.29 0 0 0-3.5-1.4 36.51 36.51 0 0 0-4.38-.75 54.62 54.62 0 0 1-7-1.23 20.12 20.12 0 0 1-5.95-2.41 12.38 12.38 0 0 1-4.15-4.18 12.6 12.6 0 0 1-1.56-6.6 11.64 11.64 0 0 1 1.59-6.25A13.46 13.46 0 0 1 8 3.3a20.15 20.15 0 0 1 6-2.48A27 27 0 0 1 20.54 0a35.57 35.57 0 0 1 5.54.44A21.9 21.9 0 0 1 31.31 2a16.76 16.76 0 0 1 4.53 2.9 15.19 15.19 0 0 1 3.4 4.55z"/>
    </symbol>
    <symbol id="st_l_T" viewBox="0 0 64.17 76.9">
        <path class="st_sides" d="M39.17 1.32H0v8.16L15.1 24.5v24.42l25 25h8.97V34.48h15.1v-8.16l-25-25z"/>
        <g class="st_shadows" fill="url(#st_lg)">
            <path class="cls-2" d="M49.07 73.92l-25-25H15.1l25 25h8.97z"/>
            <path class="cls-2" d="M64.17 34.48l-25-25h-15.1l25 25h15.1z"/>
            <path class="cls-2" d="M0 9.48h15.1V24.5L0 9.48z"/>
        </g>
        <path class="st_face" d="M15.1 9.48H0V1.32h39.17v8.16h-15.1v39.44h-9z"/>
    </symbol>
    <symbol id="st_l_U" viewBox="0 0 66.75 76.9">
        <path class="st_sides" d="M41.75 1.38h-8.91v24l-23.93-24H0v27.27A24 24 0 0 0 1.7 38a18.85 18.85 0 0 0 4.59 6.7l25 25A18.57 18.57 0 0 0 38 73.64a25.09 25.09 0 0 0 8.13 1.3 24.38 24.38 0 0 0 8.26-1.36 18.2 18.2 0 0 0 6.53-4 18 18 0 0 0 4.28-6.63 25.75 25.75 0 0 0 1.53-9.28V26.38z"/>
        <g class="st_shadows" fill="url(#st_lg)">
            <path d="M37.4 43a16 16 0 0 1-1.45 1.61 18.2 18.2 0 0 1-6.53 4 24.38 24.38 0 0 1-8.26 1.36A25.09 25.09 0 0 1 13 48.64a18.57 18.57 0 0 1-6.71-3.94l25 25A18.57 18.57 0 0 0 38 73.64a25.09 25.09 0 0 0 8.13 1.3 24.38 24.38 0 0 0 8.26-1.36 18.2 18.2 0 0 0 6.53-4 15 15 0 0 0 1.45-1.62z"/>
        </g>
        <path class="st_face" d="M41.75 1.38v27.27a25.75 25.75 0 0 1-1.53 9.28 18 18 0 0 1-4.28 6.63 18.2 18.2 0 0 1-6.53 4 24.38 24.38 0 0 1-8.26 1.36A25.09 25.09 0 0 1 13 48.64a18.57 18.57 0 0 1-6.71-3.94A18.85 18.85 0 0 1 1.7 38 24 24 0 0 1 0 28.65V1.38h8.91v27.27q0 6.47 3.36 9.79a12.15 12.15 0 0 0 9 3.34q5.57 0 8.6-3.47t3-9.66V1.38z"/>
    </symbol>
    <symbol id="st_l_V" viewBox="0 0 73.89 76.9">
        <path class="st_sides" d="M48.89 1.32H38.83l-8.07 20.75-20.7-20.75H0l19.79 47.8 25 25h9.31l19.79-47.8-25-25z"/>
        <g class="st_shadows" fill="url(#st_lg)">
            <path d="M54.1 74.12l-25-25h-9.31l25 25h9.31z"/>
        </g>
        <path class="st_face" d="M29.1 49.12h-9.31L0 1.32h10.06l14.35 37.06L38.83 1.32h10.06z"/>
    </symbol>
    <symbol id="st_l_W" viewBox="0 0 96.54 76.9">
        <path class="st_sides" d="M71.54 1.32H61.47l-5.48 17.3-17.3-17.3h-5.85l-5.75 17.09L10.06 1.32H0l17.48 47.6 25 25h7.61l5.78-14.83.28-.84 15.63 15.67h7.62l17.14-47.6-25-25z"/>
        <g class="st_shadows" fill="url(#st_lg)">
            <path class="cls-2" d="M50.09 73.92l-25-25h-7.61l25 25h7.61z"/>
            <path class="cls-2" d="M79.4 73.92l-25-25h-7.62l25 25h7.62z"/>
        </g>
        <path class="st_face" d="M54.4 48.92h-7.62L40.87 34l-5-15-5 15.16-5.78 14.76h-7.61L0 1.32h10.06l11.22 34.34L32.84 1.32h5.85l11.9 34.34L61.47 1.32h10.07z"/>
    </symbol>
    <symbol id="st_l_X" viewBox="0 0 69.47 76.9">
        <path class="st_sides" d="M52.88 49.84L69 26.72 44 1.32h-9.86l-9.56 14.25L10.34 1.32H.48v.4l16.04 23.12L0 48.64l25 25.28h10.06l9.87-14.5 14.48 14.5h10.06v-.28l-16.59-23.8z"/>
        <g class="st_shadows" fill="url(#st_lg)">
            <path class="cls-2" d="M35.06 73.92l-25-25L0 48.64l25 25.28h10.06z"/>
            <path class="cls-2" d="M69.47 73.92l-25-25H34.41l25 25h10.06z"/>
        </g>
        <path class="st_face" d="M34.14 1.32H44v.4L27.88 24.84l16.59 23.8v.28H34.41L22.24 31 10.06 48.92H0v-.28l16.52-23.8L.48 1.72v-.4h9.86l11.9 17.74z"/>
    </symbol>
    <symbol id="st_l_Y" viewBox="0 0 71.24 76.9">
        <path class="st_sides" d="M46.24 1.32H35.43l-9.7 15.07L10.68 1.32H0v.4l18.29 27.54v19.66l25 25h8.98V54.26l18.97-27.54v-.4l-25-25z"/>
        <g class="st_shadows" fill="url(#st_lg)">
            <path d="M52.27 73.92l-25-25h-8.98l25 25h8.98z"/>
        </g>
        <path class="st_face" d="M22.78 21L35.43 1.32h10.81v.4l-19 27.54v19.66h-9V29.26L0 1.72v-.4h10.68z"/>
    </symbol>
    <symbol id="st_l_Z" viewBox="0 0 62.2 76.9">
        <path class="st_sides" d="M62.2 26.32l-25-25H1.22v8.22l13.45 13.44L0 43.79v5.13l25 25h37.2v-8.44L47.7 51.06l14.5-20.53v-4.21z"/>
        <g class="st_shadows" fill="url(#st_lg)">
            <path d="M62.2 73.92l-25-25H0l25 25h37.2z"/>
        </g>
        <path class="st_face" d="M1.22 1.32h36v4.21L12.51 40.48H37.2v8.44H0v-5.13L24.14 9.54H1.22z"/>
    </symbol>
    <symbol id="st_l__x2026_" data-name="" viewBox="0 0 74.59 76.9">
        <path class="st_sides" d="M34.79 69.75a4.3 4.3 0 0 1-1.53 3.63 5.35 5.35 0 0 1-6.73 0c-.05 0-25-25-25-25A4.3 4.3 0 0 1 0 44.75a4.31 4.31 0 0 1 1.53-3.64 5.35 5.35 0 0 1 6.73 0c.05 0 25 25 25 25a4.31 4.31 0 0 1 1.53 3.64zm14-3.64l-25-25a5.37 5.37 0 0 0-6.74 0 4.31 4.31 0 0 0-1.53 3.64A4.3 4.3 0 0 0 17 48.38l25 25a5.37 5.37 0 0 0 6.74 0 5.08 5.08 0 0 0 0-7.27zM64.27 66l-25-25a5.35 5.35 0 0 0-6.73 0A4.34 4.34 0 0 0 31 44.62a4.32 4.32 0 0 0 1.53 3.64l25 25a5.35 5.35 0 0 0 6.73 0 5.09 5.09 0 0 0 0-7.28z"/>
        <g class="st_shadows" fill="url(#st_lg)">
            <path class="cls-2" d="M9.06 47.52H9a3.35 3.35 0 0 1-.78.86 5.35 5.35 0 0 1-6.73 0l25 25a5.35 5.35 0 0 0 6.73 0 3.45 3.45 0 0 0 .79-.87z"/>
            <path class="cls-2" d="M24.56 47.52a3.75 3.75 0 0 1-.78.86 5.37 5.37 0 0 1-6.74 0l25 25a5.37 5.37 0 0 0 6.74 0 3.6 3.6 0 0 0 .78-.87z"/>
            <path class="cls-2" d="M40.07 47.4a3.8 3.8 0 0 1-.78.87 5.35 5.35 0 0 1-6.73 0l25 25a5.35 5.35 0 0 0 6.73 0 3.56 3.56 0 0 0 .78-.87z"/>
        </g>
        <path class="st_face" d="M0 44.75a4.31 4.31 0 0 1 1.53-3.64 5.35 5.35 0 0 1 6.73 0 4.31 4.31 0 0 1 1.53 3.64 4.3 4.3 0 0 1-1.53 3.63 5.35 5.35 0 0 1-6.73 0A4.3 4.3 0 0 1 0 44.75zm15.5 0a4.31 4.31 0 0 1 1.5-3.64 5.37 5.37 0 0 1 6.74 0 4.31 4.31 0 0 1 1.53 3.64 4.3 4.3 0 0 1-1.53 3.63 5.37 5.37 0 0 1-6.74 0 4.3 4.3 0 0 1-1.5-3.63zm15.5-.13A4.34 4.34 0 0 1 32.54 41a5.35 5.35 0 0 1 6.73 0 4.34 4.34 0 0 1 1.53 3.64 4.32 4.32 0 0 1-1.53 3.64 5.35 5.35 0 0 1-6.73 0A4.32 4.32 0 0 1 31 44.62z"/>
    </symbol>
</svg>
